# Blender 5.0.1
# www.blender.org
mtllib Capsule.mtl
o Sphere
v 0.000000 4.019142 0.000000
v 0.000000 3.850612 -0.555570
v 0.000000 3.574712 -0.831470
v 0.000000 3.214232 -0.980785
v 0.000000 3.019142 -1.000000
v 0.000000 -0.195090 -0.980785
v 0.000000 -0.555570 -0.831470
v 0.000000 -1.000000 0.000000
v 0.038060 3.999928 -0.191342
v 0.074658 3.943022 -0.375330
v 0.108386 3.850612 -0.544895
v 0.137950 3.726249 -0.693520
v 0.162212 3.574712 -0.815493
v 0.180240 3.401826 -0.906127
v 0.191342 3.214232 -0.961940
v 0.195090 3.019142 -0.980785
v 0.191342 -0.195090 -0.961940
v 0.180240 -0.382683 -0.906127
v 0.162212 -0.555570 -0.815493
v 0.137950 -0.707107 -0.693520
v 0.108386 -0.831470 -0.544895
v 0.074658 -0.923880 -0.375330
v 0.038060 -0.980785 -0.191342
v 0.074658 3.999928 -0.180240
v 0.146447 3.943022 -0.353553
v 0.212608 3.850612 -0.513280
v 0.270598 3.726249 -0.653281
v 0.318190 3.574712 -0.768178
v 0.353553 3.401826 -0.853553
v 0.375330 3.214232 -0.906127
v 0.382683 3.019142 -0.923879
v 0.375330 -0.195090 -0.906127
v 0.353553 -0.382683 -0.853553
v 0.318190 -0.555570 -0.768178
v 0.270598 -0.707107 -0.653281
v 0.212608 -0.831470 -0.513280
v 0.146447 -0.923880 -0.353553
v 0.074658 -0.980785 -0.180240
v 0.108386 3.999928 -0.162212
v 0.212608 3.943022 -0.318190
v 0.308658 3.850612 -0.461940
v 0.392847 3.726249 -0.587938
v 0.461940 3.574712 -0.691342
v 0.513280 3.401826 -0.768178
v 0.544895 3.214232 -0.815493
v 0.555570 3.019142 -0.831469
v 0.544895 -0.195090 -0.815493
v 0.513280 -0.382683 -0.768178
v 0.461940 -0.555570 -0.691342
v 0.392847 -0.707107 -0.587938
v 0.308658 -0.831470 -0.461940
v 0.212608 -0.923880 -0.318190
v 0.108386 -0.980785 -0.162212
v 0.137950 3.999928 -0.137950
v 0.270598 3.943022 -0.270598
v 0.392847 3.850612 -0.392847
v 0.500000 3.726249 -0.500000
v 0.587938 3.574712 -0.587938
v 0.653281 3.401826 -0.653281
v 0.693520 3.214232 -0.693520
v 0.707107 3.019142 -0.707107
v 0.693520 -0.195090 -0.693520
v 0.653281 -0.382683 -0.653281
v 0.587938 -0.555570 -0.587938
v 0.500000 -0.707107 -0.500000
v 0.392847 -0.831470 -0.392847
v 0.270598 -0.923880 -0.270598
v 0.137950 -0.980785 -0.137950
v 0.162212 3.999928 -0.108386
v 0.318190 3.943022 -0.212608
v 0.461940 3.850612 -0.308658
v 0.587938 3.726249 -0.392847
v 0.691342 3.574712 -0.461940
v 0.768178 3.401826 -0.513280
v 0.815493 3.214232 -0.544895
v 0.831470 3.019142 -0.555570
v 0.815493 -0.195090 -0.544895
v 0.768178 -0.382683 -0.513280
v 0.691342 -0.555570 -0.461940
v 0.587938 -0.707107 -0.392847
v 0.461940 -0.831470 -0.308658
v 0.318190 -0.923880 -0.212608
v 0.162212 -0.980785 -0.108386
v 0.180240 3.999928 -0.074658
v 0.353553 3.943022 -0.146447
v 0.513280 3.850612 -0.212607
v 0.653281 3.726249 -0.270598
v 0.768178 3.574712 -0.318190
v 0.853553 3.401826 -0.353553
v 0.906127 3.214232 -0.375330
v 0.923879 3.019142 -0.382683
v 0.906127 -0.195090 -0.375330
v 0.853553 -0.382683 -0.353553
v 0.768178 -0.555570 -0.318190
v 0.653281 -0.707107 -0.270598
v 0.513280 -0.831470 -0.212607
v 0.353553 -0.923880 -0.146447
v 0.180240 -0.980785 -0.074658
v 0.191342 3.999928 -0.038060
v 0.375330 3.943022 -0.074658
v 0.544895 3.850612 -0.108386
v 0.693520 3.726249 -0.137950
v 0.815493 3.574712 -0.162212
v 0.906127 3.401826 -0.180240
v 0.961940 3.214232 -0.191342
v 0.980785 3.019142 -0.195090
v 0.961940 -0.195090 -0.191342
v 0.906127 -0.382683 -0.180240
v 0.815493 -0.555570 -0.162212
v 0.693520 -0.707107 -0.137950
v 0.544895 -0.831470 -0.108386
v 0.375330 -0.923880 -0.074658
v 0.191342 -0.980785 -0.038060
v 0.195090 3.999928 0.000000
v 0.382683 3.943022 0.000000
v 0.555570 3.850612 0.000000
v 0.707107 3.726249 -0.000000
v 0.831469 3.574712 0.000000
v 0.923879 3.401826 -0.000000
v 0.980785 3.214232 0.000000
v 1.000000 3.019142 0.000000
v 0.980785 -0.195090 0.000000
v 0.923879 -0.382683 -0.000000
v 0.831469 -0.555570 0.000000
v 0.707107 -0.707107 -0.000000
v 0.555570 -0.831470 0.000000
v 0.382683 -0.923880 0.000000
v 0.195090 -0.980785 0.000000
v 0.191342 3.999928 0.038060
v 0.375330 3.943022 0.074658
v 0.544895 3.850612 0.108386
v 0.693520 3.726249 0.137950
v 0.815493 3.574712 0.162212
v 0.906127 3.401826 0.180240
v 0.961940 3.214232 0.191342
v 0.980785 3.019142 0.195090
v 0.961940 -0.195090 0.191342
v 0.906127 -0.382683 0.180240
v 0.815493 -0.555570 0.162212
v 0.693520 -0.707107 0.137950
v 0.544895 -0.831470 0.108386
v 0.375330 -0.923880 0.074658
v 0.191342 -0.980785 0.038060
v 0.180240 3.999928 0.074658
v 0.353553 3.943022 0.146447
v 0.513280 3.850612 0.212608
v 0.653281 3.726249 0.270598
v 0.768178 3.574712 0.318190
v 0.853553 3.401826 0.353553
v 0.906127 3.214232 0.375330
v 0.923879 3.019142 0.382683
v 0.906127 -0.195090 0.375330
v 0.853553 -0.382683 0.353553
v 0.768178 -0.555570 0.318190
v 0.653281 -0.707107 0.270598
v 0.513280 -0.831470 0.212608
v 0.353553 -0.923880 0.146447
v 0.180240 -0.980785 0.074658
v 0.162212 3.999928 0.108386
v 0.318190 3.943022 0.212608
v 0.461940 3.850612 0.308658
v 0.587938 3.726249 0.392847
v 0.691341 3.574712 0.461940
v 0.768178 3.401826 0.513280
v 0.815493 3.214232 0.544895
v 0.831469 3.019142 0.555570
v 0.815493 -0.195090 0.544895
v 0.768178 -0.382683 0.513280
v 0.691341 -0.555570 0.461940
v 0.587938 -0.707107 0.392847
v 0.461940 -0.831470 0.308658
v 0.318190 -0.923880 0.212608
v 0.162212 -0.980785 0.108386
v 0.137950 3.999928 0.137950
v 0.270598 3.943022 0.270598
v 0.392847 3.850612 0.392847
v 0.500000 3.726249 0.500000
v 0.587938 3.574712 0.587938
v 0.653281 3.401826 0.653281
v 0.693520 3.214232 0.693520
v 0.707106 3.019142 0.707107
v 0.693520 -0.195090 0.693520
v 0.653281 -0.382683 0.653281
v 0.587938 -0.555570 0.587938
v 0.500000 -0.707107 0.500000
v 0.392847 -0.831470 0.392847
v 0.270598 -0.923880 0.270598
v 0.137950 -0.980785 0.137950
v 0.108386 3.999928 0.162212
v 0.212607 3.943022 0.318190
v 0.308658 3.850612 0.461940
v 0.392847 3.726249 0.587938
v 0.461940 3.574712 0.691342
v 0.513280 3.401826 0.768178
v 0.544895 3.214232 0.815493
v 0.555570 3.019142 0.831469
v 0.544895 -0.195090 0.815493
v 0.513280 -0.382683 0.768178
v 0.461940 -0.555570 0.691342
v 0.392847 -0.707107 0.587938
v 0.308658 -0.831470 0.461940
v 0.212607 -0.923880 0.318190
v 0.108386 -0.980785 0.162212
v 0.074658 3.999928 0.180240
v 0.146447 3.943022 0.353553
v 0.212607 3.850612 0.513280
v 0.270598 3.726249 0.653281
v 0.318189 3.574712 0.768178
v 0.353553 3.401826 0.853553
v 0.375330 3.214232 0.906127
v 0.382683 3.019142 0.923879
v 0.375330 -0.195090 0.906127
v 0.353553 -0.382683 0.853553
v 0.318189 -0.555570 0.768178
v 0.270598 -0.707107 0.653281
v 0.212607 -0.831470 0.513280
v 0.146447 -0.923880 0.353553
v 0.074658 -0.980785 0.180240
v 0.038060 3.999928 0.191342
v 0.074658 3.943022 0.375330
v 0.108386 3.850612 0.544895
v 0.137950 3.726249 0.693520
v 0.162212 3.574712 0.815493
v 0.180240 3.401826 0.906127
v 0.191342 3.214232 0.961939
v 0.195090 3.019142 0.980785
v 0.191342 -0.195090 0.961939
v 0.180240 -0.382683 0.906127
v 0.162212 -0.555570 0.815493
v 0.137950 -0.707107 0.693520
v 0.108386 -0.831470 0.544895
v 0.074658 -0.923880 0.375330
v 0.038060 -0.980785 0.191342
v -0.000000 3.999928 0.195090
v -0.000000 3.943022 0.382683
v -0.000000 3.850612 0.555570
v -0.000000 3.726249 0.707107
v -0.000000 3.574712 0.831469
v 0.000000 3.401826 0.923879
v -0.000000 3.214232 0.980785
v -0.000000 3.019142 0.999999
v -0.000000 -0.195090 0.980785
v 0.000000 -0.382683 0.923879
v -0.000000 -0.555570 0.831469
v -0.000000 -0.707107 0.707107
v -0.000000 -0.831470 0.555570
v -0.000000 -0.923880 0.382683
v -0.000000 -0.980785 0.195090
v -0.038060 3.999928 0.191342
v -0.074658 3.943022 0.375330
v -0.108386 3.850612 0.544895
v -0.137950 3.726249 0.693520
v -0.162212 3.574712 0.815493
v -0.180240 3.401826 0.906127
v -0.191342 3.214232 0.961939
v -0.195091 3.019142 0.980785
v -0.191342 -0.195090 0.961939
v -0.180240 -0.382683 0.906127
v -0.162212 -0.555570 0.815493
v -0.137950 -0.707107 0.693520
v -0.108386 -0.831470 0.544895
v -0.074658 -0.923880 0.375330
v -0.038060 -0.980785 0.191342
v -0.074658 3.999928 0.180240
v -0.146447 3.943022 0.353553
v -0.212608 3.850612 0.513280
v -0.270598 3.726249 0.653281
v -0.318190 3.574712 0.768177
v -0.353553 3.401826 0.853553
v -0.375330 3.214232 0.906127
v -0.382683 3.019142 0.923879
v -0.375330 -0.195090 0.906127
v -0.353553 -0.382683 0.853553
v -0.318190 -0.555570 0.768177
v -0.270598 -0.707107 0.653281
v -0.212608 -0.831470 0.513280
v -0.146447 -0.923880 0.353553
v -0.074658 -0.980785 0.180240
v -0.108386 3.999928 0.162212
v -0.212608 3.943022 0.318190
v -0.308658 3.850612 0.461939
v -0.392847 3.726249 0.587938
v -0.461940 3.574712 0.691341
v -0.513280 3.401826 0.768178
v -0.544895 3.214232 0.815493
v -0.555570 3.019142 0.831469
v -0.544895 -0.195090 0.815493
v -0.513280 -0.382683 0.768178
v -0.461940 -0.555570 0.691341
v -0.392847 -0.707107 0.587938
v -0.308658 -0.831470 0.461939
v -0.212608 -0.923880 0.318190
v -0.108386 -0.980785 0.162212
v -0.137950 3.999928 0.137950
v -0.270598 3.943022 0.270598
v -0.392847 3.850612 0.392847
v -0.500000 3.726249 0.500000
v -0.587938 3.574712 0.587937
v -0.653281 3.401826 0.653281
v -0.693520 3.214232 0.693520
v -0.707106 3.019142 0.707106
v -0.693520 -0.195090 0.693520
v -0.653281 -0.382683 0.653281
v -0.587938 -0.555570 0.587937
v -0.500000 -0.707107 0.500000
v -0.392847 -0.831470 0.392847
v -0.270598 -0.923880 0.270598
v -0.137950 -0.980785 0.137950
v -0.162212 3.999928 0.108386
v -0.318190 3.943022 0.212607
v -0.461940 3.850612 0.308658
v -0.587938 3.726249 0.392847
v -0.691341 3.574712 0.461939
v -0.768177 3.401826 0.513280
v -0.815493 3.214232 0.544895
v -0.831469 3.019142 0.555569
v -0.815493 -0.195090 0.544895
v -0.768177 -0.382683 0.513280
v -0.691341 -0.555570 0.461939
v -0.587938 -0.707107 0.392847
v -0.461940 -0.831470 0.308658
v -0.318190 -0.923880 0.212607
v -0.162212 -0.980785 0.108386
v -0.180240 3.999928 0.074658
v -0.353553 3.943022 0.146447
v -0.513280 3.850612 0.212607
v -0.653281 3.726249 0.270598
v -0.768177 3.574712 0.318189
v -0.853553 3.401826 0.353553
v -0.906127 3.214232 0.375330
v -0.923879 3.019142 0.382683
v -0.906127 -0.195090 0.375330
v -0.853553 -0.382683 0.353553
v -0.768177 -0.555570 0.318189
v -0.653281 -0.707107 0.270598
v -0.513280 -0.831470 0.212607
v -0.353553 -0.923880 0.146447
v -0.180240 -0.980785 0.074658
v -0.191342 3.999928 0.038060
v -0.375330 3.943022 0.074658
v -0.544895 3.850612 0.108386
v -0.693520 3.726249 0.137950
v -0.815493 3.574712 0.162211
v -0.906127 3.401826 0.180240
v -0.961939 3.214232 0.191341
v -0.980784 3.019142 0.195090
v -0.961939 -0.195090 0.191341
v -0.906127 -0.382683 0.180240
v -0.815493 -0.555570 0.162211
v -0.693520 -0.707107 0.137950
v -0.544895 -0.831470 0.108386
v -0.375330 -0.923880 0.074658
v -0.191342 -0.980785 0.038060
v -0.195090 3.999928 -0.000000
v -0.382683 3.943022 -0.000000
v -0.555570 3.850612 -0.000000
v -0.707107 3.726249 -0.000000
v -0.831469 3.574712 -0.000000
v -0.923879 3.401826 -0.000000
v -0.980785 3.214232 -0.000000
v -0.999999 3.019142 -0.000000
v -0.980785 -0.195090 -0.000000
v -0.923879 -0.382683 -0.000000
v -0.831469 -0.555570 -0.000000
v -0.707107 -0.707107 -0.000000
v -0.555570 -0.831470 -0.000000
v -0.382683 -0.923880 -0.000000
v -0.195090 -0.980785 -0.000000
v -0.191342 3.999928 -0.038060
v -0.375330 3.943022 -0.074658
v -0.544895 3.850612 -0.108386
v -0.693520 3.726249 -0.137950
v -0.815493 3.574712 -0.162212
v -0.906127 3.401826 -0.180240
v -0.961939 3.214232 -0.191342
v -0.980784 3.019142 -0.195091
v -0.961939 -0.195090 -0.191342
v -0.906127 -0.382683 -0.180240
v -0.815493 -0.555570 -0.162212
v -0.693520 -0.707107 -0.137950
v -0.544895 -0.831470 -0.108386
v -0.375330 -0.923880 -0.074658
v -0.191342 -0.980785 -0.038060
v -0.180240 3.999928 -0.074658
v -0.353553 3.943022 -0.146447
v -0.513279 3.850612 -0.212607
v -0.653281 3.726249 -0.270598
v -0.768177 3.574712 -0.318190
v -0.853553 3.401826 -0.353553
v -0.906127 3.214232 -0.375330
v -0.923878 3.019142 -0.382683
v -0.906127 -0.195090 -0.375330
v -0.853553 -0.382683 -0.353553
v -0.768177 -0.555570 -0.318190
v -0.653281 -0.707107 -0.270598
v -0.513279 -0.831470 -0.212607
v -0.353553 -0.923880 -0.146447
v -0.180240 -0.980785 -0.074658
v -0.162212 3.999928 -0.108386
v -0.318189 3.943022 -0.212607
v -0.461939 3.850612 -0.308658
v -0.587938 3.726249 -0.392847
v -0.691341 3.574712 -0.461940
v -0.768177 3.401826 -0.513280
v -0.815493 3.214232 -0.544895
v -0.831468 3.019142 -0.555570
v -0.815493 -0.195090 -0.544895
v -0.768177 -0.382683 -0.513280
v -0.691341 -0.555570 -0.461940
v -0.587938 -0.707107 -0.392847
v -0.461939 -0.831470 -0.308658
v -0.318189 -0.923880 -0.212607
v -0.162212 -0.980785 -0.108386
v -0.137950 3.999928 -0.137950
v -0.270598 3.943022 -0.270598
v -0.392847 3.850612 -0.392847
v -0.500000 3.726249 -0.500000
v -0.587937 3.574712 -0.587938
v -0.653281 3.401826 -0.653281
v -0.693519 3.214232 -0.693520
v -0.707106 3.019142 -0.707106
v -0.693519 -0.195090 -0.693520
v -0.653281 -0.382683 -0.653281
v -0.587937 -0.555570 -0.587938
v -0.500000 -0.707107 -0.500000
v -0.392847 -0.831470 -0.392847
v -0.270598 -0.923880 -0.270598
v -0.137950 -0.980785 -0.137950
v -0.108386 3.999928 -0.162212
v -0.212607 3.943022 -0.318190
v -0.308658 3.850612 -0.461939
v -0.392847 3.726249 -0.587938
v -0.461939 3.574712 -0.691341
v -0.513280 3.401826 -0.768177
v -0.544895 3.214232 -0.815493
v -0.555569 3.019142 -0.831469
v -0.544895 -0.195090 -0.815493
v -0.513280 -0.382683 -0.768177
v -0.461939 -0.555570 -0.691341
v -0.392847 -0.707107 -0.587938
v -0.308658 -0.831470 -0.461939
v -0.212607 -0.923880 -0.318190
v -0.108386 -0.980785 -0.162212
v -0.074658 3.999928 -0.180240
v -0.146446 3.943022 -0.353553
v -0.212607 3.850612 -0.513279
v -0.270598 3.726249 -0.653281
v -0.318189 3.574712 -0.768177
v -0.353553 3.401826 -0.853553
v -0.375330 3.214232 -0.906127
v -0.382683 3.019142 -0.923879
v -0.375330 -0.195090 -0.906127
v -0.353553 -0.382683 -0.853553
v -0.318189 -0.555570 -0.768177
v -0.270598 -0.707107 -0.653281
v -0.212607 -0.831470 -0.513279
v -0.146446 -0.923880 -0.353553
v -0.074658 -0.980785 -0.180240
v -0.038060 3.999928 -0.191342
v -0.074658 3.943022 -0.375330
v -0.108386 3.850612 -0.544895
v -0.137950 3.726249 -0.693520
v -0.162211 3.574712 -0.815493
v -0.180240 3.401826 -0.906127
v -0.191341 3.214232 -0.961939
v -0.195090 3.019142 -0.980784
v -0.191341 -0.195090 -0.961939
v -0.180240 -0.382683 -0.906127
v -0.162211 -0.555570 -0.815493
v -0.137950 -0.707107 -0.693520
v -0.108386 -0.831470 -0.544895
v -0.074658 -0.923880 -0.375330
v -0.038060 -0.980785 -0.191342
v 0.000000 3.999928 -0.195090
v 0.000000 3.943022 -0.382683
v 0.000000 3.726249 -0.707107
v 0.000000 3.401826 -0.923879
v 0.000000 -0.382683 -0.923879
v 0.000000 -0.707107 -0.707107
v 0.000000 -0.831470 -0.555570
v 0.000000 -0.923880 -0.382683
v 0.000000 -0.980785 -0.195090
vn 0.0286 0.9565 -0.2902
vn 0.0938 -0.2890 -0.9527
vn 0.0464 0.8810 -0.4709
vn 0.0865 -0.4696 -0.8786
vn 0.0624 0.7715 -0.6332
vn 0.0759 -0.6326 -0.7708
vn 0.0759 0.6326 -0.7708
vn 0.0624 -0.7715 -0.6332
vn 0.0865 0.4696 -0.8786
vn 0.0464 -0.8810 -0.4709
vn 0.0938 0.2890 -0.9527
vn 0.0286 -0.9565 -0.2902
vn 0.0975 0.0975 -0.9904
vn 0.0096 0.9951 -0.0980
vn 0.0097 -0.9951 -0.0980
vn 0.0980 -0.0059 -0.9952
vn 0.0286 0.9951 -0.0942
vn 0.0286 -0.9951 -0.0942
vn 0.2903 -0.0059 -0.9569
vn 0.0846 0.9565 -0.2790
vn 0.2779 -0.2890 -0.9161
vn 0.1374 0.8810 -0.4528
vn 0.2563 -0.4696 -0.8448
vn 0.1847 0.7715 -0.6088
vn 0.2248 -0.6326 -0.7412
vn 0.2248 0.6326 -0.7412
vn 0.1847 -0.7715 -0.6088
vn 0.2563 0.4696 -0.8448
vn 0.1374 -0.8810 -0.4528
vn 0.2779 0.2890 -0.9161
vn 0.0846 -0.9565 -0.2790
vn 0.2889 0.0976 -0.9524
vn 0.3651 0.6326 -0.6831
vn 0.2999 -0.7715 -0.5611
vn 0.4162 0.4696 -0.7786
vn 0.2230 -0.8810 -0.4173
vn 0.4513 0.2890 -0.8443
vn 0.1374 -0.9565 -0.2571
vn 0.4691 0.0975 -0.8777
vn 0.0464 0.9951 -0.0869
vn 0.0464 -0.9951 -0.0869
vn 0.4714 -0.0059 -0.8819
vn 0.1374 0.9565 -0.2571
vn 0.4513 -0.2890 -0.8443
vn 0.2230 0.8810 -0.4173
vn 0.4162 -0.4696 -0.7786
vn 0.2999 0.7715 -0.5611
vn 0.3651 -0.6326 -0.6831
vn 0.6344 -0.0059 -0.7730
vn 0.1850 0.9565 -0.2254
vn 0.6073 -0.2890 -0.7400
vn 0.3002 0.8810 -0.3658
vn 0.5601 -0.4696 -0.6825
vn 0.4036 0.7715 -0.4918
vn 0.4913 -0.6326 -0.5987
vn 0.4913 0.6326 -0.5987
vn 0.4036 -0.7715 -0.4918
vn 0.5601 0.4696 -0.6825
vn 0.3002 -0.8810 -0.3658
vn 0.6073 0.2890 -0.7400
vn 0.1850 -0.9565 -0.2254
vn 0.6314 0.0975 -0.7693
vn 0.0625 0.9951 -0.0761
vn 0.0625 -0.9951 -0.0761
vn 0.4918 -0.7715 -0.4036
vn 0.6825 0.4696 -0.5601
vn 0.3658 -0.8810 -0.3002
vn 0.7400 0.2890 -0.6073
vn 0.2254 -0.9565 -0.1850
vn 0.7693 0.0975 -0.6314
vn 0.0761 0.9951 -0.0625
vn 0.0761 -0.9951 -0.0625
vn 0.7730 -0.0059 -0.6344
vn 0.2254 0.9565 -0.1850
vn 0.7400 -0.2890 -0.6073
vn 0.3658 0.8810 -0.3002
vn 0.6825 -0.4696 -0.5601
vn 0.4918 0.7715 -0.4036
vn 0.5987 -0.6326 -0.4913
vn 0.5987 0.6326 -0.4913
vn 0.2571 0.9565 -0.1374
vn 0.8443 -0.2890 -0.4513
vn 0.4173 0.8810 -0.2230
vn 0.7786 -0.4696 -0.4162
vn 0.5611 0.7715 -0.2999
vn 0.6831 -0.6326 -0.3651
vn 0.6831 0.6326 -0.3651
vn 0.5611 -0.7715 -0.2999
vn 0.7786 0.4696 -0.4162
vn 0.4173 -0.8810 -0.2230
vn 0.8443 0.2890 -0.4513
vn 0.2571 -0.9565 -0.1374
vn 0.8777 0.0975 -0.4691
vn 0.0869 0.9951 -0.0464
vn 0.0869 -0.9951 -0.0464
vn 0.8819 -0.0059 -0.4714
vn 0.8448 0.4696 -0.2563
vn 0.4528 -0.8810 -0.1374
vn 0.9161 0.2890 -0.2779
vn 0.2790 -0.9565 -0.0846
vn 0.9524 0.0975 -0.2889
vn 0.0942 0.9951 -0.0286
vn 0.0942 -0.9951 -0.0286
vn 0.9569 -0.0059 -0.2903
vn 0.2790 0.9565 -0.0846
vn 0.9161 -0.2890 -0.2779
vn 0.4528 0.8810 -0.1374
vn 0.8448 -0.4696 -0.2563
vn 0.6088 0.7715 -0.1847
vn 0.7412 -0.6326 -0.2248
vn 0.7412 0.6326 -0.2248
vn 0.6088 -0.7715 -0.1847
vn 0.9527 -0.2890 -0.0938
vn 0.4709 0.8810 -0.0464
vn 0.8786 -0.4696 -0.0865
vn 0.6332 0.7715 -0.0624
vn 0.7708 -0.6326 -0.0759
vn 0.7708 0.6326 -0.0759
vn 0.6332 -0.7715 -0.0624
vn 0.8786 0.4696 -0.0865
vn 0.4709 -0.8810 -0.0464
vn 0.9527 0.2890 -0.0938
vn 0.2902 -0.9565 -0.0286
vn 0.9904 0.0975 -0.0975
vn 0.0980 0.9951 -0.0097
vn 0.0980 -0.9951 -0.0097
vn 0.9952 -0.0059 -0.0980
vn 0.2902 0.9565 -0.0286
vn 0.4709 -0.8810 0.0464
vn 0.9527 0.2890 0.0938
vn 0.2902 -0.9565 0.0286
vn 0.9904 0.0975 0.0976
vn 0.0980 0.9951 0.0097
vn 0.0980 -0.9951 0.0097
vn 0.9952 -0.0059 0.0980
vn 0.2902 0.9565 0.0286
vn 0.9527 -0.2890 0.0938
vn 0.4709 0.8810 0.0464
vn 0.8786 -0.4696 0.0865
vn 0.6332 0.7715 0.0624
vn 0.7708 -0.6326 0.0759
vn 0.7708 0.6326 0.0759
vn 0.6332 -0.7715 0.0624
vn 0.8786 0.4696 0.0865
vn 0.8448 -0.4696 0.2563
vn 0.6088 0.7715 0.1847
vn 0.7412 -0.6326 0.2248
vn 0.7412 0.6326 0.2248
vn 0.6088 -0.7715 0.1847
vn 0.8448 0.4696 0.2563
vn 0.4528 -0.8810 0.1374
vn 0.9161 0.2890 0.2779
vn 0.2790 -0.9565 0.0846
vn 0.9524 0.0975 0.2889
vn 0.0942 0.9951 0.0286
vn 0.0942 -0.9951 0.0286
vn 0.9569 -0.0059 0.2903
vn 0.2790 0.9565 0.0846
vn 0.9161 -0.2890 0.2779
vn 0.4528 0.8810 0.1374
vn 0.2571 -0.9565 0.1374
vn 0.8777 0.0975 0.4691
vn 0.0869 0.9951 0.0464
vn 0.0869 -0.9951 0.0464
vn 0.8819 -0.0059 0.4714
vn 0.2571 0.9566 0.1374
vn 0.8443 -0.2890 0.4513
vn 0.4173 0.8810 0.2231
vn 0.7786 -0.4696 0.4162
vn 0.5611 0.7715 0.2999
vn 0.6831 -0.6326 0.3651
vn 0.6831 0.6326 0.3651
vn 0.5611 -0.7715 0.2999
vn 0.7786 0.4696 0.4162
vn 0.4173 -0.8810 0.2230
vn 0.8443 0.2890 0.4513
vn 0.4918 0.7715 0.4036
vn 0.5987 -0.6326 0.4913
vn 0.5987 0.6326 0.4913
vn 0.4918 -0.7715 0.4036
vn 0.6825 0.4696 0.5601
vn 0.3658 -0.8810 0.3002
vn 0.7400 0.2890 0.6073
vn 0.2254 -0.9565 0.1850
vn 0.7693 0.0975 0.6314
vn 0.0761 0.9951 0.0625
vn 0.0761 -0.9951 0.0625
vn 0.7730 -0.0059 0.6344
vn 0.2254 0.9565 0.1850
vn 0.7400 -0.2890 0.6073
vn 0.3658 0.8810 0.3002
vn 0.6825 -0.4696 0.5601
vn 0.6314 0.0975 0.7693
vn 0.0625 0.9951 0.0761
vn 0.0625 -0.9951 0.0761
vn 0.6344 -0.0059 0.7730
vn 0.1850 0.9565 0.2254
vn 0.6073 -0.2890 0.7400
vn 0.3002 0.8810 0.3658
vn 0.5601 -0.4696 0.6825
vn 0.4036 0.7715 0.4918
vn 0.4913 -0.6326 0.5987
vn 0.4913 0.6326 0.5987
vn 0.4036 -0.7715 0.4918
vn 0.5601 0.4696 0.6825
vn 0.3002 -0.8810 0.3658
vn 0.6073 0.2890 0.7400
vn 0.1850 -0.9565 0.2254
vn 0.3651 -0.6326 0.6831
vn 0.3651 0.6326 0.6831
vn 0.2999 -0.7715 0.5611
vn 0.4162 0.4696 0.7786
vn 0.2230 -0.8810 0.4173
vn 0.4513 0.2890 0.8443
vn 0.1374 -0.9565 0.2571
vn 0.4691 0.0975 0.8777
vn 0.0464 0.9951 0.0869
vn 0.0464 -0.9951 0.0869
vn 0.4714 -0.0059 0.8819
vn 0.1374 0.9566 0.2571
vn 0.4513 -0.2890 0.8443
vn 0.2231 0.8810 0.4173
vn 0.4162 -0.4696 0.7786
vn 0.2999 0.7715 0.5611
vn 0.0286 0.9951 0.0942
vn 0.0286 -0.9951 0.0942
vn 0.2903 -0.0059 0.9569
vn 0.0846 0.9565 0.2790
vn 0.2779 -0.2890 0.9161
vn 0.1374 0.8810 0.4528
vn 0.2563 -0.4696 0.8448
vn 0.1847 0.7715 0.6088
vn 0.2248 -0.6326 0.7412
vn 0.2248 0.6326 0.7412
vn 0.1847 -0.7715 0.6088
vn 0.2563 0.4696 0.8448
vn 0.1374 -0.8810 0.4528
vn 0.2779 0.2890 0.9161
vn 0.0846 -0.9565 0.2790
vn 0.2889 0.0975 0.9524
vn 0.0759 0.6326 0.7708
vn 0.0624 -0.7715 0.6332
vn 0.0865 0.4696 0.8786
vn 0.0464 -0.8810 0.4709
vn 0.0938 0.2890 0.9527
vn 0.0286 -0.9565 0.2902
vn 0.0975 0.0975 0.9904
vn 0.0096 0.9951 0.0980
vn 0.0097 -0.9951 0.0980
vn 0.0980 -0.0059 0.9952
vn 0.0286 0.9565 0.2902
vn 0.0938 -0.2890 0.9527
vn 0.0464 0.8810 0.4709
vn 0.0865 -0.4696 0.8786
vn 0.0624 0.7715 0.6332
vn 0.0759 -0.6326 0.7708
vn -0.0980 -0.0059 0.9952
vn -0.0286 0.9565 0.2902
vn -0.0938 -0.2890 0.9527
vn -0.0464 0.8810 0.4709
vn -0.0865 -0.4696 0.8786
vn -0.0624 0.7715 0.6332
vn -0.0759 -0.6326 0.7708
vn -0.0759 0.6326 0.7708
vn -0.0624 -0.7715 0.6332
vn -0.0865 0.4696 0.8786
vn -0.0464 -0.8810 0.4709
vn -0.0938 0.2890 0.9527
vn -0.0286 -0.9565 0.2902
vn -0.0976 0.0975 0.9904
vn -0.0096 0.9951 0.0980
vn -0.0097 -0.9951 0.0980
vn -0.1847 -0.7715 0.6088
vn -0.2563 0.4696 0.8448
vn -0.1374 -0.8810 0.4528
vn -0.2779 0.2890 0.9161
vn -0.0846 -0.9565 0.2790
vn -0.2889 0.0975 0.9524
vn -0.0286 0.9951 0.0942
vn -0.0286 -0.9951 0.0942
vn -0.2903 -0.0059 0.9569
vn -0.0846 0.9565 0.2790
vn -0.2779 -0.2890 0.9161
vn -0.1374 0.8810 0.4528
vn -0.2563 -0.4696 0.8448
vn -0.1847 0.7715 0.6088
vn -0.2248 -0.6326 0.7412
vn -0.2248 0.6326 0.7412
vn -0.4513 -0.2890 0.8443
vn -0.2230 0.8810 0.4173
vn -0.4162 -0.4696 0.7786
vn -0.2999 0.7715 0.5611
vn -0.3651 -0.6326 0.6831
vn -0.3651 0.6326 0.6831
vn -0.2999 -0.7715 0.5611
vn -0.4162 0.4696 0.7786
vn -0.2230 -0.8810 0.4173
vn -0.4513 0.2890 0.8443
vn -0.1374 -0.9565 0.2571
vn -0.4691 0.0975 0.8777
vn -0.0464 0.9951 0.0869
vn -0.0464 -0.9951 0.0869
vn -0.4714 -0.0059 0.8819
vn -0.1374 0.9565 0.2571
vn -0.3002 -0.8810 0.3658
vn -0.6073 0.2890 0.7400
vn -0.1850 -0.9565 0.2254
vn -0.6314 0.0975 0.7693
vn -0.0625 0.9951 0.0761
vn -0.0625 -0.9951 0.0761
vn -0.6344 -0.0059 0.7730
vn -0.1850 0.9565 0.2254
vn -0.6073 -0.2890 0.7400
vn -0.3002 0.8810 0.3658
vn -0.5601 -0.4696 0.6825
vn -0.4036 0.7715 0.4918
vn -0.4913 -0.6326 0.5987
vn -0.4913 0.6326 0.5987
vn -0.4036 -0.7715 0.4918
vn -0.5601 0.4696 0.6825
vn -0.3658 0.8810 0.3002
vn -0.6825 -0.4696 0.5601
vn -0.4918 0.7715 0.4036
vn -0.5987 -0.6326 0.4913
vn -0.5987 0.6326 0.4913
vn -0.4918 -0.7715 0.4036
vn -0.6825 0.4696 0.5601
vn -0.3658 -0.8810 0.3002
vn -0.7400 0.2890 0.6073
vn -0.2254 -0.9565 0.1850
vn -0.7693 0.0975 0.6314
vn -0.0761 0.9951 0.0625
vn -0.0761 -0.9951 0.0625
vn -0.7730 -0.0059 0.6344
vn -0.2254 0.9565 0.1850
vn -0.7400 -0.2890 0.6073
vn -0.8443 0.2890 0.4513
vn -0.2571 -0.9565 0.1374
vn -0.8777 0.0975 0.4691
vn -0.0869 0.9951 0.0464
vn -0.0869 -0.9951 0.0464
vn -0.8819 -0.0059 0.4714
vn -0.2571 0.9565 0.1374
vn -0.8443 -0.2890 0.4513
vn -0.4173 0.8810 0.2231
vn -0.7786 -0.4696 0.4162
vn -0.5611 0.7715 0.2999
vn -0.6831 -0.6326 0.3651
vn -0.6831 0.6326 0.3651
vn -0.5611 -0.7715 0.2999
vn -0.7786 0.4696 0.4162
vn -0.4173 -0.8810 0.2230
vn -0.8448 -0.4696 0.2563
vn -0.6088 0.7715 0.1847
vn -0.7412 -0.6326 0.2248
vn -0.7412 0.6326 0.2248
vn -0.6088 -0.7715 0.1847
vn -0.8448 0.4696 0.2563
vn -0.4528 -0.8810 0.1374
vn -0.9161 0.2890 0.2779
vn -0.2790 -0.9565 0.0846
vn -0.9524 0.0975 0.2889
vn -0.0942 0.9951 0.0286
vn -0.0942 -0.9951 0.0286
vn -0.9569 -0.0059 0.2903
vn -0.2790 0.9565 0.0846
vn -0.9161 -0.2890 0.2779
vn -0.4528 0.8810 0.1374
vn -0.2902 -0.9565 0.0286
vn -0.9904 0.0975 0.0975
vn -0.0980 0.9951 0.0097
vn -0.0980 -0.9951 0.0097
vn -0.9952 -0.0059 0.0980
vn -0.2902 0.9565 0.0286
vn -0.9527 -0.2890 0.0938
vn -0.4709 0.8810 0.0464
vn -0.8786 -0.4696 0.0865
vn -0.6332 0.7715 0.0624
vn -0.7708 -0.6326 0.0759
vn -0.7708 0.6326 0.0759
vn -0.6332 -0.7715 0.0624
vn -0.8786 0.4696 0.0865
vn -0.4709 -0.8810 0.0464
vn -0.9527 0.2890 0.0938
vn -0.6332 0.7715 -0.0624
vn -0.7708 -0.6326 -0.0759
vn -0.7708 0.6326 -0.0759
vn -0.6332 -0.7715 -0.0624
vn -0.8786 0.4696 -0.0865
vn -0.4709 -0.8810 -0.0464
vn -0.9527 0.2890 -0.0938
vn -0.2902 -0.9565 -0.0286
vn -0.9904 0.0975 -0.0976
vn -0.0980 0.9951 -0.0097
vn -0.0980 -0.9951 -0.0097
vn -0.9952 -0.0059 -0.0980
vn -0.2902 0.9565 -0.0286
vn -0.9527 -0.2890 -0.0938
vn -0.4709 0.8810 -0.0464
vn -0.8786 -0.4696 -0.0865
vn -0.9524 0.0975 -0.2889
vn -0.0942 0.9951 -0.0286
vn -0.0942 -0.9951 -0.0286
vn -0.9569 -0.0059 -0.2903
vn -0.2790 0.9565 -0.0846
vn -0.9161 -0.2890 -0.2779
vn -0.4528 0.8810 -0.1374
vn -0.8448 -0.4696 -0.2563
vn -0.6088 0.7715 -0.1847
vn -0.7412 -0.6326 -0.2248
vn -0.7412 0.6326 -0.2248
vn -0.6088 -0.7715 -0.1847
vn -0.8448 0.4696 -0.2563
vn -0.4528 -0.8810 -0.1374
vn -0.9161 0.2890 -0.2779
vn -0.2790 -0.9565 -0.0846
vn -0.6831 -0.6326 -0.3651
vn -0.6831 0.6326 -0.3651
vn -0.5611 -0.7715 -0.2999
vn -0.7786 0.4696 -0.4162
vn -0.4173 -0.8810 -0.2231
vn -0.8443 0.2890 -0.4513
vn -0.2571 -0.9565 -0.1374
vn -0.8777 0.0975 -0.4691
vn -0.0869 0.9951 -0.0464
vn -0.0869 -0.9951 -0.0464
vn -0.8819 -0.0059 -0.4714
vn -0.2571 0.9565 -0.1374
vn -0.8443 -0.2890 -0.4513
vn -0.4173 0.8810 -0.2231
vn -0.7786 -0.4696 -0.4162
vn -0.5611 0.7715 -0.2999
vn -0.0761 -0.9951 -0.0625
vn -0.7730 -0.0059 -0.6344
vn -0.2254 0.9565 -0.1850
vn -0.7400 -0.2890 -0.6073
vn -0.3658 0.8810 -0.3002
vn -0.6825 -0.4696 -0.5601
vn -0.4918 0.7715 -0.4036
vn -0.5987 -0.6326 -0.4913
vn -0.5987 0.6326 -0.4913
vn -0.4918 -0.7715 -0.4036
vn -0.6825 0.4696 -0.5601
vn -0.3658 -0.8810 -0.3002
vn -0.7400 0.2890 -0.6073
vn -0.2254 -0.9565 -0.1850
vn -0.7693 0.0975 -0.6314
vn -0.0761 0.9951 -0.0625
vn -0.4036 -0.7715 -0.4918
vn -0.5601 0.4696 -0.6825
vn -0.3002 -0.8810 -0.3658
vn -0.6073 0.2890 -0.7400
vn -0.1850 -0.9565 -0.2254
vn -0.6314 0.0975 -0.7693
vn -0.0625 0.9951 -0.0761
vn -0.0625 -0.9951 -0.0761
vn -0.6344 -0.0059 -0.7730
vn -0.1850 0.9565 -0.2254
vn -0.6073 -0.2890 -0.7400
vn -0.3002 0.8810 -0.3658
vn -0.5601 -0.4696 -0.6825
vn -0.4036 0.7715 -0.4918
vn -0.4913 -0.6326 -0.5987
vn -0.4913 0.6326 -0.5987
vn -0.1374 0.9565 -0.2571
vn -0.4513 -0.2890 -0.8443
vn -0.2231 0.8810 -0.4173
vn -0.4162 -0.4696 -0.7786
vn -0.2999 0.7715 -0.5611
vn -0.3651 -0.6326 -0.6831
vn -0.3651 0.6326 -0.6831
vn -0.2999 -0.7715 -0.5611
vn -0.4162 0.4696 -0.7786
vn -0.2230 -0.8810 -0.4173
vn -0.4513 0.2890 -0.8443
vn -0.1374 -0.9565 -0.2571
vn -0.4691 0.0975 -0.8777
vn -0.0464 0.9951 -0.0869
vn -0.0464 -0.9951 -0.0869
vn -0.4714 -0.0059 -0.8819
vn -0.2563 0.4696 -0.8448
vn -0.1374 -0.8810 -0.4528
vn -0.2779 0.2890 -0.9161
vn -0.0846 -0.9565 -0.2790
vn -0.2889 0.0975 -0.9524
vn -0.0286 0.9951 -0.0942
vn -0.0286 -0.9951 -0.0942
vn -0.2903 -0.0059 -0.9569
vn -0.0846 0.9565 -0.2790
vn -0.2779 -0.2890 -0.9161
vn -0.1374 0.8810 -0.4528
vn -0.2563 -0.4696 -0.8448
vn -0.1847 0.7715 -0.6088
vn -0.2248 -0.6326 -0.7412
vn -0.2248 0.6326 -0.7412
vn -0.1847 -0.7715 -0.6088
vn -0.0938 -0.2890 -0.9527
vn -0.0464 0.8810 -0.4709
vn -0.0865 -0.4696 -0.8786
vn -0.0624 0.7715 -0.6332
vn -0.0759 -0.6326 -0.7708
vn -0.0759 0.6326 -0.7708
vn -0.0624 -0.7715 -0.6332
vn -0.0865 0.4696 -0.8786
vn -0.0464 -0.8810 -0.4709
vn -0.0938 0.2890 -0.9527
vn -0.0286 -0.9565 -0.2902
vn -0.0976 0.0975 -0.9904
vn -0.0096 0.9951 -0.0980
vn -0.0097 -0.9951 -0.0980
vn -0.0980 -0.0059 -0.9952
vn -0.0286 0.9565 -0.2902
vt 0.160006 0.785963
vt 0.140928 0.809281
vt 0.135760 0.805829
vt 0.149870 0.779192
vt 0.781572 0.668054
vt 0.775706 0.637714
vt 0.801683 0.638045
vt 0.806041 0.668366
vt 0.177423 0.764639
vt 0.162707 0.754810
vt 0.791098 0.695920
vt 0.813120 0.696200
vt 0.192509 0.746129
vt 0.173779 0.733620
vt 0.459179 0.776380
vt 0.474800 0.762677
vt 0.489514 0.784684
vt 0.471693 0.795095
vt 0.791098 0.024916
vt 0.803918 0.000000
vt 0.822646 0.000238
vt 0.813120 0.025197
vt 0.440145 0.792722
vt 0.449977 0.807427
vt 0.781572 0.053224
vt 0.806041 0.053536
vt 0.418430 0.811076
vt 0.425202 0.821205
vt 0.775706 0.083837
vt 0.801683 0.084168
vt 0.394867 0.830736
vt 0.398319 0.835899
vt 0.773726 0.115577
vt 0.800211 0.115914
vt 0.120920 0.833697
vt 0.370362 0.850946
vt 0.130019 0.803452
vt 0.400697 0.841637
vt 0.829640 0.116147
vt 0.830546 0.638272
vt 0.138609 0.774529
vt 0.833230 0.668580
vt 0.146359 0.748040
vt 0.837589 0.696393
vt 0.152971 0.725003
vt 0.822646 0.720479
vt 0.843455 0.720644
vt 0.843455 0.000403
vt 0.837589 0.025390
vt 0.480312 0.815891
vt 0.456749 0.823766
vt 0.833230 0.053750
vt 0.429867 0.832459
vt 0.830546 0.084395
vt 0.865546 0.000486
vt 0.863565 0.025488
vt 0.484706 0.837967
vt 0.460202 0.841111
vt 0.862093 0.053860
vt 0.432245 0.844407
vt 0.861187 0.084512
vt 0.401910 0.847728
vt 0.860881 0.116265
vt 0.123925 0.802240
vt 0.861187 0.638389
vt 0.126656 0.772152
vt 0.862093 0.668690
vt 0.129005 0.744589
vt 0.863565 0.696492
vt 0.130884 0.720610
vt 0.865546 0.720727
vt 0.892734 0.116265
vt 0.892428 0.638389
vt 0.117713 0.802240
vt 0.114470 0.772152
vt 0.891522 0.668690
vt 0.111314 0.744589
vt 0.890050 0.696492
vt 0.108368 0.720610
vt 0.888070 0.720727
vt 0.888070 0.000486
vt 0.890050 0.025488
vt 0.484706 0.860476
vt 0.460202 0.858797
vt 0.891522 0.053860
vt 0.432245 0.856589
vt 0.892428 0.084512
vt 0.401910 0.853938
vt 0.480312 0.882553
vt 0.456749 0.876142
vt 0.916027 0.025390
vt 0.920385 0.053750
vt 0.429867 0.868537
vt 0.923069 0.084395
vt 0.400698 0.860029
vt 0.923976 0.116147
vt 0.111621 0.803452
vt 0.923069 0.638272
vt 0.102520 0.774529
vt 0.920385 0.668580
vt 0.093965 0.748040
vt 0.916027 0.696393
vt 0.086287 0.725003
vt 0.910161 0.720644
vt 0.910161 0.000403
vt 0.105883 0.805829
vt 0.091265 0.779192
vt 0.951933 0.638045
vt 0.947574 0.668366
vt 0.077626 0.754810
vt 0.940496 0.696200
vt 0.065490 0.733620
vt 0.930970 0.720479
vt 0.930970 0.000238
vt 0.940496 0.025197
vt 0.471693 0.903348
vt 0.449977 0.892481
vt 0.947574 0.053536
vt 0.425202 0.879791
vt 0.951933 0.084168
vt 0.398319 0.865766
vt 0.953405 0.115914
vt 0.962517 0.024916
vt 0.972043 0.053224
vt 0.440145 0.907186
vt 0.418430 0.889920
vt 0.977909 0.083837
vt 0.394867 0.870930
vt 0.979890 0.115577
vt 0.100720 0.809281
vt 0.977909 0.637714
vt 0.081137 0.785963
vt 0.972043 0.668054
vt 0.062922 0.764639
vt 0.962517 0.695920
vt 0.046777 0.746129
vt 0.949698 0.720241
vt 0.949698 0.000000
vt 0.459179 0.922064
vt 1.000000 0.637293
vt 0.992852 0.667658
vt 0.072526 0.794579
vt 0.050421 0.777148
vt 0.981245 0.695563
vt 0.030866 0.762051
vt 0.474800 0.933983
vt 0.456072 0.952699
vt 0.443252 0.937980
vt 0.033321 0.731145
vt 0.014611 0.749866
vt 0.427632 0.919691
vt 0.981245 0.024559
vt 0.992852 0.052828
vt 0.409810 0.898534
vt 1.000000 0.083416
vt 0.390473 0.875321
vt 0.502404 0.115148
vt 0.504818 0.083416
vt 0.526909 0.083837
vt 0.524928 0.115577
vt 0.096330 0.813673
vt 0.504818 0.637293
vt 0.526909 0.637714
vt 0.412917 0.929516
vt 0.399675 0.905301
vt 0.532775 0.053224
vt 0.557244 0.053536
vt 0.552885 0.084168
vt 0.385306 0.878771
vt 0.551413 0.115914
vt 0.092882 0.818839
vt 0.552885 0.638045
vt 0.065763 0.804711
vt 0.532775 0.668054
vt 0.557244 0.668366
vt 0.040602 0.791858
vt 0.542301 0.695920
vt 0.564322 0.696200
vt 0.018369 0.780772
vt 0.555120 0.720241
vt 0.573848 0.720479
vt 0.542301 0.024916
vt 0.555120 0.000000
vt 0.573848 0.000238
vt 0.564322 0.025197
vt 0.424525 0.950486
vt 0.584432 0.668580
vt 0.588791 0.696393
vt 0.033843 0.808202
vt 0.009766 0.801575
vt 0.594657 0.720644
vt 0.594657 0.000403
vt 0.588791 0.025390
vt 0.403715 0.959099
vt 0.396568 0.936284
vt 0.584432 0.053750
vt 0.388413 0.909963
vt 0.581748 0.084395
vt 0.379565 0.881148
vt 0.580842 0.116147
vt 0.090509 0.824578
vt 0.581748 0.638272
vt 0.061107 0.815969
vt 0.376457 0.912340
vt 0.373470 0.882360
vt 0.612389 0.084512
vt 0.612083 0.116265
vt 0.089301 0.830671
vt 0.612389 0.638389
vt 0.058737 0.827921
vt 0.613296 0.668690
vt 0.030403 0.825553
vt 0.614767 0.696492
vt 0.005388 0.823658
vt 0.616748 0.720727
vt 0.616748 0.000486
vt 0.614767 0.025488
vt 0.381624 0.963491
vt 0.379211 0.939734
vt 0.613296 0.053860
vt 0.030415 0.843244
vt 0.005402 0.846175
vt 0.641253 0.696492
vt 0.639272 0.720727
vt 0.639272 0.000486
vt 0.641253 0.025488
vt 0.359101 0.963491
vt 0.361514 0.939734
vt 0.642724 0.053860
vt 0.364268 0.912340
vt 0.643631 0.084512
vt 0.367255 0.882360
vt 0.643937 0.116265
vt 0.089305 0.836883
vt 0.643631 0.638389
vt 0.058745 0.840107
vt 0.642724 0.668690
vt 0.674272 0.084395
vt 0.675178 0.116147
vt 0.090521 0.842976
vt 0.361160 0.881148
vt 0.674272 0.638272
vt 0.061130 0.852058
vt 0.671588 0.668580
vt 0.033877 0.860595
vt 0.667229 0.696393
vt 0.009810 0.868259
vt 0.661363 0.720644
vt 0.661363 0.000403
vt 0.667229 0.025390
vt 0.337010 0.959099
vt 0.344157 0.936284
vt 0.671588 0.053750
vt 0.352312 0.909963
vt 0.691698 0.696200
vt 0.682172 0.720479
vt 0.682172 0.000238
vt 0.691698 0.025197
vt 0.316200 0.950486
vt 0.327808 0.929516
vt 0.698776 0.053536
vt 0.341050 0.905301
vt 0.703135 0.084168
vt 0.355419 0.878771
vt 0.704607 0.115914
vt 0.092902 0.848715
vt 0.703135 0.638045
vt 0.065801 0.863317
vt 0.698776 0.668366
vt 0.040658 0.876940
vt 0.018440 0.889061
vt 0.096357 0.853881
vt 0.350252 0.875321
vt 0.731092 0.115577
vt 0.729111 0.637714
vt 0.072578 0.873449
vt 0.723245 0.668054
vt 0.050497 0.891649
vt 0.713719 0.695920
vt 0.030962 0.907783
vt 0.700900 0.720241
vt -0.000000 0.899215
vt 0.014724 0.921229
vt 0.297473 0.937980
vt 0.313093 0.919691
vt 0.713719 0.024916
vt 0.723245 0.053224
vt 0.330915 0.898534
vt 0.729111 0.083837
vt 0.046894 0.923704
vt 0.033458 0.939951
vt 0.281546 0.922064
vt 0.300580 0.907186
vt 0.732447 0.024559
vt 0.744055 0.052828
vt 0.322295 0.889920
vt 0.751202 0.083416
vt 0.345858 0.870930
vt -0.000000 0.114775
vt 0.002473 0.083048
vt 0.024563 0.083510
vt 0.022523 0.115247
vt 0.100752 0.858273
vt 0.001434 0.636924
vt 0.023524 0.637386
vt 0.081200 0.882065
vt 0.751202 0.637293
vt 0.744055 0.667658
vt 0.063014 0.904159
vt 0.020079 0.695229
vt 0.008524 0.667302
vt 0.029333 0.667737
vt 0.038806 0.695621
vt 0.284653 0.952699
vt 0.265925 0.933983
vt 0.049007 0.115634
vt 0.049499 0.637766
vt 0.105920 0.861725
vt 0.091337 0.888835
vt 0.053801 0.668095
vt 0.077730 0.913987
vt 0.060827 0.695943
vt 0.065623 0.936213
vt 0.051580 0.719966
vt 0.070308 0.720240
vt 0.055482 0.954660
vt 0.269032 0.903349
vt 0.290748 0.892481
vt 0.030486 0.052909
vt 0.040065 0.024618
vt 0.062086 0.024940
vt 0.054955 0.053266
vt 0.315523 0.879791
vt 0.050539 0.083890
vt 0.342406 0.865766
vt 0.260413 0.882553
vt 0.283976 0.876142
vt 0.086555 0.025179
vt 0.082143 0.053532
vt 0.310858 0.868537
vt 0.079401 0.084172
vt 0.340027 0.860029
vt 0.078436 0.115921
vt 0.111661 0.864102
vt 0.078362 0.638048
vt 0.102598 0.893499
vt 0.080989 0.668360
vt 0.094079 0.920757
vt 0.085296 0.696182
vt 0.086432 0.944830
vt 0.091116 0.720443
vt 0.071659 -0.000000
vt 0.092468 0.000203
vt 0.109003 0.638221
vt 0.109852 0.668524
vt 0.114551 0.895876
vt 0.111432 0.924209
vt 0.111272 0.696329
vt 0.108518 0.949223
vt 0.113207 0.720568
vt 0.114559 0.000328
vt 0.112531 0.025326
vt 0.256019 0.860476
vt 0.280523 0.858797
vt 0.111006 0.053695
vt 0.308480 0.856589
vt 0.110042 0.084345
vt 0.338815 0.853938
vt 0.109677 0.116098
vt 0.117755 0.865314
vt 0.280523 0.841111
vt 0.308480 0.844407
vt 0.140435 0.053751
vt 0.141284 0.084404
vt 0.338815 0.847728
vt 0.141530 0.116158
vt 0.123967 0.865314
vt 0.140244 0.638280
vt 0.126737 0.895876
vt 0.139281 0.668579
vt 0.129123 0.924209
vt 0.137757 0.696379
vt 0.131035 0.949223
vt 0.135731 0.720610
vt 0.137082 0.000371
vt 0.139016 0.025376
vt 0.256019 0.837967
vt 0.138687 0.893499
vt 0.146472 0.920757
vt 0.168144 0.668524
vt 0.163733 0.696329
vt 0.153115 0.944830
vt 0.157822 0.720568
vt 0.159174 0.000328
vt 0.164993 0.025326
vt 0.260413 0.815891
vt 0.283976 0.823766
vt 0.169298 0.053695
vt 0.310858 0.832459
vt 0.171925 0.084345
vt 0.340027 0.841637
vt 0.172772 0.116098
vt 0.130059 0.864102
vt 0.170885 0.638221
vt 0.196487 0.053532
vt 0.200788 0.084172
vt 0.315523 0.821205
vt 0.342406 0.835899
vt 0.202201 0.115921
vt 0.135797 0.861725
vt 0.199749 0.638048
vt 0.149942 0.888835
vt 0.195333 0.668360
vt 0.162812 0.913987
vt 0.188203 0.696182
vt 0.173912 0.936213
vt 0.178632 0.720443
vt 0.179983 0.000203
vt 0.189462 0.025179
vt 0.269032 0.795095
vt 0.290748 0.807427
vt 0.219803 0.668095
vt 0.210225 0.695943
vt 0.177515 0.904159
vt 0.192626 0.923704
vt 0.251211 0.784684
vt 0.265925 0.762677
vt 0.281546 0.776380
vt 0.198711 -0.000000
vt 0.211484 0.024940
vt 0.300580 0.792722
vt 0.220957 0.053266
vt 0.322295 0.811076
vt 0.226765 0.083890
vt 0.345858 0.830736
vt 0.228686 0.115634
vt 0.140960 0.858273
vt 0.225726 0.637766
vt 0.160070 0.882065
vt 0.330915 0.802462
vt 0.350252 0.826345
vt 0.251211 0.115143
vt 0.254001 0.083467
vt 0.276059 0.086400
vt 0.273701 0.118133
vt 0.145350 0.853881
vt 0.251211 0.115247
vt 0.247818 0.637386
vt 0.168681 0.873449
vt 0.240613 0.667737
vt 0.190016 0.891649
vt 0.228953 0.695621
vt 0.208537 0.907783
vt 0.284653 0.743961
vt 0.297472 0.760464
vt 0.204821 0.939951
vt 0.223530 0.921229
vt 0.313093 0.780217
vt 0.261517 0.052587
vt 0.273469 0.023690
vt 0.292169 0.026176
vt 0.282295 0.055349
vt 0.199835 0.876940
vt 0.221034 0.889061
vt 0.306675 0.729256
vt 0.316200 0.747958
vt 0.305301 0.000000
vt 0.324009 0.001735
vt 0.314168 0.028216
vt 0.327808 0.770392
vt 0.306739 0.057616
vt 0.341050 0.795694
vt 0.302009 0.088806
vt 0.355419 0.822894
vt 0.300158 0.120587
vt 0.148798 0.848715
vt 0.269514 0.636278
vt 0.295464 0.638685
vt 0.175444 0.863317
vt 0.275030 0.665741
vt 0.299474 0.668007
vt 0.284240 0.692336
vt 0.306239 0.694376
vt 0.330853 0.090595
vt 0.329568 0.122410
vt 0.151171 0.842976
vt 0.361160 0.820518
vt 0.324308 0.640473
vt 0.180100 0.852058
vt 0.326644 0.669692
vt 0.206594 0.860595
vt 0.330691 0.695892
vt 0.229637 0.868258
vt 0.331144 0.719128
vt 0.337010 0.739344
vt 0.344805 0.003024
vt 0.338620 0.029732
vt 0.344157 0.763624
vt 0.333909 0.059301
vt 0.352312 0.791033
vt 0.336294 0.718066
vt 0.356658 0.696825
vt 0.358377 0.718860
vt 0.366888 0.003818
vt 0.364587 0.030666
vt 0.359101 0.734953
vt 0.361514 0.760174
vt 0.362762 0.060338
vt 0.364268 0.788656
vt 0.361483 0.091696
vt 0.367255 0.819306
vt 0.360798 0.123533
vt 0.152379 0.836883
vt 0.354938 0.641574
vt 0.182469 0.840107
vt 0.355497 0.670729
vt 0.210034 0.843244
vt 0.234015 0.846175
vt 0.373470 0.819306
vt 0.392649 0.123912
vt 0.386177 0.641946
vt 0.152375 0.830671
vt 0.182461 0.827921
vt 0.384924 0.671080
vt 0.210023 0.825553
vt 0.383142 0.697141
vt 0.234000 0.823658
vt 0.380899 0.719128
vt 0.389410 0.004086
vt 0.391071 0.030981
vt 0.381624 0.734953
vt 0.379211 0.760174
vt 0.392189 0.060689
vt 0.376457 0.788656
vt 0.392722 0.092068
vt 0.403715 0.739344
vt 0.396568 0.763624
vt 0.417052 0.030666
vt 0.421058 0.060338
vt 0.388413 0.791033
vt 0.423369 0.091696
vt 0.379564 0.820518
vt 0.423897 0.123533
vt 0.151159 0.824578
vt 0.416824 0.641574
vt 0.180076 0.815969
vt 0.413793 0.670729
vt 0.206560 0.808202
vt 0.409123 0.696825
vt 0.229593 0.801575
vt 0.402995 0.718860
vt 0.411506 0.003818
vt 0.148778 0.818839
vt 0.175406 0.804711
vt 0.445703 0.640473
vt 0.440996 0.669692
vt 0.199779 0.791858
vt 0.433605 0.695892
vt 0.220963 0.780772
vt 0.409581 0.719128
vt 0.434050 0.729256
vt 0.424525 0.747958
vt 0.432326 0.003024
vt 0.441534 0.029732
vt 0.412917 0.770392
vt 0.448261 0.059301
vt 0.399675 0.795694
vt 0.452248 0.090595
vt 0.385306 0.822894
vt 0.453341 0.122410
vt 0.463576 0.028216
vt 0.472752 0.057616
vt 0.427632 0.780217
vt 0.409810 0.802462
vt 0.478247 0.088806
vt 0.390473 0.826345
vt 0.479850 0.120587
vt 0.145323 0.813673
vt 0.471702 0.638685
vt 0.168629 0.794579
vt 0.465487 0.668007
vt 0.189941 0.777148
vt 0.455646 0.694376
vt 0.208441 0.762051
vt 0.456072 0.743961
vt 0.443252 0.760464
vt 0.451070 0.001735
vt 0.760763 0.667658
vt 0.753616 0.637293
vt 0.772370 0.695563
vt 0.467019 0.000000
vt 0.482329 0.026176
vt 0.493590 0.055349
vt 0.500368 0.086400
vt 0.502404 0.118133
vt 0.751202 0.115148
s 0
f 475/1/1 474/2/1 9/3/1 10/4/1
f 478/5/2 6/6/2 17/7/2 18/8/2
f 2/9/3 475/1/3 10/4/3 11/10/3
f 7/11/4 478/5/4 18/8/4 19/12/4
f 476/13/5 2/9/5 11/10/5 12/14/5
f 479/15/6 7/16/6 19/17/6 20/18/6
f 3/19/7 476/20/7 12/21/7 13/22/7
f 480/23/8 479/15/8 20/18/8 21/24/8
f 477/25/9 3/19/9 13/22/9 14/26/9
f 481/27/10 480/23/10 21/24/10 22/28/10
f 4/29/11 477/25/11 14/26/11 15/30/11
f 482/31/12 481/27/12 22/28/12 23/32/12
f 5/33/13 4/29/13 15/30/13 16/34/13
f 474/2/14 1/35/14 9/3/14
f 8/36/15 482/31/15 23/32/15
f 6/6/16 5/33/16 16/34/16 17/7/16
f 9/3/17 1/35/17 24/37/17
f 8/36/18 23/32/18 38/38/18
f 17/7/19 16/34/19 31/39/19 32/40/19
f 10/4/20 9/3/20 24/37/20 25/41/20
f 18/8/21 17/7/21 32/40/21 33/42/21
f 11/10/22 10/4/22 25/41/22 26/43/22
f 19/12/23 18/8/23 33/42/23 34/44/23
f 12/14/24 11/10/24 26/43/24 27/45/24
f 20/46/25 19/12/25 34/44/25 35/47/25
f 13/22/26 12/21/26 27/48/26 28/49/26
f 21/24/27 20/18/27 35/50/27 36/51/27
f 14/26/28 13/22/28 28/49/28 29/52/28
f 22/28/29 21/24/29 36/51/29 37/53/29
f 15/30/30 14/26/30 29/52/30 30/54/30
f 23/32/31 22/28/31 37/53/31 38/38/31
f 16/34/32 15/30/32 30/54/32 31/39/32
f 28/49/33 27/48/33 42/55/33 43/56/33
f 36/51/34 35/50/34 50/57/34 51/58/34
f 29/52/35 28/49/35 43/56/35 44/59/35
f 37/53/36 36/51/36 51/58/36 52/60/36
f 30/54/37 29/52/37 44/59/37 45/61/37
f 38/38/38 37/53/38 52/60/38 53/62/38
f 31/39/39 30/54/39 45/61/39 46/63/39
f 24/37/40 1/35/40 39/64/40
f 8/36/41 38/38/41 53/62/41
f 32/40/42 31/39/42 46/63/42 47/65/42
f 25/41/43 24/37/43 39/64/43 40/66/43
f 33/42/44 32/40/44 47/65/44 48/67/44
f 26/43/45 25/41/45 40/66/45 41/68/45
f 34/44/46 33/42/46 48/67/46 49/69/46
f 27/45/47 26/43/47 41/68/47 42/70/47
f 35/47/48 34/44/48 49/69/48 50/71/48
f 47/65/49 46/63/49 61/72/49 62/73/49
f 40/66/50 39/64/50 54/74/50 55/75/50
f 48/67/51 47/65/51 62/73/51 63/76/51
f 41/68/52 40/66/52 55/75/52 56/77/52
f 49/69/53 48/67/53 63/76/53 64/78/53
f 42/70/54 41/68/54 56/77/54 57/79/54
f 50/71/55 49/69/55 64/78/55 65/80/55
f 43/56/56 42/55/56 57/81/56 58/82/56
f 51/58/57 50/57/57 65/83/57 66/84/57
f 44/59/58 43/56/58 58/82/58 59/85/58
f 52/60/59 51/58/59 66/84/59 67/86/59
f 45/61/60 44/59/60 59/85/60 60/87/60
f 53/62/61 52/60/61 67/86/61 68/88/61
f 46/63/62 45/61/62 60/87/62 61/72/62
f 39/64/63 1/35/63 54/74/63
f 8/36/64 53/62/64 68/88/64
f 66/84/65 65/83/65 80/89/65 81/90/65
f 59/85/66 58/82/66 73/91/66 74/92/66
f 67/86/67 66/84/67 81/90/67 82/93/67
f 60/87/68 59/85/68 74/92/68 75/94/68
f 68/88/69 67/86/69 82/93/69 83/95/69
f 61/72/70 60/87/70 75/94/70 76/96/70
f 54/74/71 1/35/71 69/97/71
f 8/36/72 68/88/72 83/95/72
f 62/73/73 61/72/73 76/96/73 77/98/73
f 55/75/74 54/74/74 69/97/74 70/99/74
f 63/76/75 62/73/75 77/98/75 78/100/75
f 56/77/76 55/75/76 70/99/76 71/101/76
f 64/78/77 63/76/77 78/100/77 79/102/77
f 57/79/78 56/77/78 71/101/78 72/103/78
f 65/80/79 64/78/79 79/102/79 80/104/79
f 58/82/80 57/81/80 72/105/80 73/91/80
f 70/99/81 69/97/81 84/106/81 85/107/81
f 78/100/82 77/98/82 92/108/82 93/109/82
f 71/101/83 70/99/83 85/107/83 86/110/83
f 79/102/84 78/100/84 93/109/84 94/111/84
f 72/103/85 71/101/85 86/110/85 87/112/85
f 80/104/86 79/102/86 94/111/86 95/113/86
f 73/91/87 72/105/87 87/114/87 88/115/87
f 81/90/88 80/89/88 95/116/88 96/117/88
f 74/92/89 73/91/89 88/115/89 89/118/89
f 82/93/90 81/90/90 96/117/90 97/119/90
f 75/94/91 74/92/91 89/118/91 90/120/91
f 83/95/92 82/93/92 97/119/92 98/121/92
f 76/96/93 75/94/93 90/120/93 91/122/93
f 69/97/94 1/35/94 84/106/94
f 8/36/95 83/95/95 98/121/95
f 77/98/96 76/96/96 91/122/96 92/108/96
f 89/118/97 88/115/97 103/123/97 104/124/97
f 97/119/98 96/117/98 111/125/98 112/126/98
f 90/120/99 89/118/99 104/124/99 105/127/99
f 98/121/100 97/119/100 112/126/100 113/128/100
f 91/122/101 90/120/101 105/127/101 106/129/101
f 84/106/102 1/35/102 99/130/102
f 8/36/103 98/121/103 113/128/103
f 92/108/104 91/122/104 106/129/104 107/131/104
f 85/107/105 84/106/105 99/130/105 100/132/105
f 93/109/106 92/108/106 107/131/106 108/133/106
f 86/110/107 85/107/107 100/132/107 101/134/107
f 94/111/108 93/109/108 108/133/108 109/135/108
f 87/112/109 86/110/109 101/134/109 102/136/109
f 95/113/110 94/111/110 109/135/110 110/137/110
f 88/115/111 87/114/111 102/138/111 103/123/111
f 96/117/112 95/116/112 110/139/112 111/125/112
f 108/133/113 107/131/113 122/140/113 123/141/113
f 101/134/114 100/132/114 115/142/114 116/143/114
f 109/135/115 108/133/115 123/141/115 124/144/115
f 102/136/116 101/134/116 116/143/116 117/145/116
f 110/139/117 109/146/117 124/147/117 125/148/117
f 103/149/118 102/136/118 117/145/118 118/150/118
f 111/125/119 110/139/119 125/148/119 126/151/119
f 104/124/120 103/123/120 118/152/120 119/153/120
f 112/126/121 111/125/121 126/151/121 127/154/121
f 105/127/122 104/124/122 119/153/122 120/155/122
f 113/128/123 112/126/123 127/154/123 128/156/123
f 106/157/124 105/158/124 120/159/124 121/160/124
f 99/130/125 1/35/125 114/161/125
f 8/36/126 113/128/126 128/156/126
f 107/162/127 106/157/127 121/160/127 122/163/127
f 100/132/128 99/130/128 114/161/128 115/142/128
f 127/154/129 126/151/129 141/164/129 142/165/129
f 120/159/130 119/166/130 134/167/130 135/168/130
f 128/156/131 127/154/131 142/165/131 143/169/131
f 121/160/132 120/159/132 135/168/132 136/170/132
f 114/161/133 1/35/133 129/171/133
f 8/36/134 128/156/134 143/169/134
f 122/163/135 121/160/135 136/170/135 137/172/135
f 115/142/136 114/161/136 129/171/136 130/173/136
f 123/174/137 122/163/137 137/172/137 138/175/137
f 116/143/138 115/142/138 130/173/138 131/176/138
f 124/177/139 123/174/139 138/175/139 139/178/139
f 117/145/140 116/143/140 131/176/140 132/179/140
f 125/180/141 124/177/141 139/178/141 140/181/141
f 118/182/142 117/183/142 132/184/142 133/185/142
f 126/151/143 125/148/143 140/186/143 141/164/143
f 119/166/144 118/182/144 133/185/144 134/167/144
f 139/178/145 138/175/145 153/187/145 154/188/145
f 132/179/146 131/176/146 146/189/146 147/190/146
f 140/181/147 139/178/147 154/188/147 155/191/147
f 133/185/148 132/184/148 147/192/148 148/193/148
f 141/164/149 140/186/149 155/194/149 156/195/149
f 134/167/150 133/185/150 148/193/150 149/196/150
f 142/165/151 141/164/151 156/195/151 157/197/151
f 135/168/152 134/167/152 149/196/152 150/198/152
f 143/169/153 142/165/153 157/197/153 158/199/153
f 136/170/154 135/168/154 150/198/154 151/200/154
f 129/171/155 1/35/155 144/201/155
f 8/36/156 143/169/156 158/199/156
f 137/172/157 136/170/157 151/200/157 152/202/157
f 130/173/158 129/171/158 144/201/158 145/203/158
f 138/175/159 137/172/159 152/202/159 153/187/159
f 131/176/160 130/173/160 145/203/160 146/189/160
f 158/199/161 157/197/161 172/204/161 173/205/161
f 151/200/162 150/198/162 165/206/162 166/207/162
f 144/201/163 1/35/163 159/208/163
f 8/36/164 158/199/164 173/205/164
f 152/202/165 151/200/165 166/207/165 167/209/165
f 145/203/166 144/201/166 159/208/166 160/210/166
f 153/187/167 152/202/167 167/209/167 168/211/167
f 146/189/168 145/203/168 160/210/168 161/212/168
f 154/188/169 153/187/169 168/211/169 169/213/169
f 147/190/170 146/189/170 161/212/170 162/214/170
f 155/191/171 154/188/171 169/213/171 170/215/171
f 148/193/172 147/192/172 162/216/172 163/217/172
f 156/195/173 155/194/173 170/218/173 171/219/173
f 149/196/174 148/193/174 163/217/174 164/220/174
f 157/197/175 156/195/175 171/219/175 172/204/175
f 150/198/176 149/196/176 164/220/176 165/206/176
f 162/214/177 161/212/177 176/221/177 177/222/177
f 170/215/178 169/213/178 184/223/178 185/224/178
f 163/217/179 162/216/179 177/225/179 178/226/179
f 171/219/180 170/218/180 185/227/180 186/228/180
f 164/220/181 163/217/181 178/226/181 179/229/181
f 172/204/182 171/219/182 186/228/182 187/230/182
f 165/206/183 164/220/183 179/229/183 180/231/183
f 173/205/184 172/204/184 187/230/184 188/232/184
f 166/207/185 165/206/185 180/231/185 181/233/185
f 159/208/186 1/35/186 174/234/186
f 8/36/187 173/205/187 188/232/187
f 167/209/188 166/207/188 181/233/188 182/235/188
f 160/210/189 159/208/189 174/234/189 175/236/189
f 168/211/190 167/209/190 182/235/190 183/237/190
f 161/212/191 160/210/191 175/236/191 176/221/191
f 169/213/192 168/211/192 183/237/192 184/223/192
f 181/233/193 180/231/193 195/238/193 196/239/193
f 174/234/194 1/35/194 189/240/194
f 8/36/195 188/232/195 203/241/195
f 182/235/196 181/233/196 196/239/196 197/242/196
f 175/236/197 174/234/197 189/240/197 190/243/197
f 183/237/198 182/235/198 197/242/198 198/244/198
f 176/221/199 175/236/199 190/243/199 191/245/199
f 184/223/200 183/237/200 198/244/200 199/246/200
f 177/222/201 176/221/201 191/245/201 192/247/201
f 185/224/202 184/223/202 199/246/202 200/248/202
f 178/226/203 177/225/203 192/249/203 193/250/203
f 186/228/204 185/227/204 200/251/204 201/252/204
f 179/229/205 178/226/205 193/250/205 194/253/205
f 187/230/206 186/228/206 201/252/206 202/254/206
f 180/231/207 179/229/207 194/253/207 195/238/207
f 188/232/208 187/230/208 202/254/208 203/241/208
f 200/248/209 199/246/209 214/255/209 215/256/209
f 193/250/210 192/249/210 207/257/210 208/258/210
f 201/252/211 200/251/211 215/259/211 216/260/211
f 194/253/212 193/250/212 208/258/212 209/261/212
f 202/254/213 201/252/213 216/260/213 217/262/213
f 195/238/214 194/253/214 209/261/214 210/263/214
f 203/241/215 202/254/215 217/262/215 218/264/215
f 196/239/216 195/238/216 210/263/216 211/265/216
f 189/240/217 1/35/217 204/266/217
f 8/36/218 203/241/218 218/264/218
f 197/242/219 196/239/219 211/265/219 212/267/219
f 190/243/220 189/240/220 204/266/220 205/268/220
f 198/244/221 197/242/221 212/267/221 213/269/221
f 191/245/222 190/243/222 205/268/222 206/270/222
f 199/246/223 198/244/223 213/269/223 214/255/223
f 192/247/224 191/245/224 206/270/224 207/271/224
f 204/266/225 1/35/225 219/272/225
f 8/36/226 218/264/226 233/273/226
f 212/267/227 211/265/227 226/274/227 227/275/227
f 205/268/228 204/266/228 219/272/228 220/276/228
f 213/269/229 212/267/229 227/275/229 228/277/229
f 206/270/230 205/268/230 220/276/230 221/278/230
f 214/255/231 213/269/231 228/277/231 229/279/231
f 207/271/232 206/270/232 221/278/232 222/280/232
f 215/256/233 214/255/233 229/279/233 230/281/233
f 208/282/234 207/271/234 222/280/234 223/283/234
f 216/260/235 215/259/235 230/284/235 231/285/235
f 209/261/236 208/258/236 223/286/236 224/287/236
f 217/262/237 216/260/237 231/285/237 232/288/237
f 210/263/238 209/261/238 224/287/238 225/289/238
f 218/264/239 217/262/239 232/288/239 233/273/239
f 211/265/240 210/263/240 225/289/240 226/274/240
f 223/283/241 222/280/241 237/290/241 238/291/241
f 231/285/242 230/284/242 245/292/242 246/293/242
f 224/287/243 223/286/243 238/294/243 239/295/243
f 232/288/244 231/285/244 246/293/244 247/296/244
f 225/289/245 224/287/245 239/295/245 240/297/245
f 233/273/246 232/288/246 247/296/246 248/298/246
f 226/299/247 225/300/247 240/301/247 241/302/247
f 219/272/248 1/35/248 234/303/248
f 8/36/249 233/273/249 248/298/249
f 227/304/250 226/299/250 241/302/250 242/305/250
f 220/276/251 219/272/251 234/303/251 235/306/251
f 228/277/252 227/275/252 242/307/252 243/308/252
f 221/278/253 220/276/253 235/306/253 236/309/253
f 229/310/254 228/311/254 243/312/254 244/313/254
f 222/280/255 221/278/255 236/309/255 237/290/255
f 230/284/256 229/314/256 244/315/256 245/292/256
f 242/305/257 241/302/257 256/316/257 257/317/257
f 235/306/258 234/303/258 249/318/258 250/319/258
f 243/312/259 242/305/259 257/317/259 258/320/259
f 236/309/260 235/306/260 250/319/260 251/321/260
f 244/313/261 243/312/261 258/320/261 259/322/261
f 237/290/262 236/309/262 251/321/262 252/323/262
f 245/324/263 244/313/263 259/322/263 260/325/263
f 238/291/264 237/290/264 252/323/264 253/326/264
f 246/293/265 245/292/265 260/327/265 261/328/265
f 239/329/266 238/330/266 253/331/266 254/332/266
f 247/296/267 246/293/267 261/328/267 262/333/267
f 240/301/268 239/329/268 254/332/268 255/334/268
f 248/298/269 247/296/269 262/333/269 263/335/269
f 241/302/270 240/301/270 255/334/270 256/316/270
f 234/303/271 1/35/271 249/318/271
f 8/36/272 248/298/272 263/335/272
f 261/328/273 260/327/273 275/336/273 276/337/273
f 254/332/274 253/331/274 268/338/274 269/339/274
f 262/333/275 261/328/275 276/337/275 277/340/275
f 255/334/276 254/332/276 269/339/276 270/341/276
f 263/335/277 262/333/277 277/340/277 278/342/277
f 256/316/278 255/334/278 270/341/278 271/343/278
f 249/318/279 1/35/279 264/344/279
f 8/36/280 263/335/280 278/342/280
f 257/317/281 256/316/281 271/343/281 272/345/281
f 250/319/282 249/318/282 264/344/282 265/346/282
f 258/320/283 257/317/283 272/345/283 273/347/283
f 251/321/284 250/319/284 265/346/284 266/348/284
f 259/322/285 258/320/285 273/347/285 274/349/285
f 252/323/286 251/321/286 266/348/286 267/350/286
f 260/325/287 259/322/287 274/349/287 275/351/287
f 253/331/288 252/352/288 267/353/288 268/338/288
f 273/347/289 272/345/289 287/354/289 288/355/289
f 266/348/290 265/346/290 280/356/290 281/357/290
f 274/349/291 273/347/291 288/355/291 289/358/291
f 267/350/292 266/348/292 281/357/292 282/359/292
f 275/351/293 274/349/293 289/358/293 290/360/293
f 268/338/294 267/353/294 282/361/294 283/362/294
f 276/337/295 275/336/295 290/363/295 291/364/295
f 269/339/296 268/338/296 283/362/296 284/365/296
f 277/340/297 276/337/297 291/364/297 292/366/297
f 270/341/298 269/339/298 284/365/298 285/367/298
f 278/342/299 277/340/299 292/366/299 293/368/299
f 271/343/300 270/341/300 285/367/300 286/369/300
f 264/344/301 1/35/301 279/370/301
f 8/36/302 278/342/302 293/368/302
f 272/345/303 271/343/303 286/369/303 287/354/303
f 265/346/304 264/344/304 279/370/304 280/356/304
f 292/366/305 291/364/305 306/371/305 307/372/305
f 285/367/306 284/365/306 299/373/306 300/374/306
f 293/368/307 292/366/307 307/372/307 308/375/307
f 286/369/308 285/367/308 300/374/308 301/376/308
f 279/370/309 1/35/309 294/377/309
f 8/36/310 293/368/310 308/375/310
f 287/354/311 286/369/311 301/376/311 302/378/311
f 280/356/312 279/370/312 294/377/312 295/379/312
f 288/355/313 287/354/313 302/378/313 303/380/313
f 281/357/314 280/356/314 295/379/314 296/381/314
f 289/358/315 288/355/315 303/380/315 304/382/315
f 282/359/316 281/357/316 296/381/316 297/383/316
f 290/360/317 289/358/317 304/382/317 305/384/317
f 283/362/318 282/361/318 297/385/318 298/386/318
f 291/364/319 290/363/319 305/387/319 306/371/319
f 284/365/320 283/362/320 298/386/320 299/373/320
f 296/381/321 295/379/321 310/388/321 311/389/321
f 304/382/322 303/380/322 318/390/322 319/391/322
f 297/383/323 296/381/323 311/389/323 312/392/323
f 305/384/324 304/382/324 319/391/324 320/393/324
f 298/386/325 297/385/325 312/394/325 313/395/325
f 306/371/326 305/387/326 320/396/326 321/397/326
f 299/373/327 298/386/327 313/395/327 314/398/327
f 307/372/328 306/371/328 321/397/328 322/399/328
f 300/374/329 299/373/329 314/398/329 315/400/329
f 308/375/330 307/372/330 322/399/330 323/401/330
f 301/376/331 300/374/331 315/400/331 316/402/331
f 294/377/332 1/35/332 309/403/332
f 8/36/333 308/375/333 323/401/333
f 302/378/334 301/376/334 316/402/334 317/404/334
f 295/379/335 294/377/335 309/403/335 310/388/335
f 303/380/336 302/378/336 317/404/336 318/390/336
f 315/400/337 314/398/337 329/405/337 330/406/337
f 323/401/338 322/399/338 337/407/338 338/408/338
f 316/402/339 315/400/339 330/406/339 331/409/339
f 309/403/340 1/35/340 324/410/340
f 8/36/341 323/401/341 338/408/341
f 317/404/342 316/402/342 331/409/342 332/411/342
f 310/388/343 309/403/343 324/410/343 325/412/343
f 318/390/344 317/404/344 332/411/344 333/413/344
f 311/389/345 310/388/345 325/412/345 326/414/345
f 319/391/346 318/390/346 333/413/346 334/415/346
f 312/392/347 311/389/347 326/414/347 327/416/347
f 320/393/348 319/391/348 334/415/348 335/417/348
f 313/395/349 312/394/349 327/418/349 328/419/349
f 321/397/350 320/396/350 335/420/350 336/421/350
f 314/398/351 313/395/351 328/419/351 329/405/351
f 322/399/352 321/397/352 336/421/352 337/407/352
f 334/415/353 333/413/353 348/422/353 349/423/353
f 327/416/354 326/414/354 341/424/354 342/425/354
f 335/420/355 334/426/355 349/427/355 350/428/355
f 328/419/356 327/418/356 342/429/356 343/430/356
f 336/421/357 335/420/357 350/428/357 351/431/357
f 329/405/358 328/419/358 343/430/358 344/432/358
f 337/407/359 336/421/359 351/431/359 352/433/359
f 330/406/360 329/405/360 344/432/360 345/434/360
f 338/408/361 337/407/361 352/433/361 353/435/361
f 331/409/362 330/406/362 345/434/362 346/436/362
f 324/410/363 1/35/363 339/437/363
f 8/36/364 338/408/364 353/435/364
f 332/411/365 331/409/365 346/436/365 347/438/365
f 325/412/366 324/410/366 339/437/366 340/439/366
f 333/413/367 332/411/367 347/438/367 348/422/367
f 326/414/368 325/412/368 340/439/368 341/424/368
f 353/435/369 352/433/369 367/440/369 368/441/369
f 346/442/370 345/443/370 360/444/370 361/445/370
f 339/437/371 1/35/371 354/446/371
f 8/36/372 353/435/372 368/441/372
f 347/438/373 346/436/373 361/447/373 362/448/373
f 340/439/374 339/437/374 354/446/374 355/449/374
f 348/422/375 347/438/375 362/448/375 363/450/375
f 341/424/376 340/439/376 355/449/376 356/451/376
f 349/423/377 348/422/377 363/450/377 364/452/377
f 342/425/378 341/424/378 356/451/378 357/453/378
f 350/428/379 349/427/379 364/454/379 365/455/379
f 343/456/380 342/425/380 357/453/380 358/457/380
f 351/431/381 350/428/381 365/455/381 366/458/381
f 344/459/382 343/460/382 358/461/382 359/462/382
f 352/433/383 351/431/383 366/458/383 367/440/383
f 345/443/384 344/459/384 359/462/384 360/444/384
f 357/453/385 356/451/385 371/463/385 372/464/385
f 365/455/386 364/454/386 379/465/386 380/466/386
f 358/461/387 357/467/387 372/468/387 373/469/387
f 366/458/388 365/455/388 380/466/388 381/470/388
f 359/462/389 358/461/389 373/469/389 374/471/389
f 367/440/390 366/458/390 381/470/390 382/472/390
f 360/444/391 359/462/391 374/471/391 375/473/391
f 368/441/392 367/440/392 382/472/392 383/474/392
f 361/445/393 360/444/393 375/473/393 376/475/393
f 354/446/394 1/35/394 369/476/394
f 8/36/395 368/441/395 383/474/395
f 362/477/396 361/445/396 376/475/396 377/478/396
f 355/449/397 354/446/397 369/476/397 370/479/397
f 363/480/398 362/477/398 377/478/398 378/481/398
f 356/451/399 355/449/399 370/479/399 371/463/399
f 364/482/400 363/480/400 378/481/400 379/483/400
f 376/475/401 375/473/401 390/484/401 391/485/401
f 369/476/402 1/35/402 384/486/402
f 8/36/403 383/474/403 398/487/403
f 377/478/404 376/475/404 391/485/404 392/488/404
f 370/479/405 369/476/405 384/486/405 385/489/405
f 378/481/406 377/478/406 392/488/406 393/490/406
f 371/463/407 370/479/407 385/489/407 386/491/407
f 379/483/408 378/481/408 393/490/408 394/492/408
f 372/464/409 371/463/409 386/491/409 387/493/409
f 380/466/410 379/465/410 394/494/410 395/495/410
f 373/469/411 372/468/411 387/496/411 388/497/411
f 381/470/412 380/466/412 395/495/412 396/498/412
f 374/471/413 373/469/413 388/497/413 389/499/413
f 382/472/414 381/470/414 396/498/414 397/500/414
f 375/473/415 374/471/415 389/499/415 390/484/415
f 383/474/416 382/472/416 397/500/416 398/487/416
f 395/501/417 394/492/417 409/502/417 410/503/417
f 388/497/418 387/496/418 402/504/418 403/505/418
f 396/498/419 395/495/419 410/506/419 411/507/419
f 389/499/420 388/497/420 403/505/420 404/508/420
f 397/500/421 396/498/421 411/507/421 412/509/421
f 390/484/422 389/499/422 404/508/422 405/510/422
f 398/487/423 397/500/423 412/509/423 413/511/423
f 391/485/424 390/484/424 405/510/424 406/512/424
f 384/486/425 1/35/425 399/513/425
f 8/36/426 398/487/426 413/511/426
f 392/488/427 391/485/427 406/512/427 407/514/427
f 385/489/428 384/486/428 399/513/428 400/515/428
f 393/490/429 392/488/429 407/514/429 408/516/429
f 386/491/430 385/489/430 400/515/430 401/517/430
f 394/492/431 393/490/431 408/516/431 409/502/431
f 387/493/432 386/491/432 401/517/432 402/518/432
f 8/36/433 413/511/433 428/519/433
f 407/514/434 406/512/434 421/520/434 422/521/434
f 400/515/435 399/513/435 414/522/435 415/523/435
f 408/516/436 407/514/436 422/521/436 423/524/436
f 401/517/437 400/515/437 415/523/437 416/525/437
f 409/502/438 408/516/438 423/524/438 424/526/438
f 402/518/439 401/517/439 416/525/439 417/527/439
f 410/503/440 409/502/440 424/526/440 425/528/440
f 403/505/441 402/504/441 417/529/441 418/530/441
f 411/507/442 410/506/442 425/531/442 426/532/442
f 404/508/443 403/505/443 418/530/443 419/533/443
f 412/509/444 411/507/444 426/532/444 427/534/444
f 405/510/445 404/508/445 419/533/445 420/535/445
f 413/511/446 412/509/446 427/534/446 428/519/446
f 406/512/447 405/510/447 420/535/447 421/520/447
f 399/513/448 1/35/448 414/522/448
f 426/532/449 425/531/449 440/536/449 441/537/449
f 419/533/450 418/530/450 433/538/450 434/539/450
f 427/534/451 426/532/451 441/537/451 442/540/451
f 420/535/452 419/533/452 434/539/452 435/541/452
f 428/519/453 427/534/453 442/540/453 443/542/453
f 421/520/454 420/535/454 435/541/454 436/543/454
f 414/522/455 1/35/455 429/544/455
f 8/36/456 428/519/456 443/542/456
f 422/521/457 421/520/457 436/543/457 437/545/457
f 415/523/458 414/522/458 429/544/458 430/546/458
f 423/524/459 422/521/459 437/545/459 438/547/459
f 416/525/460 415/523/460 430/546/460 431/548/460
f 424/526/461 423/524/461 438/547/461 439/549/461
f 417/527/462 416/525/462 431/548/462 432/550/462
f 425/528/463 424/526/463 439/549/463 440/551/463
f 418/530/464 417/529/464 432/552/464 433/538/464
f 430/546/465 429/544/465 444/553/465 445/554/465
f 438/547/466 437/545/466 452/555/466 453/556/466
f 431/548/467 430/546/467 445/554/467 446/557/467
f 439/549/468 438/547/468 453/556/468 454/558/468
f 432/550/469 431/548/469 446/557/469 447/559/469
f 440/536/470 439/560/470 454/561/470 455/562/470
f 433/538/471 432/552/471 447/563/471 448/564/471
f 441/537/472 440/536/472 455/562/472 456/565/472
f 434/539/473 433/538/473 448/564/473 449/566/473
f 442/540/474 441/537/474 456/565/474 457/567/474
f 435/541/475 434/539/475 449/566/475 450/568/475
f 443/542/476 442/540/476 457/567/476 458/569/476
f 436/543/477 435/541/477 450/568/477 451/570/477
f 429/544/478 1/35/478 444/553/478
f 8/36/479 443/542/479 458/569/479
f 437/545/480 436/543/480 451/570/480 452/555/480
f 449/566/481 448/564/481 463/571/481 464/572/481
f 457/567/482 456/565/482 471/573/482 472/574/482
f 450/568/483 449/566/483 464/572/483 465/575/483
f 458/569/484 457/567/484 472/574/484 473/576/484
f 451/570/485 450/568/485 465/575/485 466/577/485
f 444/553/486 1/35/486 459/578/486
f 8/36/487 458/569/487 473/576/487
f 452/555/488 451/570/488 466/577/488 467/579/488
f 445/554/489 444/553/489 459/578/489 460/580/489
f 453/556/490 452/555/490 467/579/490 468/581/490
f 446/557/491 445/554/491 460/580/491 461/582/491
f 454/558/492 453/556/492 468/581/492 469/583/492
f 447/559/493 446/557/493 461/582/493 462/584/493
f 455/562/494 454/561/494 469/585/494 470/586/494
f 448/564/495 447/563/495 462/587/495 463/571/495
f 456/565/496 455/562/496 470/586/496 471/573/496
f 468/588/497 467/589/497 6/6/497 478/5/497
f 461/582/498 460/580/498 475/1/498 2/9/498
f 469/590/499 468/588/499 478/5/499 7/11/499
f 462/584/500 461/582/500 2/9/500 476/13/500
f 470/586/501 469/585/501 7/16/501 479/15/501
f 463/571/502 462/587/502 476/591/502 3/592/502
f 471/573/503 470/586/503 479/15/503 480/23/503
f 464/572/504 463/571/504 3/592/504 477/593/504
f 472/574/505 471/573/505 480/23/505 481/27/505
f 465/575/506 464/572/506 477/593/506 4/594/506
f 473/576/507 472/574/507 481/27/507 482/31/507
f 466/577/508 465/575/508 4/594/508 5/595/508
f 459/578/509 1/35/509 474/2/509
f 8/36/510 473/576/510 482/31/510
f 467/589/511 466/596/511 5/33/511 6/6/511
f 460/580/512 459/578/512 474/2/512 475/1/512
