# Blender 5.0.1
# www.blender.org
mtllib Steps.mtl
o Cube
v -1.000000 -1.000000 1.000000
v -1.000000 -1.000000 -1.609220
v -1.000000 1.000000 -1.609220
v 1.000000 -1.000000 1.000000
v 1.000000 -1.000000 -1.609220
v 1.000000 1.000000 -1.609220
v -1.000000 -0.912285 0.997834
v -1.000000 1.000000 -1.286253
v -1.000000 -0.912285 0.712323
v -1.000000 -0.673249 0.712323
v -1.000000 -0.673249 0.426812
v -1.000000 -0.434214 0.426812
v -1.000000 -0.434214 0.141302
v -1.000000 -0.195178 0.141302
v -1.000000 -0.195178 -0.144209
v -1.000000 0.043858 -0.144209
v -1.000000 0.043858 -0.429720
v -1.000000 0.282893 -0.429720
v -1.000000 0.282893 -0.715231
v -1.000000 0.521929 -0.715231
v -1.000000 0.521929 -1.000742
v -1.000000 0.760964 -1.000742
v -1.000000 0.760964 -1.286253
v -1.000000 0.880482 -1.286253
v 1.000000 1.000000 -1.286253
v 1.000000 -0.912285 0.997834
v 1.000000 0.880482 -1.286253
v 1.000000 0.760964 -1.286253
v 1.000000 0.760964 -1.000742
v 1.000000 0.521929 -1.000742
v 1.000000 0.521929 -0.715231
v 1.000000 0.282893 -0.715231
v 1.000000 0.282893 -0.429720
v 1.000000 0.043858 -0.429720
v 1.000000 0.043858 -0.144209
v 1.000000 -0.195178 -0.144209
v 1.000000 -0.195178 0.141302
v 1.000000 -0.434214 0.141302
v 1.000000 -0.434214 0.426812
v 1.000000 -0.673249 0.426812
v 1.000000 -0.673249 0.712323
v 1.000000 -0.912285 0.712323
vn -0.0000 -0.0000 -1.0000
vn -0.0000 -1.0000 -0.0000
vn -0.0000 -0.0000 1.0000
vn -0.0000 1.0000 -0.0000
vn -0.0000 0.0247 0.9997
vn -1.0000 -0.0000 -0.0000
vn 1.0000 -0.0000 -0.0000
vt 0.666667 0.768203
vt 0.333333 0.768203
vt 0.333333 0.434870
vt 0.666667 0.434870
vt 0.333333 0.869740
vt 0.000000 0.869740
vt 0.000000 0.434870
vt 0.333333 0.434870
vt 0.903089 0.333333
vt 0.903089 0.000000
vt 0.923009 0.000000
vt 0.923009 0.333333
vt 0.942928 0.000000
vt 0.942928 0.333333
vt 0.666667 0.666667
vt 0.666667 0.333333
vt 0.714252 0.333333
vt 0.714252 0.666667
vt 0.746345 1.000000
vt 0.746345 0.666667
vt 0.786184 0.666667
vt 0.786184 1.000000
vt 0.863250 -0.000000
vt 0.863250 0.333333
vt 0.815665 0.333333
vt 0.815665 -0.000000
vt 0.944432 0.666667
vt 0.944432 0.333333
vt 0.984271 0.333333
vt 0.984271 0.666667
vt 0.720494 0.333333
vt 0.720494 -0.000000
vt 0.768080 -0.000000
vt 0.768080 0.333333
vt 0.863250 -0.000000
vt 0.903089 -0.000000
vt 0.903089 0.333333
vt 0.857007 0.666667
vt 0.857007 0.333333
vt 0.904593 0.333333
vt 0.904593 0.666667
vt 0.666667 1.000000
vt 0.666667 0.666667
vt 0.706506 0.666667
vt 0.706506 1.000000
vt 0.857007 0.666667
vt 0.809422 0.666667
vt 0.809422 0.333333
vt 0.944432 0.333333
vt 0.944432 0.666667
vt 0.815665 0.000000
vt 0.815665 0.333333
vt 0.768080 -0.000000
vt 0.942928 0.333333
vt 0.942928 0.000000
vt 0.982767 0.000000
vt 0.982767 0.333333
vt 0.809422 0.333333
vt 0.809422 0.666667
vt 0.761837 0.666667
vt 0.761837 0.333333
vt 0.706506 1.000000
vt 0.706506 0.666667
vt 0.746345 0.666667
vt 0.714252 0.666667
vt 0.714252 0.333333
vt 0.997388 0.333333
vt 0.982768 0.333333
vt 0.982768 -0.000000
vt 0.997388 -0.000000
vt 0.333333 0.434870
vt 0.318714 0.434509
vt 0.318714 0.386924
vt 0.278875 0.386924
vt 0.278875 0.339339
vt 0.239036 0.339339
vt 0.239036 0.291754
vt 0.199196 0.291754
vt 0.199196 0.244168
vt 0.159357 0.244168
vt 0.159357 0.196583
vt 0.119518 0.196583
vt 0.119518 0.148998
vt 0.079679 0.148998
vt 0.079679 0.101413
vt 0.039839 0.101413
vt 0.039839 0.053828
vt 0.019920 0.053828
vt -0.000000 0.053828
vt 0.000000 0.000000
vt 0.333333 0.000000
vt 0.666667 0.333333
vt 0.666667 0.000000
vt 0.720494 0.000000
vt 0.666667 0.434870
vt 0.333333 0.434870
vt 0.333333 0.381042
vt 0.353253 0.381042
vt 0.373173 0.381042
vt 0.373173 0.333457
vt 0.413012 0.333457
vt 0.413012 0.285872
vt 0.452851 0.285872
vt 0.452851 0.238287
vt 0.492690 0.238287
vt 0.492690 0.190702
vt 0.532530 0.190702
vt 0.532530 0.143116
vt 0.572369 0.143116
vt 0.572369 0.095531
vt 0.612208 0.095531
vt 0.612208 0.047946
vt 0.652048 0.047946
vt 0.652048 0.000361
vt 0.666667 0.000000
s 0
f 2/1/1 3/2/1 6/3/1 5/4/1
f 2/5/2 5/6/2 4/7/2 1/8/2
f 25/9/3 8/10/3 24/11/3 27/12/3
f 27/12/3 24/11/3 23/13/3 28/14/3
f 28/15/4 23/16/4 22/17/4 29/18/4
f 29/19/3 22/20/3 21/21/3 30/22/3
f 30/23/4 21/24/4 20/25/4 31/26/4
f 31/27/3 20/28/3 19/29/3 32/30/3
f 32/31/4 19/32/4 18/33/4 33/34/4
f 33/24/3 18/35/3 17/36/3 34/37/3
f 34/38/4 17/39/4 16/40/4 35/41/4
f 35/42/3 16/43/3 15/44/3 36/45/3
f 36/39/4 15/46/4 14/47/4 37/48/4
f 37/41/3 14/40/3 13/49/3 38/50/3
f 38/51/4 13/52/4 12/34/4 39/53/4
f 39/54/3 12/55/3 11/56/3 40/57/3
f 40/58/4 11/59/4 10/60/4 41/61/4
f 41/62/3 10/63/3 9/64/3 42/19/3
f 42/61/4 9/60/4 7/65/4 26/66/4
f 4/67/5 26/68/5 7/69/5 1/70/5
f 1/71/6 7/72/6 9/73/6 10/74/6 11/75/6 12/76/6 13/77/6 14/78/6 15/79/6 16/80/6 17/81/6 18/82/6 19/83/6 20/84/6 21/85/6 22/86/6 23/87/6 24/88/6 8/89/6 3/90/6 2/91/6
f 6/92/4 3/93/4 8/94/4 25/31/4
f 5/95/7 6/96/7 25/97/7 27/98/7 28/99/7 29/100/7 30/101/7 31/102/7 32/103/7 33/104/7 34/105/7 35/106/7 36/107/7 37/108/7 38/109/7 39/110/7 40/111/7 41/112/7 42/113/7 26/114/7 4/115/7
