# Blender 4.5.3 LTS
# www.blender.org
mtllib Cylinder.mtl
o Cylinder
v 0.000000 -1.000000 -1.000000
v 0.000000 1.000000 -1.000000
v 0.195090 -1.000000 -0.980785
v 0.195090 1.000000 -0.980785
v 0.382683 -1.000000 -0.923880
v 0.382683 1.000000 -0.923880
v 0.555570 -1.000000 -0.831470
v 0.555570 1.000000 -0.831470
v 0.707107 -1.000000 -0.707107
v 0.707107 1.000000 -0.707107
v 0.831470 -1.000000 -0.555570
v 0.831470 1.000000 -0.555570
v 0.923880 -1.000000 -0.382683
v 0.923880 1.000000 -0.382683
v 0.980785 -1.000000 -0.195090
v 0.980785 1.000000 -0.195090
v 1.000000 -1.000000 0.000000
v 1.000000 1.000000 0.000000
v 0.980785 -1.000000 0.195090
v 0.980785 1.000000 0.195090
v 0.923880 -1.000000 0.382683
v 0.923880 1.000000 0.382683
v 0.831470 -1.000000 0.555570
v 0.831470 1.000000 0.555570
v 0.707107 -1.000000 0.707107
v 0.707107 1.000000 0.707107
v 0.555570 -1.000000 0.831470
v 0.555570 1.000000 0.831470
v 0.382683 -1.000000 0.923880
v 0.382683 1.000000 0.923880
v 0.195090 -1.000000 0.980785
v 0.195090 1.000000 0.980785
v 0.000000 -1.000000 1.000000
v 0.000000 1.000000 1.000000
v -0.195090 -1.000000 0.980785
v -0.195090 1.000000 0.980785
v -0.382683 -1.000000 0.923880
v -0.382683 1.000000 0.923880
v -0.555570 -1.000000 0.831470
v -0.555570 1.000000 0.831470
v -0.707107 -1.000000 0.707107
v -0.707107 1.000000 0.707107
v -0.831470 -1.000000 0.555570
v -0.831470 1.000000 0.555570
v -0.923880 -1.000000 0.382683
v -0.923880 1.000000 0.382683
v -0.980785 -1.000000 0.195090
v -0.980785 1.000000 0.195090
v -1.000000 -1.000000 0.000000
v -1.000000 1.000000 0.000000
v -0.980785 -1.000000 -0.195090
v -0.980785 1.000000 -0.195090
v -0.923880 -1.000000 -0.382683
v -0.923880 1.000000 -0.382683
v -0.831470 -1.000000 -0.555570
v -0.831470 1.000000 -0.555570
v -0.707107 -1.000000 -0.707107
v -0.707107 1.000000 -0.707107
v -0.555570 -1.000000 -0.831470
v -0.555570 1.000000 -0.831470
v -0.382683 -1.000000 -0.923880
v -0.382683 1.000000 -0.923880
v -0.195090 -1.000000 -0.980785
v -0.195090 1.000000 -0.980785
vn 0.0980 -0.0000 -0.9952
vn 0.2903 -0.0000 -0.9569
vn 0.4714 -0.0000 -0.8819
vn 0.6344 -0.0000 -0.7730
vn 0.7730 -0.0000 -0.6344
vn 0.8819 -0.0000 -0.4714
vn 0.9569 -0.0000 -0.2903
vn 0.9952 -0.0000 -0.0980
vn 0.9952 -0.0000 0.0980
vn 0.9569 -0.0000 0.2903
vn 0.8819 -0.0000 0.4714
vn 0.7730 -0.0000 0.6344
vn 0.6344 -0.0000 0.7730
vn 0.4714 -0.0000 0.8819
vn 0.2903 -0.0000 0.9569
vn 0.0980 -0.0000 0.9952
vn -0.0980 -0.0000 0.9952
vn -0.2903 -0.0000 0.9569
vn -0.4714 -0.0000 0.8819
vn -0.6344 -0.0000 0.7730
vn -0.7730 -0.0000 0.6344
vn -0.8819 -0.0000 0.4714
vn -0.9569 -0.0000 0.2903
vn -0.9952 -0.0000 0.0980
vn -0.9952 -0.0000 -0.0980
vn -0.9569 -0.0000 -0.2903
vn -0.8819 -0.0000 -0.4714
vn -0.7730 -0.0000 -0.6344
vn -0.6344 -0.0000 -0.7730
vn -0.4714 -0.0000 -0.8819
vn -0.0000 1.0000 -0.0000
vn -0.2903 -0.0000 -0.9569
vn -0.0980 -0.0000 -0.9952
vn -0.0000 -1.0000 -0.0000
vt 0.515662 0.999403
vt 0.515662 0.501179
vt 0.563558 0.501179
vt 0.563558 0.999403
vt 0.608675 0.501179
vt 0.608675 0.999403
vt 0.649280 0.501179
vt 0.649280 0.999403
vt 0.298678 0.501179
vt 0.298678 0.002954
vt 0.333210 0.002954
vt 0.333210 0.501179
vt 0.373814 0.002954
vt 0.373814 0.501179
vt 0.418931 0.002954
vt 0.418931 0.501179
vt 0.466828 0.002954
vt 0.466828 0.501179
vt 0.515662 0.002954
vt 0.563558 0.002954
vt 0.608675 0.002954
vt 0.649280 0.002954
vt 0.683811 0.002954
vt 0.683811 0.501179
vt 0.649280 0.999403
vt 0.649280 0.501179
vt 0.683811 0.999403
vt 0.724416 0.501179
vt 0.724416 0.999403
vt 0.769533 0.501179
vt 0.769533 0.999403
vt 0.817429 0.501179
vt 0.817429 0.999403
vt 0.866264 0.501179
vt 0.866264 0.999403
vt 0.914160 0.501179
vt 0.914160 0.999403
vt 0.959277 0.501179
vt 0.959277 0.999403
vt 0.999882 0.501179
vt 0.999882 0.999403
vt 0.724416 0.002954
vt 0.769533 0.002954
vt 0.817429 0.002954
vt 0.866264 0.002954
vt 0.914160 0.002954
vt 0.959277 0.002954
vt 0.999882 0.002954
vt 0.298678 0.999403
vt 0.333210 0.999403
vt 0.373814 0.999403
vt 0.418931 0.999403
vt 0.343054 0.443433
vt 0.308523 0.408902
vt 0.281392 0.368298
vt 0.262703 0.323180
vt 0.253176 0.275284
vt 0.253176 0.226450
vt 0.262703 0.178553
vt 0.281391 0.133436
vt 0.308522 0.092832
vt 0.343054 0.058300
vt 0.383658 0.031169
vt 0.428775 0.012481
vt 0.476672 0.002954
vt 0.525506 0.002954
vt 0.573402 0.012481
vt 0.618520 0.031169
vt 0.659124 0.058300
vt 0.693655 0.092832
vt 0.720786 0.133436
vt 0.739475 0.178553
vt 0.749002 0.226450
vt 0.749002 0.275284
vt 0.739475 0.323180
vt 0.720786 0.368298
vt 0.693655 0.408902
vt 0.659124 0.443433
vt 0.618520 0.470564
vt 0.573402 0.489252
vt 0.525506 0.498780
vt 0.476672 0.498780
vt 0.428776 0.489252
vt 0.383658 0.470564
vt 0.466828 0.999403
vt 0.308523 0.904728
vt 0.281392 0.864123
vt 0.262703 0.819006
vt 0.253176 0.771110
vt 0.253176 0.722275
vt 0.262703 0.674379
vt 0.281391 0.629262
vt 0.308523 0.588657
vt 0.343054 0.554126
vt 0.383658 0.526995
vt 0.428775 0.508307
vt 0.476672 0.498780
vt 0.525506 0.498780
vt 0.573402 0.508307
vt 0.618520 0.526995
vt 0.659124 0.554126
vt 0.693655 0.588657
vt 0.720786 0.629262
vt 0.739475 0.674379
vt 0.749002 0.722275
vt 0.749002 0.771110
vt 0.739475 0.819006
vt 0.720786 0.864123
vt 0.693655 0.904728
vt 0.659124 0.939259
vt 0.618520 0.966390
vt 0.573402 0.985078
vt 0.525506 0.994605
vt 0.476672 0.994605
vt 0.428776 0.985078
vt 0.383658 0.966390
vt 0.343054 0.939259
s 0
f 1/1/1 2/2/1 4/3/1 3/4/1
f 3/4/2 4/3/2 6/5/2 5/6/2
f 5/6/3 6/5/3 8/7/3 7/8/3
f 7/9/4 8/10/4 10/11/4 9/12/4
f 9/12/5 10/11/5 12/13/5 11/14/5
f 11/14/6 12/13/6 14/15/6 13/16/6
f 13/16/7 14/15/7 16/17/7 15/18/7
f 15/18/8 16/17/8 18/19/8 17/2/8
f 17/2/9 18/19/9 20/20/9 19/3/9
f 19/3/10 20/20/10 22/21/10 21/5/10
f 21/5/11 22/21/11 24/22/11 23/7/11
f 23/7/12 24/22/12 26/23/12 25/24/12
f 25/25/13 26/26/13 28/24/13 27/27/13
f 27/27/14 28/24/14 30/28/14 29/29/14
f 29/29/15 30/28/15 32/30/15 31/31/15
f 31/31/16 32/30/16 34/32/16 33/33/16
f 33/33/17 34/32/17 36/34/17 35/35/17
f 35/35/18 36/34/18 38/36/18 37/37/18
f 37/37/19 38/36/19 40/38/19 39/39/19
f 39/39/20 40/38/20 42/40/20 41/41/20
f 41/24/21 42/23/21 44/42/21 43/28/21
f 43/28/22 44/42/22 46/43/22 45/30/22
f 45/30/23 46/43/23 48/44/23 47/32/23
f 47/32/24 48/44/24 50/45/24 49/34/24
f 49/34/25 50/45/25 52/46/25 51/36/25
f 51/36/26 52/46/26 54/47/26 53/38/26
f 53/38/27 54/47/27 56/48/27 55/40/27
f 55/49/28 56/9/28 58/12/28 57/50/28
f 57/50/29 58/12/29 60/14/29 59/51/29
f 59/51/30 60/14/30 62/16/30 61/52/30
f 4/53/31 2/54/31 64/55/31 62/56/31 60/57/31 58/58/31 56/59/31 54/60/31 52/61/31 50/62/31 48/63/31 46/64/31 44/65/31 42/66/31 40/67/31 38/68/31 36/69/31 34/70/31 32/71/31 30/72/31 28/73/31 26/74/31 24/75/31 22/76/31 20/77/31 18/78/31 16/79/31 14/80/31 12/81/31 10/82/31 8/83/31 6/84/31
f 61/52/32 62/16/32 64/18/32 63/85/32
f 63/85/33 64/18/33 2/2/33 1/1/33
f 1/86/34 3/87/34 5/88/34 7/89/34 9/90/34 11/91/34 13/92/34 15/93/34 17/94/34 19/95/34 21/96/34 23/97/34 25/98/34 27/99/34 29/100/34 31/101/34 33/102/34 35/103/34 37/104/34 39/105/34 41/106/34 43/107/34 45/108/34 47/109/34 49/110/34 51/111/34 53/112/34 55/113/34 57/114/34 59/115/34 61/116/34 63/117/34
