# Blender 4.5.3 LTS
# www.blender.org
mtllib skysphere.mtl
o Sphere
v 0.181636 0.951057 -0.250000
v 0.345491 0.809017 -0.475528
v 0.475528 0.587785 -0.654509
v 0.559017 0.309017 -0.769421
v 0.587785 0.000000 -0.809017
v 0.559017 -0.309017 -0.769421
v 0.475528 -0.587785 -0.654509
v 0.345491 -0.809017 -0.475528
v 0.181636 -0.951057 -0.250000
v 0.293893 0.951057 -0.095492
v 0.559017 0.809017 -0.181636
v 0.769421 0.587785 -0.250000
v 0.904509 0.309017 -0.293893
v 0.951057 0.000000 -0.309017
v 0.904509 -0.309017 -0.293893
v 0.769421 -0.587785 -0.250000
v 0.559017 -0.809017 -0.181636
v 0.293893 -0.951057 -0.095492
v 0.293893 0.951057 0.095491
v 0.559017 0.809017 0.181636
v 0.769421 0.587785 0.250000
v 0.904509 0.309017 0.293893
v 0.951057 0.000000 0.309017
v 0.904509 -0.309017 0.293893
v 0.769421 -0.587785 0.250000
v 0.559017 -0.809017 0.181636
v 0.293893 -0.951057 0.095491
v 0.181636 0.951057 0.250000
v 0.345492 0.809017 0.475528
v 0.475528 0.587785 0.654508
v 0.559017 0.309017 0.769421
v 0.587785 0.000000 0.809017
v 0.559017 -0.309017 0.769421
v 0.475528 -0.587785 0.654508
v 0.345492 -0.809017 0.475528
v 0.181636 -0.951057 0.250000
v 0.000000 0.951057 0.309017
v 0.000000 0.809017 0.587785
v 0.000000 0.587785 0.809017
v 0.000000 0.309017 0.951057
v 0.000000 0.000000 1.000000
v 0.000000 -0.309017 0.951057
v 0.000000 -0.587785 0.809017
v 0.000000 -0.809017 0.587785
v 0.000000 -0.951057 0.309017
v 0.000000 1.000000 0.000000
v -0.181636 0.951057 0.250000
v -0.345491 0.809017 0.475528
v -0.475528 0.587785 0.654509
v -0.559017 0.309017 0.769421
v -0.587785 0.000000 0.809017
v -0.559017 -0.309017 0.769421
v -0.475528 -0.587785 0.654509
v -0.345491 -0.809017 0.475528
v -0.181636 -0.951057 0.250000
v -0.293893 0.951057 0.095492
v -0.559017 0.809017 0.181636
v -0.769421 0.587785 0.250000
v -0.904508 0.309017 0.293893
v -0.951057 0.000000 0.309017
v -0.904508 -0.309017 0.293893
v -0.769421 -0.587785 0.250000
v -0.559017 -0.809017 0.181636
v -0.293893 -0.951057 0.095492
v 0.000000 -1.000000 0.000000
v -0.293893 0.951057 -0.095491
v -0.559017 0.809017 -0.181636
v -0.769421 0.587785 -0.250000
v -0.904509 0.309017 -0.293893
v -0.951057 0.000000 -0.309017
v -0.904509 -0.309017 -0.293893
v -0.769421 -0.587785 -0.250000
v -0.559017 -0.809017 -0.181636
v -0.293893 -0.951057 -0.095491
v -0.181636 0.951057 -0.250000
v -0.345492 0.809017 -0.475528
v -0.475528 0.587785 -0.654508
v -0.559017 0.309017 -0.769421
v -0.587785 0.000000 -0.809017
v -0.559017 -0.309017 -0.769421
v -0.475528 -0.587785 -0.654508
v -0.345492 -0.809017 -0.475528
v -0.181636 -0.951057 -0.250000
v -0.000000 0.951057 -0.309017
v -0.000000 0.809017 -0.587785
v -0.000000 0.587785 -0.809017
v -0.000000 0.309017 -0.951056
v -0.000000 0.000000 -1.000000
v -0.000000 -0.309017 -0.951056
v -0.000000 -0.587785 -0.809017
v -0.000000 -0.809017 -0.587785
v -0.000000 -0.951057 -0.309017
vn -0.0000 0.7944 0.6074
vn -0.3570 0.7944 0.4914
vn -0.4815 0.5735 0.6627
vn -0.0000 0.5735 0.8192
vn -0.3090 -0.0000 0.9511
vn -0.2960 -0.2869 0.9111
vn -0.0000 -0.7944 0.6074
vn -0.3570 -0.7944 0.4914
vn -0.1979 -0.9416 0.2724
vn -0.0000 -0.9416 0.3367
vn -0.0000 0.9416 0.3367
vn -0.1979 0.9416 0.2724
vn -0.2960 0.2869 0.9111
vn -0.0000 -0.5735 0.8192
vn -0.4815 -0.5735 0.6627
vn -0.0000 1.0000 -0.0000
vn -0.0000 -1.0000 -0.0000
vn -0.8090 -0.0000 0.5878
vn -0.7750 -0.2869 0.5631
vn -0.5777 -0.7944 0.1877
vn -0.3202 -0.9416 0.1041
vn -0.3202 0.9416 0.1041
vn -0.5777 0.7944 0.1877
vn -0.7750 0.2869 0.5631
vn -0.7791 -0.5735 0.2531
vn -0.7791 0.5735 0.2531
vn -0.3202 -0.9416 -0.1041
vn -0.5777 0.7944 -0.1877
vn -0.7791 0.5735 -0.2531
vn -1.0000 -0.0000 -0.0000
vn -0.9580 -0.2869 -0.0000
vn -0.5777 -0.7944 -0.1877
vn -0.3202 0.9416 -0.1041
vn -0.9580 0.2869 -0.0000
vn -0.7791 -0.5735 -0.2531
vn -0.4815 0.5735 -0.6627
vn -0.7750 0.2869 -0.5631
vn -0.7750 -0.2869 -0.5631
vn -0.4815 -0.5735 -0.6627
vn -0.1979 -0.9416 -0.2724
vn -0.3570 0.7944 -0.4914
vn -0.8090 -0.0000 -0.5878
vn -0.3570 -0.7944 -0.4914
vn -0.1979 0.9416 -0.2724
vn -0.0000 -0.5735 -0.8192
vn -0.0000 -0.7944 -0.6074
vn -0.0000 0.9416 -0.3367
vn -0.0000 0.5735 -0.8192
vn -0.2960 0.2869 -0.9111
vn -0.2960 -0.2869 -0.9111
vn -0.0000 -0.9416 -0.3367
vn -0.0000 0.7944 -0.6074
vn -0.3090 -0.0000 -0.9511
vn 0.2960 0.2869 -0.9111
vn 0.3090 -0.0000 -0.9511
vn 0.4815 -0.5735 -0.6627
vn 0.3570 -0.7944 -0.4914
vn 0.1979 0.9416 -0.2724
vn 0.4815 0.5735 -0.6627
vn 0.2960 -0.2869 -0.9111
vn 0.1979 -0.9416 -0.2724
vn 0.3570 0.7944 -0.4914
vn 0.5777 -0.7944 -0.1877
vn 0.3202 -0.9416 -0.1041
vn 0.3202 0.9416 -0.1041
vn 0.5777 0.7944 -0.1877
vn 0.7750 0.2869 -0.5631
vn 0.8090 -0.0000 -0.5878
vn 0.7791 -0.5735 -0.2531
vn 0.7791 0.5735 -0.2531
vn 0.7750 -0.2869 -0.5631
vn 0.5777 0.7944 0.1877
vn 0.7791 0.5735 0.2531
vn 1.0000 -0.0000 -0.0000
vn 0.9580 -0.2869 -0.0000
vn 0.5777 -0.7944 0.1877
vn 0.3202 -0.9416 0.1041
vn 0.3202 0.9416 0.1041
vn 0.9580 0.2869 -0.0000
vn 0.7791 -0.5735 0.2531
vn 0.7750 -0.2869 0.5631
vn 0.4815 -0.5735 0.6627
vn 0.1979 -0.9416 0.2724
vn 0.3570 0.7944 0.4914
vn 0.4815 0.5735 0.6627
vn 0.8090 -0.0000 0.5878
vn 0.3570 -0.7944 0.4914
vn 0.1979 0.9416 0.2724
vn 0.7750 0.2869 0.5631
vn 0.2960 0.2869 0.9111
vn 0.2960 -0.2869 0.9111
vn 0.3090 -0.0000 0.9511
vt 0.700000 0.200000
vt 0.600000 0.200000
vt 0.600000 0.300000
vt 0.700000 0.300000
vt 0.700000 0.500000
vt 0.600000 0.500000
vt 0.600000 0.600000
vt 0.700000 0.600000
vt 0.700000 0.800000
vt 0.600000 0.800000
vt 0.600000 0.900000
vt 0.700000 0.900000
vt 0.700000 0.100000
vt 0.600000 0.100000
vt 0.700000 0.400000
vt 0.600000 0.400000
vt 0.700000 0.700000
vt 0.600000 0.700000
vt 0.650000 0.000000
vt 0.650000 1.000000
vt 0.500000 0.500000
vt 0.500000 0.600000
vt 0.500000 0.800000
vt 0.500000 0.900000
vt 0.500000 0.100000
vt 0.500000 0.200000
vt 0.500000 0.400000
vt 0.500000 0.700000
vt 0.550000 0.000000
vt 0.500000 0.300000
vt 0.550000 1.000000
vt 0.400000 0.900000
vt 0.450000 1.000000
vt 0.400000 0.200000
vt 0.400000 0.300000
vt 0.400000 0.500000
vt 0.400000 0.600000
vt 0.400000 0.800000
vt 0.400000 0.100000
vt 0.400000 0.400000
vt 0.400000 0.700000
vt 0.450000 0.000000
vt 0.300000 0.300000
vt 0.300000 0.400000
vt 0.300000 0.600000
vt 0.300000 0.700000
vt 0.300000 0.900000
vt 0.350000 1.000000
vt 0.300000 0.200000
vt 0.300000 0.500000
vt 0.300000 0.800000
vt 0.300000 0.100000
vt 0.350000 0.000000
vt 0.200000 0.700000
vt 0.200000 0.800000
vt 0.250000 0.000000
vt 0.200000 0.100000
vt 0.200000 0.300000
vt 0.200000 0.400000
vt 0.200000 0.600000
vt 0.200000 0.900000
vt 0.250000 1.000000
vt 0.200000 0.200000
vt 0.200000 0.500000
vt 0.100000 0.400000
vt 0.100000 0.500000
vt 0.100000 0.700000
vt 0.100000 0.800000
vt 0.150000 0.000000
vt 0.100000 0.100000
vt 0.100000 0.300000
vt 0.100000 0.600000
vt 0.100000 0.900000
vt 0.150000 1.000000
vt 0.100000 0.200000
vt 0.000000 0.800000
vt 0.000000 0.900000
vt 0.000000 0.100000
vt 0.000000 0.200000
vt 0.000000 0.400000
vt 0.000000 0.500000
vt 0.000000 0.700000
vt 0.050000 0.000000
vt 0.000000 0.300000
vt 0.000000 0.600000
vt 0.050000 1.000000
vt 1.000000 0.200000
vt 0.900000 0.200000
vt 0.900000 0.300000
vt 1.000000 0.300000
vt 1.000000 0.500000
vt 0.900000 0.500000
vt 0.900000 0.600000
vt 1.000000 0.600000
vt 1.000000 0.800000
vt 0.900000 0.800000
vt 0.900000 0.900000
vt 1.000000 0.900000
vt 1.000000 0.100000
vt 0.900000 0.100000
vt 1.000000 0.400000
vt 0.900000 0.400000
vt 1.000000 0.700000
vt 0.900000 0.700000
vt 0.950000 0.000000
vt 0.950000 1.000000
vt 0.800000 0.600000
vt 0.800000 0.700000
vt 0.800000 0.900000
vt 0.850000 1.000000
vt 0.800000 0.200000
vt 0.800000 0.300000
vt 0.800000 0.500000
vt 0.800000 0.800000
vt 0.800000 0.100000
vt 0.800000 0.400000
vt 0.850000 0.000000
vt 0.750000 1.000000
vt 0.750000 0.000000
s 1
f 91/1/1 8/2/2 7/3/3 90/4/4
f 88/5/5 5/6/5 4/7/6 87/8/6
f 85/9/7 2/10/8 1/11/9 84/12/10
f 92/13/11 9/14/12 8/2/2 91/1/1
f 89/15/13 6/16/13 5/6/5 88/5/5
f 86/17/14 3/18/15 2/10/8 85/9/7
f 65/19/16 9/14/12 92/13/11
f 90/4/4 7/3/3 6/16/13 89/15/13
f 87/8/6 4/7/6 3/18/15 86/17/14
f 84/12/10 1/11/9 46/20/17
f 5/6/18 14/21/18 13/22/19 4/7/19
f 2/10/8 11/23/20 10/24/21 1/11/9
f 9/14/12 18/25/22 17/26/23 8/2/2
f 6/16/24 15/27/24 14/21/18 5/6/18
f 3/18/15 12/28/25 11/23/20 2/10/8
f 65/29/16 18/25/22 9/14/12
f 7/3/3 16/30/26 15/27/24 6/16/24
f 4/7/19 13/22/19 12/28/25 3/18/15
f 1/11/9 10/24/21 46/31/17
f 8/2/2 17/26/23 16/30/26 7/3/3
f 10/24/21 19/32/27 46/33/17
f 17/26/23 26/34/28 25/35/29 16/30/26
f 14/21/30 23/36/30 22/37/31 13/22/31
f 11/23/20 20/38/32 19/32/27 10/24/21
f 18/25/22 27/39/33 26/34/28 17/26/23
f 15/27/34 24/40/34 23/36/30 14/21/30
f 12/28/25 21/41/35 20/38/32 11/23/20
f 65/42/16 27/39/33 18/25/22
f 16/30/26 25/35/29 24/40/34 15/27/34
f 13/22/31 22/37/31 21/41/35 12/28/25
f 25/35/29 34/43/36 33/44/37 24/40/37
f 22/37/38 31/45/38 30/46/39 21/41/35
f 19/32/27 28/47/40 46/48/17
f 26/34/28 35/49/41 34/43/36 25/35/29
f 23/36/42 32/50/42 31/45/38 22/37/38
f 20/38/32 29/51/43 28/47/40 19/32/27
f 27/39/33 36/52/44 35/49/41 26/34/28
f 24/40/37 33/44/37 32/50/42 23/36/42
f 21/41/35 30/46/39 29/51/43 20/38/32
f 65/53/16 36/52/44 27/39/33
f 30/46/39 39/54/45 38/55/46 29/51/43
f 65/56/16 45/57/47 36/52/44
f 34/43/36 43/58/48 42/59/49 33/44/49
f 31/45/50 40/60/50 39/54/45 30/46/39
f 28/47/40 37/61/51 46/62/17
f 35/49/41 44/63/52 43/58/48 34/43/36
f 32/50/53 41/64/53 40/60/50 31/45/50
f 29/51/43 38/55/46 37/61/51 28/47/40
f 36/52/44 45/57/47 44/63/52 35/49/41
f 33/44/49 42/59/49 41/64/53 32/50/53
f 42/59/54 52/65/54 51/66/55 41/64/55
f 39/54/45 49/67/56 48/68/57 38/55/46
f 65/69/16 55/70/58 45/57/47
f 43/58/48 53/71/59 52/65/54 42/59/54
f 40/60/60 50/72/60 49/67/56 39/54/45
f 37/61/51 47/73/61 46/74/17
f 44/63/52 54/75/62 53/71/59 43/58/48
f 41/64/55 51/66/55 50/72/60 40/60/60
f 38/55/46 48/68/57 47/73/61 37/61/51
f 45/57/47 55/70/58 54/75/62 44/63/52
f 48/68/57 57/76/63 56/77/64 47/73/61
f 55/70/58 64/78/65 63/79/66 54/75/62
f 52/65/67 61/80/67 60/81/68 51/66/68
f 49/67/56 58/82/69 57/76/63 48/68/57
f 65/83/16 64/78/65 55/70/58
f 53/71/59 62/84/70 61/80/67 52/65/67
f 50/72/71 59/85/71 58/82/69 49/67/56
f 47/73/61 56/77/64 46/86/17
f 54/75/62 63/79/66 62/84/70 53/71/59
f 51/66/68 60/81/68 59/85/71 50/72/71
f 63/87/66 73/88/72 72/89/73 62/90/70
f 60/91/74 70/92/74 69/93/75 59/94/75
f 57/95/63 67/96/76 66/97/77 56/98/64
f 64/99/65 74/100/78 73/88/72 63/87/66
f 61/101/79 71/102/79 70/92/74 60/91/74
f 58/103/69 68/104/80 67/96/76 57/95/63
f 65/105/16 74/100/78 64/99/65
f 62/90/70 72/89/73 71/102/79 61/101/79
f 59/94/75 69/93/75 68/104/80 58/103/69
f 56/98/64 66/97/77 46/106/17
f 69/93/81 78/107/81 77/108/82 68/104/80
f 66/97/77 75/109/83 46/110/17
f 73/88/72 82/111/84 81/112/85 72/89/73
f 70/92/86 79/113/86 78/107/81 69/93/81
f 67/96/76 76/114/87 75/109/83 66/97/77
f 74/100/78 83/115/88 82/111/84 73/88/72
f 71/102/89 80/116/89 79/113/86 70/92/86
f 68/104/80 77/108/82 76/114/87 67/96/76
f 65/117/16 83/115/88 74/100/78
f 72/89/73 81/112/85 80/116/89 71/102/89
f 81/112/85 90/4/4 89/15/90 80/116/90
f 78/107/91 87/8/91 86/17/14 77/108/82
f 75/109/83 84/12/10 46/118/17
f 82/111/84 91/1/1 90/4/4 81/112/85
f 79/113/92 88/5/92 87/8/91 78/107/91
f 76/114/87 85/9/7 84/12/10 75/109/83
f 83/115/88 92/13/11 91/1/1 82/111/84
f 80/116/90 89/15/90 88/5/92 79/113/92
f 77/108/82 86/17/14 85/9/7 76/114/87
f 65/119/16 92/13/11 83/115/88
