# Blender 4.5.3 LTS
# www.blender.org
mtllib Sphere.mtl
o Sphere
v 0.000000 0.831470 -0.555570
v 0.000000 0.555570 -0.831470
v 0.000000 0.195090 -0.980785
v 0.000000 0.000000 -1.000000
v 0.000000 -0.195090 -0.980785
v 0.000000 -0.555570 -0.831470
v 0.038060 0.980785 -0.191342
v 0.074658 0.923880 -0.375330
v 0.108386 0.831470 -0.544895
v 0.137950 0.707107 -0.693520
v 0.162212 0.555570 -0.815493
v 0.180240 0.382683 -0.906127
v 0.191342 0.195090 -0.961940
v 0.195090 0.000000 -0.980785
v 0.191342 -0.195090 -0.961940
v 0.180240 -0.382683 -0.906127
v 0.162212 -0.555570 -0.815493
v 0.137950 -0.707107 -0.693520
v 0.108386 -0.831470 -0.544895
v 0.074658 -0.923880 -0.375330
v 0.038060 -0.980785 -0.191342
v 0.074658 0.980785 -0.180240
v 0.146447 0.923880 -0.353553
v 0.212608 0.831470 -0.513280
v 0.270598 0.707107 -0.653281
v 0.318190 0.555570 -0.768178
v 0.353553 0.382683 -0.853553
v 0.375330 0.195090 -0.906127
v 0.382683 0.000000 -0.923879
v 0.375330 -0.195090 -0.906127
v 0.353553 -0.382683 -0.853553
v 0.318190 -0.555570 -0.768178
v 0.270598 -0.707107 -0.653281
v 0.212608 -0.831470 -0.513280
v 0.146447 -0.923880 -0.353553
v 0.074658 -0.980785 -0.180240
v 0.108386 0.980785 -0.162212
v 0.212608 0.923880 -0.318190
v 0.308658 0.831470 -0.461940
v 0.392847 0.707107 -0.587938
v 0.461940 0.555570 -0.691342
v 0.513280 0.382683 -0.768178
v 0.544895 0.195090 -0.815493
v 0.555570 0.000000 -0.831469
v 0.544895 -0.195090 -0.815493
v 0.513280 -0.382683 -0.768178
v 0.461940 -0.555570 -0.691342
v 0.392847 -0.707107 -0.587938
v 0.308658 -0.831470 -0.461940
v 0.212608 -0.923880 -0.318190
v 0.108386 -0.980785 -0.162212
v 0.137950 0.980785 -0.137950
v 0.270598 0.923880 -0.270598
v 0.392847 0.831470 -0.392847
v 0.500000 0.707107 -0.500000
v 0.587938 0.555570 -0.587938
v 0.653281 0.382683 -0.653281
v 0.693520 0.195090 -0.693520
v 0.707107 0.000000 -0.707107
v 0.693520 -0.195090 -0.693520
v 0.653281 -0.382683 -0.653281
v 0.587938 -0.555570 -0.587938
v 0.500000 -0.707107 -0.500000
v 0.392847 -0.831470 -0.392847
v 0.270598 -0.923880 -0.270598
v 0.137950 -0.980785 -0.137950
v 0.162212 0.980785 -0.108386
v 0.318190 0.923880 -0.212608
v 0.461940 0.831470 -0.308658
v 0.587938 0.707107 -0.392847
v 0.691342 0.555570 -0.461940
v 0.768178 0.382683 -0.513280
v 0.815493 0.195090 -0.544895
v 0.831470 0.000000 -0.555570
v 0.815493 -0.195090 -0.544895
v 0.768178 -0.382683 -0.513280
v 0.691342 -0.555570 -0.461940
v 0.587938 -0.707107 -0.392847
v 0.461940 -0.831470 -0.308658
v 0.318190 -0.923880 -0.212608
v 0.162212 -0.980785 -0.108386
v 0.000000 1.000000 0.000000
v 0.180240 0.980785 -0.074658
v 0.353553 0.923880 -0.146447
v 0.513280 0.831470 -0.212607
v 0.653281 0.707107 -0.270598
v 0.768178 0.555570 -0.318190
v 0.853553 0.382683 -0.353553
v 0.906127 0.195090 -0.375330
v 0.923879 0.000000 -0.382683
v 0.906127 -0.195090 -0.375330
v 0.853553 -0.382683 -0.353553
v 0.768178 -0.555570 -0.318190
v 0.653281 -0.707107 -0.270598
v 0.513280 -0.831470 -0.212607
v 0.353553 -0.923880 -0.146447
v 0.180240 -0.980785 -0.074658
v 0.191342 0.980785 -0.038060
v 0.375330 0.923880 -0.074658
v 0.544895 0.831470 -0.108386
v 0.693520 0.707107 -0.137950
v 0.815493 0.555570 -0.162212
v 0.906127 0.382683 -0.180240
v 0.961940 0.195090 -0.191342
v 0.980785 0.000000 -0.195090
v 0.961940 -0.195090 -0.191342
v 0.906127 -0.382683 -0.180240
v 0.815493 -0.555570 -0.162212
v 0.693520 -0.707107 -0.137950
v 0.544895 -0.831470 -0.108386
v 0.375330 -0.923880 -0.074658
v 0.191342 -0.980785 -0.038060
v 0.195090 0.980785 0.000000
v 0.382683 0.923880 0.000000
v 0.555570 0.831470 0.000000
v 0.707107 0.707107 -0.000000
v 0.831469 0.555570 0.000000
v 0.923879 0.382683 -0.000000
v 0.980785 0.195090 0.000000
v 1.000000 0.000000 0.000000
v 0.980785 -0.195090 0.000000
v 0.923879 -0.382683 -0.000000
v 0.831469 -0.555570 0.000000
v 0.707107 -0.707107 -0.000000
v 0.555570 -0.831470 0.000000
v 0.382683 -0.923880 0.000000
v 0.195090 -0.980785 0.000000
v 0.191342 0.980785 0.038060
v 0.375330 0.923880 0.074658
v 0.544895 0.831470 0.108386
v 0.693520 0.707107 0.137950
v 0.815493 0.555570 0.162212
v 0.906127 0.382683 0.180240
v 0.961940 0.195090 0.191342
v 0.980785 0.000000 0.195090
v 0.961940 -0.195090 0.191342
v 0.906127 -0.382683 0.180240
v 0.815493 -0.555570 0.162212
v 0.693520 -0.707107 0.137950
v 0.544895 -0.831470 0.108386
v 0.375330 -0.923880 0.074658
v 0.191342 -0.980785 0.038060
v 0.180240 0.980785 0.074658
v 0.353553 0.923880 0.146447
v 0.513280 0.831470 0.212608
v 0.653281 0.707107 0.270598
v 0.768178 0.555570 0.318190
v 0.853553 0.382683 0.353553
v 0.906127 0.195090 0.375330
v 0.923879 0.000000 0.382683
v 0.906127 -0.195090 0.375330
v 0.853553 -0.382683 0.353553
v 0.768178 -0.555570 0.318190
v 0.653281 -0.707107 0.270598
v 0.513280 -0.831470 0.212608
v 0.353553 -0.923880 0.146447
v 0.180240 -0.980785 0.074658
v 0.162212 0.980785 0.108386
v 0.318190 0.923880 0.212608
v 0.461940 0.831470 0.308658
v 0.587938 0.707107 0.392847
v 0.691341 0.555570 0.461940
v 0.768178 0.382683 0.513280
v 0.815493 0.195090 0.544895
v 0.831469 0.000000 0.555570
v 0.815493 -0.195090 0.544895
v 0.768178 -0.382683 0.513280
v 0.691341 -0.555570 0.461940
v 0.587938 -0.707107 0.392847
v 0.461940 -0.831470 0.308658
v 0.318190 -0.923880 0.212608
v 0.162212 -0.980785 0.108386
v 0.137950 0.980785 0.137950
v 0.270598 0.923880 0.270598
v 0.392847 0.831470 0.392847
v 0.500000 0.707107 0.500000
v 0.587938 0.555570 0.587938
v 0.653281 0.382683 0.653281
v 0.693520 0.195090 0.693520
v 0.707106 0.000000 0.707107
v 0.693520 -0.195090 0.693520
v 0.653281 -0.382683 0.653281
v 0.587938 -0.555570 0.587938
v 0.500000 -0.707107 0.500000
v 0.392847 -0.831470 0.392847
v 0.270598 -0.923880 0.270598
v 0.137950 -0.980785 0.137950
v 0.108386 0.980785 0.162212
v 0.212607 0.923880 0.318190
v 0.308658 0.831470 0.461940
v 0.392847 0.707107 0.587938
v 0.461940 0.555570 0.691342
v 0.513280 0.382683 0.768178
v 0.544895 0.195090 0.815493
v 0.555570 0.000000 0.831469
v 0.544895 -0.195090 0.815493
v 0.513280 -0.382683 0.768178
v 0.461940 -0.555570 0.691342
v 0.392847 -0.707107 0.587938
v 0.308658 -0.831470 0.461940
v 0.212607 -0.923880 0.318190
v 0.108386 -0.980785 0.162212
v 0.074658 0.980785 0.180240
v 0.146447 0.923880 0.353553
v 0.212607 0.831470 0.513280
v 0.270598 0.707107 0.653281
v 0.318189 0.555570 0.768178
v 0.353553 0.382683 0.853553
v 0.375330 0.195090 0.906127
v 0.382683 0.000000 0.923879
v 0.375330 -0.195090 0.906127
v 0.353553 -0.382683 0.853553
v 0.318189 -0.555570 0.768178
v 0.270598 -0.707107 0.653281
v 0.212607 -0.831470 0.513280
v 0.146447 -0.923880 0.353553
v 0.074658 -0.980785 0.180240
v 0.038060 0.980785 0.191342
v 0.074658 0.923880 0.375330
v 0.108386 0.831470 0.544895
v 0.137950 0.707107 0.693520
v 0.162212 0.555570 0.815493
v 0.180240 0.382683 0.906127
v 0.191342 0.195090 0.961939
v 0.195090 0.000000 0.980785
v 0.191342 -0.195090 0.961939
v 0.180240 -0.382683 0.906127
v 0.162212 -0.555570 0.815493
v 0.137950 -0.707107 0.693520
v 0.108386 -0.831470 0.544895
v 0.074658 -0.923880 0.375330
v 0.038060 -0.980785 0.191342
v -0.000000 0.980785 0.195090
v -0.000000 0.923880 0.382683
v -0.000000 0.831470 0.555570
v -0.000000 0.707107 0.707107
v -0.000000 0.555570 0.831469
v 0.000000 0.382683 0.923879
v -0.000000 0.195090 0.980785
v -0.000000 0.000000 0.999999
v -0.000000 -0.195090 0.980785
v 0.000000 -0.382683 0.923879
v -0.000000 -0.555570 0.831469
v -0.000000 -0.707107 0.707107
v -0.000000 -0.831470 0.555570
v -0.000000 -0.923880 0.382683
v -0.000000 -0.980785 0.195090
v -0.038060 0.980785 0.191342
v -0.074658 0.923880 0.375330
v -0.108386 0.831470 0.544895
v -0.137950 0.707107 0.693520
v -0.162212 0.555570 0.815493
v -0.180240 0.382683 0.906127
v -0.191342 0.195090 0.961939
v -0.195091 0.000000 0.980785
v -0.191342 -0.195090 0.961939
v -0.180240 -0.382683 0.906127
v -0.162212 -0.555570 0.815493
v -0.137950 -0.707107 0.693520
v -0.108386 -0.831470 0.544895
v -0.074658 -0.923880 0.375330
v -0.038060 -0.980785 0.191342
v -0.074658 0.980785 0.180240
v -0.146447 0.923880 0.353553
v -0.212608 0.831470 0.513280
v -0.270598 0.707107 0.653281
v -0.318190 0.555570 0.768177
v -0.353553 0.382683 0.853553
v -0.375330 0.195090 0.906127
v -0.382683 0.000000 0.923879
v -0.375330 -0.195090 0.906127
v -0.353553 -0.382683 0.853553
v -0.318190 -0.555570 0.768177
v -0.270598 -0.707107 0.653281
v -0.212608 -0.831470 0.513280
v -0.146447 -0.923880 0.353553
v -0.074658 -0.980785 0.180240
v -0.108386 0.980785 0.162212
v -0.212608 0.923880 0.318190
v -0.308658 0.831470 0.461939
v -0.392847 0.707107 0.587938
v -0.461940 0.555570 0.691341
v -0.513280 0.382683 0.768178
v -0.544895 0.195090 0.815493
v -0.555570 0.000000 0.831469
v -0.544895 -0.195090 0.815493
v -0.513280 -0.382683 0.768178
v -0.461940 -0.555570 0.691341
v -0.392847 -0.707107 0.587938
v -0.308658 -0.831470 0.461939
v -0.212608 -0.923880 0.318190
v -0.108386 -0.980785 0.162212
v -0.137950 0.980785 0.137950
v -0.270598 0.923880 0.270598
v -0.392847 0.831470 0.392847
v -0.500000 0.707107 0.500000
v -0.587938 0.555570 0.587937
v -0.653281 0.382683 0.653281
v -0.693520 0.195090 0.693520
v -0.707106 0.000000 0.707106
v -0.693520 -0.195090 0.693520
v -0.653281 -0.382683 0.653281
v -0.587938 -0.555570 0.587937
v -0.500000 -0.707107 0.500000
v -0.392847 -0.831470 0.392847
v -0.270598 -0.923880 0.270598
v -0.137950 -0.980785 0.137950
v 0.000000 -1.000000 0.000000
v -0.162212 0.980785 0.108386
v -0.318190 0.923880 0.212607
v -0.461940 0.831470 0.308658
v -0.587938 0.707107 0.392847
v -0.691341 0.555570 0.461939
v -0.768177 0.382683 0.513280
v -0.815493 0.195090 0.544895
v -0.831469 0.000000 0.555569
v -0.815493 -0.195090 0.544895
v -0.768177 -0.382683 0.513280
v -0.691341 -0.555570 0.461939
v -0.587938 -0.707107 0.392847
v -0.461940 -0.831470 0.308658
v -0.318190 -0.923880 0.212607
v -0.162212 -0.980785 0.108386
v -0.180240 0.980785 0.074658
v -0.353553 0.923880 0.146447
v -0.513280 0.831470 0.212607
v -0.653281 0.707107 0.270598
v -0.768177 0.555570 0.318189
v -0.853553 0.382683 0.353553
v -0.906127 0.195090 0.375330
v -0.923879 0.000000 0.382683
v -0.906127 -0.195090 0.375330
v -0.853553 -0.382683 0.353553
v -0.768177 -0.555570 0.318189
v -0.653281 -0.707107 0.270598
v -0.513280 -0.831470 0.212607
v -0.353553 -0.923880 0.146447
v -0.180240 -0.980785 0.074658
v -0.191342 0.980785 0.038060
v -0.375330 0.923880 0.074658
v -0.544895 0.831470 0.108386
v -0.693520 0.707107 0.137950
v -0.815493 0.555570 0.162211
v -0.906127 0.382683 0.180240
v -0.961939 0.195090 0.191341
v -0.980784 0.000000 0.195090
v -0.961939 -0.195090 0.191341
v -0.906127 -0.382683 0.180240
v -0.815493 -0.555570 0.162211
v -0.693520 -0.707107 0.137950
v -0.544895 -0.831470 0.108386
v -0.375330 -0.923880 0.074658
v -0.191342 -0.980785 0.038060
v -0.195090 0.980785 -0.000000
v -0.382683 0.923880 -0.000000
v -0.555570 0.831470 -0.000000
v -0.707107 0.707107 -0.000000
v -0.831469 0.555570 -0.000000
v -0.923879 0.382683 -0.000000
v -0.980785 0.195090 -0.000000
v -0.999999 0.000000 -0.000000
v -0.980785 -0.195090 -0.000000
v -0.923879 -0.382683 -0.000000
v -0.831469 -0.555570 -0.000000
v -0.707107 -0.707107 -0.000000
v -0.555570 -0.831470 -0.000000
v -0.382683 -0.923880 -0.000000
v -0.195090 -0.980785 -0.000000
v -0.191342 0.980785 -0.038060
v -0.375330 0.923880 -0.074658
v -0.544895 0.831470 -0.108386
v -0.693520 0.707107 -0.137950
v -0.815493 0.555570 -0.162212
v -0.906127 0.382683 -0.180240
v -0.961939 0.195090 -0.191342
v -0.980784 0.000000 -0.195091
v -0.961939 -0.195090 -0.191342
v -0.906127 -0.382683 -0.180240
v -0.815493 -0.555570 -0.162212
v -0.693520 -0.707107 -0.137950
v -0.544895 -0.831470 -0.108386
v -0.375330 -0.923880 -0.074658
v -0.191342 -0.980785 -0.038060
v -0.180240 0.980785 -0.074658
v -0.353553 0.923880 -0.146447
v -0.513279 0.831470 -0.212607
v -0.653281 0.707107 -0.270598
v -0.768177 0.555570 -0.318190
v -0.853553 0.382683 -0.353553
v -0.906127 0.195090 -0.375330
v -0.923878 0.000000 -0.382683
v -0.906127 -0.195090 -0.375330
v -0.853553 -0.382683 -0.353553
v -0.768177 -0.555570 -0.318190
v -0.653281 -0.707107 -0.270598
v -0.513279 -0.831470 -0.212607
v -0.353553 -0.923880 -0.146447
v -0.180240 -0.980785 -0.074658
v -0.162212 0.980785 -0.108386
v -0.318189 0.923880 -0.212607
v -0.461939 0.831470 -0.308658
v -0.587938 0.707107 -0.392847
v -0.691341 0.555570 -0.461940
v -0.768177 0.382683 -0.513280
v -0.815493 0.195090 -0.544895
v -0.831468 0.000000 -0.555570
v -0.815493 -0.195090 -0.544895
v -0.768177 -0.382683 -0.513280
v -0.691341 -0.555570 -0.461940
v -0.587938 -0.707107 -0.392847
v -0.461939 -0.831470 -0.308658
v -0.318189 -0.923880 -0.212607
v -0.162212 -0.980785 -0.108386
v -0.137950 0.980785 -0.137950
v -0.270598 0.923880 -0.270598
v -0.392847 0.831470 -0.392847
v -0.500000 0.707107 -0.500000
v -0.587937 0.555570 -0.587938
v -0.653281 0.382683 -0.653281
v -0.693519 0.195090 -0.693520
v -0.707106 0.000000 -0.707106
v -0.693519 -0.195090 -0.693520
v -0.653281 -0.382683 -0.653281
v -0.587937 -0.555570 -0.587938
v -0.500000 -0.707107 -0.500000
v -0.392847 -0.831470 -0.392847
v -0.270598 -0.923880 -0.270598
v -0.137950 -0.980785 -0.137950
v -0.108386 0.980785 -0.162212
v -0.212607 0.923880 -0.318190
v -0.308658 0.831470 -0.461939
v -0.392847 0.707107 -0.587938
v -0.461939 0.555570 -0.691341
v -0.513280 0.382683 -0.768177
v -0.544895 0.195090 -0.815493
v -0.555569 0.000000 -0.831469
v -0.544895 -0.195090 -0.815493
v -0.513280 -0.382683 -0.768177
v -0.461939 -0.555570 -0.691341
v -0.392847 -0.707107 -0.587938
v -0.308658 -0.831470 -0.461939
v -0.212607 -0.923880 -0.318190
v -0.108386 -0.980785 -0.162212
v -0.074658 0.980785 -0.180240
v -0.146446 0.923880 -0.353553
v -0.212607 0.831470 -0.513279
v -0.270598 0.707107 -0.653281
v -0.318189 0.555570 -0.768177
v -0.353553 0.382683 -0.853553
v -0.375330 0.195090 -0.906127
v -0.382683 0.000000 -0.923879
v -0.375330 -0.195090 -0.906127
v -0.353553 -0.382683 -0.853553
v -0.318189 -0.555570 -0.768177
v -0.270598 -0.707107 -0.653281
v -0.212607 -0.831470 -0.513279
v -0.146446 -0.923880 -0.353553
v -0.074658 -0.980785 -0.180240
v -0.038060 0.980785 -0.191342
v -0.074658 0.923880 -0.375330
v -0.108386 0.831470 -0.544895
v -0.137950 0.707107 -0.693520
v -0.162211 0.555570 -0.815493
v -0.180240 0.382683 -0.906127
v -0.191341 0.195090 -0.961939
v -0.195090 0.000000 -0.980784
v -0.191341 -0.195090 -0.961939
v -0.180240 -0.382683 -0.906127
v -0.162211 -0.555570 -0.815493
v -0.137950 -0.707107 -0.693520
v -0.108386 -0.831470 -0.544895
v -0.074658 -0.923880 -0.375330
v -0.038060 -0.980785 -0.191342
v 0.000000 0.980785 -0.195090
v 0.000000 0.923880 -0.382683
v 0.000000 0.707107 -0.707107
v 0.000000 0.382683 -0.923879
v 0.000000 -0.382683 -0.923879
v 0.000000 -0.707107 -0.707107
v 0.000000 -0.831470 -0.555570
v 0.000000 -0.923880 -0.382683
v 0.000000 -0.980785 -0.195090
vn 0.0865 -0.4696 -0.8786
vn 0.0624 0.7715 -0.6332
vn 0.0759 -0.6326 -0.7708
vn 0.0759 0.6326 -0.7708
vn 0.0624 -0.7715 -0.6332
vn 0.0865 0.4696 -0.8786
vn 0.0464 -0.8810 -0.4709
vn 0.0938 0.2890 -0.9527
vn 0.0286 -0.9565 -0.2902
vn 0.0975 0.0975 -0.9904
vn 0.0097 0.9951 -0.0980
vn 0.0097 -0.9951 -0.0980
vn 0.0975 -0.0975 -0.9904
vn 0.0286 0.9565 -0.2902
vn 0.0938 -0.2890 -0.9527
vn 0.0464 0.8810 -0.4709
vn 0.2779 -0.2890 -0.9161
vn 0.1374 0.8810 -0.4528
vn 0.2563 -0.4696 -0.8448
vn 0.1847 0.7715 -0.6088
vn 0.2248 -0.6326 -0.7412
vn 0.2248 0.6326 -0.7412
vn 0.1847 -0.7715 -0.6088
vn 0.2563 0.4696 -0.8448
vn 0.1374 -0.8810 -0.4528
vn 0.2779 0.2890 -0.9161
vn 0.0846 -0.9565 -0.2790
vn 0.2889 0.0976 -0.9524
vn 0.0286 0.9951 -0.0942
vn 0.0286 -0.9951 -0.0942
vn 0.2889 -0.0976 -0.9524
vn 0.0846 0.9565 -0.2790
vn 0.2230 -0.8810 -0.4173
vn 0.4513 0.2890 -0.8443
vn 0.1374 -0.9565 -0.2571
vn 0.4691 0.0975 -0.8777
vn 0.0464 0.9951 -0.0869
vn 0.0464 -0.9951 -0.0869
vn 0.4691 -0.0975 -0.8777
vn 0.1374 0.9565 -0.2571
vn 0.4513 -0.2890 -0.8443
vn 0.2230 0.8810 -0.4173
vn 0.4162 -0.4696 -0.7786
vn 0.2999 0.7715 -0.5611
vn 0.3651 -0.6326 -0.6831
vn 0.3651 0.6326 -0.6831
vn 0.2999 -0.7715 -0.5611
vn 0.4162 0.4696 -0.7786
vn 0.3002 0.8810 -0.3658
vn 0.5601 -0.4696 -0.6825
vn 0.4036 0.7715 -0.4918
vn 0.4913 -0.6326 -0.5987
vn 0.4913 0.6326 -0.5987
vn 0.4036 -0.7715 -0.4918
vn 0.5601 0.4696 -0.6825
vn 0.3002 -0.8810 -0.3658
vn 0.6073 0.2890 -0.7400
vn 0.1850 -0.9565 -0.2254
vn 0.6314 0.0975 -0.7693
vn 0.0625 0.9951 -0.0761
vn 0.0625 -0.9951 -0.0761
vn 0.6314 -0.0975 -0.7693
vn 0.1850 0.9565 -0.2254
vn 0.6073 -0.2890 -0.7400
vn 0.7400 0.2890 -0.6073
vn 0.2254 -0.9565 -0.1850
vn 0.7693 0.0975 -0.6314
vn 0.0761 0.9951 -0.0625
vn 0.0761 -0.9951 -0.0625
vn 0.7693 -0.0975 -0.6314
vn 0.2254 0.9565 -0.1850
vn 0.7400 -0.2890 -0.6073
vn 0.3658 0.8810 -0.3002
vn 0.6825 -0.4696 -0.5601
vn 0.4918 0.7715 -0.4036
vn 0.5987 -0.6326 -0.4913
vn 0.5987 0.6326 -0.4913
vn 0.4918 -0.7715 -0.4036
vn 0.6825 0.4696 -0.5601
vn 0.3658 -0.8810 -0.3002
vn 0.7786 -0.4696 -0.4162
vn 0.5611 0.7715 -0.2999
vn 0.6831 -0.6326 -0.3651
vn 0.6831 0.6326 -0.3651
vn 0.5611 -0.7715 -0.2999
vn 0.7786 0.4696 -0.4162
vn 0.4173 -0.8810 -0.2230
vn 0.8443 0.2890 -0.4513
vn 0.2571 -0.9565 -0.1374
vn 0.8777 0.0975 -0.4691
vn 0.0869 0.9951 -0.0464
vn 0.0869 -0.9951 -0.0464
vn 0.8777 -0.0975 -0.4691
vn 0.2571 0.9565 -0.1374
vn 0.8443 -0.2890 -0.4513
vn 0.4173 0.8810 -0.2230
vn 0.2790 -0.9565 -0.0846
vn 0.9524 0.0975 -0.2889
vn 0.0942 0.9951 -0.0286
vn 0.0942 -0.9951 -0.0286
vn 0.9524 -0.0975 -0.2889
vn 0.2790 0.9565 -0.0846
vn 0.9161 -0.2890 -0.2779
vn 0.4528 0.8810 -0.1374
vn 0.8448 -0.4696 -0.2563
vn 0.6088 0.7715 -0.1847
vn 0.7412 -0.6326 -0.2248
vn 0.7412 0.6326 -0.2248
vn 0.6088 -0.7715 -0.1847
vn 0.8448 0.4696 -0.2563
vn 0.4528 -0.8810 -0.1374
vn 0.9161 0.2890 -0.2779
vn 0.7708 -0.6326 -0.0759
vn 0.7708 0.6326 -0.0759
vn 0.6332 -0.7715 -0.0624
vn 0.8786 0.4696 -0.0865
vn 0.4709 -0.8810 -0.0464
vn 0.9527 0.2890 -0.0938
vn 0.2902 -0.9565 -0.0286
vn 0.9904 0.0975 -0.0975
vn 0.0980 0.9951 -0.0097
vn 0.0980 -0.9951 -0.0097
vn 0.9904 -0.0975 -0.0975
vn 0.2902 0.9565 -0.0286
vn 0.9527 -0.2890 -0.0938
vn 0.4709 0.8810 -0.0464
vn 0.8786 -0.4696 -0.0865
vn 0.6332 0.7715 -0.0624
vn 0.0980 0.9951 0.0097
vn 0.0980 -0.9951 0.0097
vn 0.9904 -0.0975 0.0976
vn 0.2902 0.9565 0.0286
vn 0.9527 -0.2890 0.0938
vn 0.4709 0.8810 0.0464
vn 0.8786 -0.4696 0.0865
vn 0.6332 0.7715 0.0624
vn 0.7708 -0.6326 0.0759
vn 0.7708 0.6326 0.0759
vn 0.6332 -0.7715 0.0624
vn 0.8786 0.4696 0.0865
vn 0.4709 -0.8810 0.0464
vn 0.9527 0.2890 0.0938
vn 0.2902 -0.9565 0.0286
vn 0.9904 0.0975 0.0976
vn 0.7412 0.6326 0.2248
vn 0.6088 -0.7715 0.1847
vn 0.8448 0.4696 0.2563
vn 0.4528 -0.8810 0.1374
vn 0.9161 0.2890 0.2779
vn 0.2790 -0.9565 0.0846
vn 0.9524 0.0975 0.2889
vn 0.0942 0.9951 0.0286
vn 0.0942 -0.9951 0.0286
vn 0.9524 -0.0975 0.2889
vn 0.2790 0.9565 0.0846
vn 0.9161 -0.2890 0.2779
vn 0.4528 0.8810 0.1374
vn 0.8448 -0.4696 0.2563
vn 0.6088 0.7715 0.1847
vn 0.7412 -0.6326 0.2248
vn 0.8777 -0.0975 0.4691
vn 0.2571 0.9565 0.1374
vn 0.8443 -0.2890 0.4513
vn 0.4173 0.8810 0.2230
vn 0.7786 -0.4696 0.4162
vn 0.5611 0.7715 0.2999
vn 0.6831 -0.6326 0.3651
vn 0.6831 0.6326 0.3651
vn 0.5611 -0.7715 0.2999
vn 0.7786 0.4696 0.4162
vn 0.4173 -0.8810 0.2230
vn 0.8443 0.2890 0.4513
vn 0.2571 -0.9565 0.1374
vn 0.8777 0.0975 0.4691
vn 0.0869 0.9951 0.0464
vn 0.0869 -0.9951 0.0464
vn 0.4918 -0.7715 0.4036
vn 0.6825 0.4696 0.5601
vn 0.3658 -0.8810 0.3002
vn 0.7400 0.2890 0.6073
vn 0.2254 -0.9565 0.1850
vn 0.7693 0.0975 0.6314
vn 0.0761 0.9951 0.0625
vn 0.0761 -0.9951 0.0625
vn 0.7693 -0.0975 0.6314
vn 0.2254 0.9565 0.1850
vn 0.7400 -0.2890 0.6073
vn 0.3658 0.8810 0.3002
vn 0.6825 -0.4696 0.5601
vn 0.4918 0.7715 0.4036
vn 0.5987 -0.6326 0.4913
vn 0.5987 0.6326 0.4913
vn 0.1850 0.9565 0.2254
vn 0.6073 -0.2890 0.7400
vn 0.3002 0.8810 0.3658
vn 0.5601 -0.4696 0.6825
vn 0.4036 0.7715 0.4918
vn 0.4913 -0.6326 0.5987
vn 0.4913 0.6326 0.5987
vn 0.4036 -0.7715 0.4918
vn 0.5601 0.4696 0.6825
vn 0.3002 -0.8810 0.3658
vn 0.6073 0.2890 0.7400
vn 0.1850 -0.9565 0.2254
vn 0.6314 0.0975 0.7693
vn 0.0625 0.9951 0.0761
vn 0.0625 -0.9951 0.0761
vn 0.6314 -0.0975 0.7693
vn 0.4162 0.4696 0.7786
vn 0.2230 -0.8810 0.4173
vn 0.4513 0.2890 0.8443
vn 0.1374 -0.9565 0.2571
vn 0.4691 0.0975 0.8777
vn 0.0464 0.9951 0.0869
vn 0.0464 -0.9951 0.0869
vn 0.4691 -0.0975 0.8777
vn 0.1374 0.9565 0.2571
vn 0.4513 -0.2890 0.8443
vn 0.2230 0.8810 0.4173
vn 0.4162 -0.4696 0.7786
vn 0.2999 0.7715 0.5611
vn 0.3651 -0.6326 0.6831
vn 0.3651 0.6326 0.6831
vn 0.2999 -0.7715 0.5611
vn 0.2779 -0.2890 0.9161
vn 0.1374 0.8810 0.4528
vn 0.2563 -0.4696 0.8448
vn 0.1847 0.7715 0.6088
vn 0.2248 -0.6326 0.7412
vn 0.2248 0.6326 0.7412
vn 0.1847 -0.7715 0.6088
vn 0.2563 0.4696 0.8448
vn 0.1374 -0.8810 0.4528
vn 0.2779 0.2890 0.9161
vn 0.0846 -0.9565 0.2790
vn 0.2889 0.0975 0.9524
vn 0.0286 0.9951 0.0942
vn 0.0286 -0.9951 0.0942
vn 0.2889 -0.0975 0.9524
vn 0.0846 0.9565 0.2790
vn 0.0464 -0.8810 0.4709
vn 0.0938 0.2890 0.9527
vn 0.0286 -0.9565 0.2902
vn 0.0975 0.0975 0.9904
vn 0.0097 0.9951 0.0980
vn 0.0097 -0.9951 0.0980
vn 0.0975 -0.0975 0.9904
vn 0.0286 0.9565 0.2902
vn 0.0938 -0.2890 0.9527
vn 0.0464 0.8810 0.4709
vn 0.0865 -0.4696 0.8786
vn 0.0624 0.7715 0.6332
vn 0.0759 -0.6326 0.7708
vn 0.0759 0.6326 0.7708
vn 0.0624 -0.7715 0.6332
vn 0.0865 0.4696 0.8786
vn -0.0865 -0.4696 0.8786
vn -0.0624 0.7715 0.6332
vn -0.0759 -0.6326 0.7708
vn -0.0759 0.6326 0.7708
vn -0.0624 -0.7715 0.6332
vn -0.0865 0.4696 0.8786
vn -0.0464 -0.8810 0.4709
vn -0.0938 0.2890 0.9527
vn -0.0286 -0.9565 0.2902
vn -0.0976 0.0975 0.9904
vn -0.0097 0.9951 0.0980
vn -0.0097 -0.9951 0.0980
vn -0.0976 -0.0975 0.9904
vn -0.0286 0.9565 0.2902
vn -0.0938 -0.2890 0.9527
vn -0.0464 0.8810 0.4709
vn -0.0846 -0.9565 0.2790
vn -0.2889 0.0975 0.9524
vn -0.0286 0.9951 0.0942
vn -0.0286 -0.9951 0.0942
vn -0.2889 -0.0975 0.9524
vn -0.0846 0.9565 0.2790
vn -0.2779 -0.2890 0.9161
vn -0.1374 0.8810 0.4528
vn -0.2563 -0.4696 0.8448
vn -0.1847 0.7715 0.6088
vn -0.2248 -0.6326 0.7412
vn -0.2248 0.6326 0.7412
vn -0.1847 -0.7715 0.6088
vn -0.2563 0.4696 0.8448
vn -0.1374 -0.8810 0.4528
vn -0.2779 0.2890 0.9161
vn -0.2999 0.7715 0.5611
vn -0.3651 -0.6326 0.6831
vn -0.3651 0.6326 0.6831
vn -0.2999 -0.7715 0.5611
vn -0.4162 0.4696 0.7786
vn -0.2230 -0.8810 0.4173
vn -0.4513 0.2890 0.8443
vn -0.1374 -0.9565 0.2571
vn -0.4691 0.0975 0.8777
vn -0.0464 0.9951 0.0869
vn -0.0464 -0.9951 0.0869
vn -0.4691 -0.0975 0.8777
vn -0.1374 0.9565 0.2571
vn -0.4513 -0.2890 0.8443
vn -0.2230 0.8810 0.4173
vn -0.4162 -0.4696 0.7786
vn -0.6314 0.0975 0.7693
vn -0.0625 0.9951 0.0761
vn -0.0625 -0.9951 0.0761
vn -0.6314 -0.0975 0.7693
vn -0.1850 0.9565 0.2254
vn -0.6073 -0.2890 0.7400
vn -0.3002 0.8810 0.3658
vn -0.5601 -0.4696 0.6825
vn -0.4036 0.7715 0.4918
vn -0.4913 -0.6326 0.5987
vn -0.4913 0.6326 0.5987
vn -0.4036 -0.7715 0.4918
vn -0.5601 0.4696 0.6825
vn -0.3002 -0.8810 0.3658
vn -0.6073 0.2890 0.7400
vn -0.1850 -0.9565 0.2254
vn -0.5987 -0.6326 0.4913
vn -0.5987 0.6326 0.4913
vn -0.4918 -0.7715 0.4036
vn -0.6825 0.4696 0.5601
vn -0.3658 -0.8810 0.3002
vn -0.7400 0.2890 0.6073
vn -0.2254 -0.9565 0.1850
vn -0.7693 0.0975 0.6314
vn -0.0761 0.9951 0.0625
vn -0.0761 -0.9951 0.0625
vn -0.7693 -0.0975 0.6314
vn -0.2254 0.9565 0.1850
vn -0.7400 -0.2890 0.6073
vn -0.3658 0.8810 0.3002
vn -0.6825 -0.4696 0.5601
vn -0.4918 0.7715 0.4036
vn -0.0869 0.9951 0.0464
vn -0.0869 -0.9951 0.0464
vn -0.8777 -0.0975 0.4691
vn -0.2571 0.9565 0.1374
vn -0.8443 -0.2890 0.4513
vn -0.4173 0.8810 0.2230
vn -0.7786 -0.4696 0.4162
vn -0.5611 0.7715 0.2999
vn -0.6831 -0.6326 0.3651
vn -0.6831 0.6326 0.3651
vn -0.5611 -0.7715 0.2999
vn -0.7786 0.4696 0.4162
vn -0.4173 -0.8810 0.2230
vn -0.8443 0.2890 0.4513
vn -0.2571 -0.9565 0.1374
vn -0.8777 0.0975 0.4691
vn -0.7412 0.6326 0.2248
vn -0.6088 -0.7715 0.1847
vn -0.8448 0.4696 0.2563
vn -0.4528 -0.8810 0.1374
vn -0.9161 0.2890 0.2779
vn -0.2790 -0.9565 0.0846
vn -0.9524 0.0975 0.2889
vn -0.0942 0.9951 0.0286
vn -0.0942 -0.9951 0.0286
vn -0.9524 -0.0975 0.2889
vn -0.2790 0.9565 0.0846
vn -0.9161 -0.2890 0.2779
vn -0.4528 0.8810 0.1374
vn -0.8448 -0.4696 0.2563
vn -0.6088 0.7715 0.1847
vn -0.7412 -0.6326 0.2248
vn -0.9904 -0.0975 0.0975
vn -0.2902 0.9565 0.0286
vn -0.9527 -0.2890 0.0938
vn -0.4709 0.8810 0.0464
vn -0.8786 -0.4696 0.0865
vn -0.6332 0.7715 0.0624
vn -0.7708 -0.6326 0.0759
vn -0.7708 0.6326 0.0759
vn -0.6332 -0.7715 0.0624
vn -0.8786 0.4696 0.0865
vn -0.4709 -0.8810 0.0464
vn -0.9527 0.2890 0.0938
vn -0.2902 -0.9565 0.0286
vn -0.9904 0.0975 0.0975
vn -0.0980 0.9951 0.0097
vn -0.0980 -0.9951 0.0097
vn -0.6332 -0.7715 -0.0624
vn -0.8786 0.4696 -0.0865
vn -0.4709 -0.8810 -0.0464
vn -0.9527 0.2890 -0.0938
vn -0.2902 -0.9565 -0.0286
vn -0.9904 0.0975 -0.0976
vn -0.0980 0.9951 -0.0097
vn -0.0980 -0.9951 -0.0097
vn -0.9904 -0.0975 -0.0976
vn -0.2902 0.9565 -0.0286
vn -0.9527 -0.2890 -0.0938
vn -0.4709 0.8810 -0.0464
vn -0.8786 -0.4696 -0.0865
vn -0.6332 0.7715 -0.0624
vn -0.7708 -0.6326 -0.0759
vn -0.7708 0.6326 -0.0759
vn -0.9161 -0.2890 -0.2779
vn -0.4528 0.8810 -0.1374
vn -0.8448 -0.4696 -0.2563
vn -0.6088 0.7715 -0.1847
vn -0.7412 -0.6326 -0.2248
vn -0.7412 0.6326 -0.2248
vn -0.6088 -0.7715 -0.1847
vn -0.8448 0.4696 -0.2563
vn -0.4528 -0.8810 -0.1374
vn -0.9161 0.2890 -0.2779
vn -0.2790 -0.9565 -0.0846
vn -0.9524 0.0975 -0.2889
vn -0.0942 0.9951 -0.0286
vn -0.0942 -0.9951 -0.0286
vn -0.9524 -0.0975 -0.2889
vn -0.2790 0.9565 -0.0846
vn -0.4173 -0.8810 -0.2231
vn -0.8443 0.2890 -0.4513
vn -0.2571 -0.9565 -0.1374
vn -0.8777 0.0975 -0.4691
vn -0.0869 0.9951 -0.0464
vn -0.0869 -0.9951 -0.0464
vn -0.8777 -0.0975 -0.4691
vn -0.2571 0.9565 -0.1374
vn -0.8443 -0.2890 -0.4513
vn -0.4173 0.8810 -0.2231
vn -0.7786 -0.4696 -0.4162
vn -0.5611 0.7715 -0.2999
vn -0.6831 -0.6326 -0.3651
vn -0.6831 0.6326 -0.3651
vn -0.5611 -0.7715 -0.2999
vn -0.7786 0.4696 -0.4162
vn -0.3658 0.8810 -0.3002
vn -0.6825 -0.4696 -0.5601
vn -0.4918 0.7715 -0.4036
vn -0.5987 -0.6326 -0.4913
vn -0.5987 0.6326 -0.4913
vn -0.4918 -0.7715 -0.4036
vn -0.6825 0.4696 -0.5601
vn -0.3658 -0.8810 -0.3002
vn -0.7400 0.2890 -0.6073
vn -0.2254 -0.9565 -0.1850
vn -0.7693 0.0975 -0.6314
vn -0.0761 0.9951 -0.0625
vn -0.0761 -0.9951 -0.0625
vn -0.7693 -0.0975 -0.6314
vn -0.2254 0.9565 -0.1850
vn -0.7400 -0.2890 -0.6073
vn -0.6073 0.2890 -0.7400
vn -0.1850 -0.9565 -0.2254
vn -0.6314 0.0975 -0.7693
vn -0.0625 0.9951 -0.0761
vn -0.0625 -0.9951 -0.0761
vn -0.6314 -0.0975 -0.7693
vn -0.1850 0.9565 -0.2254
vn -0.6073 -0.2890 -0.7400
vn -0.3002 0.8810 -0.3658
vn -0.5601 -0.4696 -0.6825
vn -0.4036 0.7715 -0.4918
vn -0.4913 -0.6326 -0.5987
vn -0.4913 0.6326 -0.5987
vn -0.4036 -0.7715 -0.4918
vn -0.5601 0.4696 -0.6825
vn -0.3002 -0.8810 -0.3658
vn -0.4162 -0.4696 -0.7786
vn -0.2999 0.7715 -0.5611
vn -0.3651 -0.6326 -0.6831
vn -0.3651 0.6326 -0.6831
vn -0.2999 -0.7715 -0.5611
vn -0.4162 0.4696 -0.7786
vn -0.2230 -0.8810 -0.4173
vn -0.4513 0.2890 -0.8443
vn -0.1374 -0.9565 -0.2571
vn -0.4691 0.0975 -0.8777
vn -0.0464 0.9951 -0.0869
vn -0.0464 -0.9951 -0.0869
vn -0.4691 -0.0975 -0.8777
vn -0.1374 0.9565 -0.2571
vn -0.4513 -0.2890 -0.8443
vn -0.2230 0.8810 -0.4173
vn -0.0846 -0.9565 -0.2790
vn -0.2889 0.0975 -0.9524
vn -0.0286 0.9951 -0.0942
vn -0.0286 -0.9951 -0.0942
vn -0.2889 -0.0975 -0.9524
vn -0.0846 0.9565 -0.2790
vn -0.2779 -0.2890 -0.9161
vn -0.1374 0.8810 -0.4528
vn -0.2563 -0.4696 -0.8448
vn -0.1847 0.7715 -0.6088
vn -0.2248 -0.6326 -0.7412
vn -0.2248 0.6326 -0.7412
vn -0.1847 -0.7715 -0.6088
vn -0.2563 0.4696 -0.8448
vn -0.1374 -0.8810 -0.4528
vn -0.2779 0.2890 -0.9161
vn -0.0624 0.7715 -0.6332
vn -0.0759 -0.6326 -0.7708
vn -0.0759 0.6326 -0.7708
vn -0.0624 -0.7715 -0.6332
vn -0.0865 0.4696 -0.8786
vn -0.0464 -0.8810 -0.4709
vn -0.0938 0.2890 -0.9527
vn -0.0286 -0.9565 -0.2902
vn -0.0976 0.0975 -0.9904
vn -0.0097 0.9951 -0.0980
vn -0.0097 -0.9951 -0.0980
vn -0.0976 -0.0975 -0.9904
vn -0.0286 0.9565 -0.2902
vn -0.0938 -0.2890 -0.9527
vn -0.0464 0.8810 -0.4709
vn -0.0865 -0.4696 -0.8786
vt 0.974532 0.323136
vt 0.974317 0.385635
vt 0.943470 0.385096
vt 0.943936 0.322601
vt 0.973050 0.760628
vt 0.972575 0.823126
vt 0.939710 0.822551
vt 0.940732 0.760063
vt 0.974808 0.260638
vt 0.944534 0.260108
vt 0.973359 0.698130
vt 0.941397 0.697571
vt 0.975210 0.198140
vt 0.945406 0.197619
vt 0.973590 0.635631
vt 0.941896 0.635077
vt 0.975920 0.135644
vt 0.946951 0.135137
vt 0.973783 0.573132
vt 0.942313 0.572582
vt 0.977737 0.073154
vt 0.950921 0.072685
vt 0.973959 0.510633
vt 0.942693 0.510086
vt 0.968655 0.948104
vt 0.499997 0.989223
vt 0.931355 0.947451
vt 1.000000 0.010777
vt 0.974132 0.448134
vt 0.943069 0.447591
vt 0.971653 0.885621
vt 0.937730 0.885027
vt 0.911995 0.446662
vt 0.912598 0.384173
vt 0.904052 0.884020
vt 0.906981 0.821572
vt 0.913299 0.321685
vt 0.908502 0.759100
vt 0.914199 0.259201
vt 0.909493 0.696617
vt 0.915516 0.196725
vt 0.910239 0.634131
vt 0.917856 0.134267
vt 0.910863 0.571642
vt 0.923911 0.071875
vt 0.911432 0.509152
vt 0.894763 0.946354
vt 0.885494 0.195489
vt 0.888565 0.133060
vt 0.878636 0.632830
vt 0.879441 0.570349
vt 0.896596 0.070746
vt 0.880178 0.507866
vt 0.859149 0.944879
vt 0.880907 0.445383
vt 0.870729 0.882647
vt 0.881688 0.382901
vt 0.874454 0.820233
vt 0.882600 0.320422
vt 0.876400 0.757779
vt 0.883773 0.257949
vt 0.877675 0.695308
vt 0.837844 0.880972
vt 0.842179 0.818592
vt 0.850730 0.381327
vt 0.851819 0.318857
vt 0.844463 0.756155
vt 0.853225 0.256396
vt 0.845964 0.693696
vt 0.855295 0.193953
vt 0.847101 0.631227
vt 0.859012 0.131555
vt 0.848055 0.568753
vt 0.868862 0.069327
vt 0.848930 0.506278
vt 0.824674 0.943109
vt 0.849798 0.443801
vt 0.815644 0.629385
vt 0.816710 0.566918
vt 0.829132 0.129801
vt 0.840585 0.067655
vt 0.817689 0.504448
vt 0.791393 0.941135
vt 0.818663 0.441978
vt 0.805451 0.879071
vt 0.819710 0.379510
vt 0.810192 0.816717
vt 0.820938 0.317048
vt 0.812713 0.754295
vt 0.822528 0.254597
vt 0.814379 0.691846
vt 0.824879 0.192170
vt 0.788619 0.377519
vt 0.789940 0.315063
vt 0.778516 0.814686
vt 0.781168 0.752274
vt 0.791658 0.252620
vt 0.782930 0.689832
vt 0.794210 0.190204
vt 0.784273 0.627376
vt 0.798864 0.127857
vt 0.785408 0.564913
vt 0.811638 0.065780
vt 0.786453 0.502448
vt 0.759282 0.939050
vt 0.787495 0.439982
vt 0.773575 0.877023
vt 0.768157 0.125792
vt 0.781888 0.063758
vt 0.754149 0.562817
vt 0.755220 0.500354
vt 0.728259 0.936939
vt 0.756291 0.437890
vt 0.742215 0.874913
vt 0.757450 0.375429
vt 0.747155 0.812581
vt 0.758815 0.312975
vt 0.749832 0.750171
vt 0.760597 0.250536
vt 0.751620 0.687732
vt 0.763259 0.188126
vt 0.752989 0.625278
vt 0.727552 0.310865
vt 0.729331 0.248424
vt 0.718703 0.748069
vt 0.720450 0.685628
vt 0.732003 0.186014
vt 0.721791 0.623173
vt 0.736965 0.123680
vt 0.722932 0.560711
vt 0.751205 0.061657
vt 0.723988 0.498246
vt 0.698211 0.934883
vt 0.725046 0.435781
vt 0.711349 0.872824
vt 0.726195 0.373320
vt 0.716104 0.810483
vt 0.669010 0.932952
vt 0.719468 0.059554
vt 0.692753 0.496206
vt 0.693759 0.433737
vt 0.680940 0.870831
vt 0.694852 0.371272
vt 0.685343 0.808471
vt 0.696150 0.308813
vt 0.687771 0.746048
vt 0.697855 0.246367
vt 0.689411 0.683600
vt 0.700432 0.183949
vt 0.690675 0.621140
vt 0.705263 0.121602
vt 0.691753 0.558674
vt 0.657019 0.744182
vt 0.658492 0.681724
vt 0.666173 0.244445
vt 0.668548 0.182013
vt 0.659632 0.619257
vt 0.673042 0.119642
vt 0.660607 0.556785
vt 0.686585 0.057533
vt 0.661514 0.494311
vt 0.640524 0.931206
vt 0.662428 0.431837
vt 0.650937 0.869007
vt 0.663424 0.369366
vt 0.654847 0.806619
vt 0.664609 0.306900
vt 0.630269 0.492634
vt 0.631055 0.430154
vt 0.612622 0.929698
vt 0.621282 0.867412
vt 0.631914 0.367675
vt 0.624580 0.804994
vt 0.632939 0.305200
vt 0.626424 0.742540
vt 0.634296 0.242734
vt 0.627680 0.680071
vt 0.636366 0.180285
vt 0.628654 0.617595
vt 0.640316 0.117883
vt 0.629490 0.555115
vt 0.652507 0.055685
vt 0.602246 0.241305
vt 0.603918 0.178838
vt 0.596956 0.678701
vt 0.597730 0.616216
vt 0.607132 0.116401
vt 0.598395 0.553729
vt 0.617262 0.054101
vt 0.599016 0.491241
vt 0.585180 0.928468
vt 0.599645 0.428754
vt 0.591911 0.866101
vt 0.600332 0.366267
vt 0.594503 0.803652
vt 0.601154 0.303783
vt 0.595960 0.741181
vt 0.558080 0.927549
vt 0.562757 0.865115
vt 0.568203 0.427691
vt 0.568692 0.365197
vt 0.564573 0.802640
vt 0.569276 0.302706
vt 0.565598 0.740154
vt 0.570054 0.240216
vt 0.566300 0.677664
vt 0.571250 0.177733
vt 0.566847 0.615172
vt 0.573562 0.115265
vt 0.567317 0.552678
vt 0.580972 0.052869
vt 0.567757 0.490184
vt 0.535692 0.676999
vt 0.535993 0.614501
vt 0.538422 0.177020
vt 0.539707 0.114530
vt 0.536251 0.552003
vt 0.543872 0.052062
vt 0.536493 0.489505
vt 0.531211 0.926964
vt 0.536739 0.427007
vt 0.533754 0.864484
vt 0.537008 0.364509
vt 0.534746 0.801991
vt 0.537331 0.302011
vt 0.535307 0.739496
vt 0.537760 0.239515
vt 0.505262 0.426729
vt 0.505301 0.364229
vt 0.504831 0.864228
vt 0.504974 0.801728
vt 0.505347 0.301729
vt 0.505055 0.739229
vt 0.505410 0.239229
vt 0.505111 0.676729
vt 0.505505 0.176729
vt 0.505154 0.614229
vt 0.505692 0.114229
vt 0.505191 0.551729
vt 0.506299 0.051730
vt 0.505226 0.489229
vt 0.504465 0.926728
vt 0.472575 0.176874
vt 0.471653 0.114379
vt 0.474317 0.614365
vt 0.474132 0.551866
vt 0.468655 0.051896
vt 0.473959 0.489367
vt 0.477737 0.926846
vt 0.000000 0.010777
vt 0.473783 0.426868
vt 0.475920 0.864356
vt 0.473590 0.364369
vt 0.475210 0.801860
vt 0.473359 0.301870
vt 0.474808 0.739362
vt 0.473050 0.239372
vt 0.474532 0.676864
vt 0.441896 0.364923
vt 0.441397 0.302429
vt 0.445406 0.802381
vt 0.444534 0.739892
vt 0.440732 0.239937
vt 0.443936 0.677399
vt 0.439710 0.177449
vt 0.443470 0.614904
vt 0.437730 0.114973
vt 0.443069 0.552409
vt 0.431355 0.052549
vt 0.442693 0.489914
vt 0.450921 0.927315
vt 0.442313 0.427418
vt 0.446951 0.864863
vt 0.404052 0.115980
vt 0.394763 0.053646
vt 0.411995 0.553338
vt 0.411432 0.490848
vt 0.423911 0.928125
vt 0.410863 0.428358
vt 0.417855 0.865733
vt 0.410239 0.365869
vt 0.415516 0.803275
vt 0.409493 0.303383
vt 0.414199 0.740798
vt 0.408502 0.240900
vt 0.413299 0.678315
vt 0.406981 0.178427
vt 0.412598 0.615827
vt 0.385494 0.804511
vt 0.383773 0.742051
vt 0.377675 0.304692
vt 0.376400 0.242221
vt 0.382600 0.679578
vt 0.374454 0.179766
vt 0.381689 0.617099
vt 0.370729 0.117353
vt 0.380907 0.554617
vt 0.359149 0.055121
vt 0.380178 0.492134
vt 0.396596 0.929254
vt 0.379441 0.429651
vt 0.388565 0.866940
vt 0.378636 0.367170
vt 0.349798 0.556199
vt 0.348930 0.493722
vt 0.368862 0.930673
vt 0.324674 0.056891
vt 0.348055 0.431246
vt 0.359012 0.868445
vt 0.347101 0.368773
vt 0.355295 0.806047
vt 0.345964 0.306304
vt 0.353225 0.743604
vt 0.344463 0.243845
vt 0.351819 0.681143
vt 0.342179 0.181408
vt 0.350730 0.618673
vt 0.337844 0.119028
vt 0.314379 0.308154
vt 0.312713 0.245705
vt 0.322528 0.745403
vt 0.320938 0.682952
vt 0.310192 0.183283
vt 0.319710 0.620490
vt 0.305451 0.120929
vt 0.318662 0.558022
vt 0.291393 0.058865
vt 0.317689 0.495552
vt 0.340585 0.932345
vt 0.316710 0.433082
vt 0.329132 0.870199
vt 0.315644 0.370615
vt 0.324879 0.807830
vt 0.311637 0.934220
vt 0.259282 0.060950
vt 0.286453 0.497552
vt 0.285408 0.435086
vt 0.298864 0.872143
vt 0.284273 0.372624
vt 0.294210 0.809796
vt 0.282930 0.310168
vt 0.291658 0.747380
vt 0.281167 0.247726
vt 0.289940 0.684937
vt 0.278516 0.185314
vt 0.288619 0.622481
vt 0.273575 0.122977
vt 0.287495 0.560018
vt 0.260597 0.749464
vt 0.258815 0.687025
vt 0.249832 0.249829
vt 0.247155 0.187419
vt 0.257449 0.624571
vt 0.242215 0.125087
vt 0.256291 0.562110
vt 0.228259 0.063061
vt 0.255220 0.499646
vt 0.281888 0.936242
vt 0.254149 0.437182
vt 0.268156 0.874208
vt 0.252989 0.374722
vt 0.263259 0.811874
vt 0.251620 0.312268
vt 0.223988 0.501754
vt 0.222932 0.439289
vt 0.251205 0.938343
vt 0.236965 0.876320
vt 0.221791 0.376827
vt 0.232003 0.813986
vt 0.220450 0.314372
vt 0.229331 0.751576
vt 0.218703 0.251931
vt 0.227552 0.689135
vt 0.216104 0.189517
vt 0.226195 0.626680
vt 0.211349 0.127176
vt 0.225046 0.564219
vt 0.198211 0.065117
vt 0.187771 0.253952
vt 0.185343 0.191529
vt 0.196150 0.691187
vt 0.194853 0.628728
vt 0.180940 0.129169
vt 0.193759 0.566263
vt 0.169010 0.067048
vt 0.192753 0.503794
vt 0.219469 0.940446
vt 0.191753 0.441326
vt 0.205263 0.878398
vt 0.190675 0.378860
vt 0.200432 0.816051
vt 0.189411 0.316400
vt 0.197856 0.753633
vt 0.160607 0.443215
vt 0.159632 0.380743
vt 0.173042 0.880358
vt 0.168547 0.817987
vt 0.158492 0.318276
vt 0.166173 0.755555
vt 0.157019 0.255818
vt 0.164609 0.693100
vt 0.154847 0.193381
vt 0.163424 0.630634
vt 0.150937 0.130993
vt 0.162428 0.568163
vt 0.140524 0.068794
vt 0.161514 0.505689
vt 0.186585 0.942467
vt 0.124580 0.195006
vt 0.121282 0.132588
vt 0.131914 0.632325
vt 0.131055 0.569846
vt 0.112622 0.070302
vt 0.130269 0.507365
vt 0.152507 0.944315
vt 0.129490 0.444885
vt 0.140316 0.882117
vt 0.128655 0.382405
vt 0.136366 0.819715
vt 0.127680 0.319929
vt 0.134296 0.757266
vt 0.126424 0.257460
vt 0.132939 0.694800
vt 0.107132 0.883599
vt 0.103918 0.821162
vt 0.097730 0.383784
vt 0.096956 0.321299
vt 0.102246 0.758695
vt 0.095960 0.258819
vt 0.101154 0.696217
vt 0.094503 0.196348
vt 0.100332 0.633733
vt 0.091911 0.133899
vt 0.099645 0.571246
vt 0.085180 0.071532
vt 0.099016 0.508759
vt 0.117262 0.945899
vt 0.098395 0.446271
vt 0.068692 0.634803
vt 0.068203 0.572309
vt 0.062757 0.134885
vt 0.058080 0.072451
vt 0.067758 0.509816
vt 0.080972 0.947131
vt 0.067317 0.447322
vt 0.073562 0.884735
vt 0.066847 0.384828
vt 0.071250 0.822267
vt 0.066300 0.322336
vt 0.070054 0.759784
vt 0.065598 0.259846
vt 0.069276 0.697294
vt 0.064573 0.197360
vt 0.035993 0.385499
vt 0.035692 0.323001
vt 0.038422 0.822980
vt 0.037761 0.760485
vt 0.035307 0.260504
vt 0.037331 0.697989
vt 0.034746 0.198008
vt 0.037008 0.635491
vt 0.033754 0.135516
vt 0.036739 0.572993
vt 0.031212 0.073036
vt 0.036493 0.510495
vt 0.043873 0.947938
vt 0.036251 0.447997
vt 0.039707 0.885471
vt 0.004831 0.135772
vt 0.004466 0.073272
vt 0.005262 0.573271
vt 0.005226 0.510771
vt 0.006299 0.948270
vt 0.005191 0.448271
vt 0.005692 0.885771
vt 0.005154 0.385771
vt 0.005505 0.823271
vt 0.005111 0.323271
vt 0.005410 0.760771
vt 0.005055 0.260771
vt 0.005347 0.698271
vt 0.004974 0.198271
vt 0.005301 0.635771
vt 1.005410 0.760771
vt 1.005505 0.823271
vt 1.005055 0.260771
vt 1.005111 0.323271
vt 1.005347 0.698271
vt 1.004974 0.198271
vt 1.005301 0.635771
vt 1.004831 0.135772
vt 1.005262 0.573271
vt 1.004466 0.073272
vt 1.005226 0.510771
vt 1.006299 0.948270
vt 1.005191 0.448271
vt 1.005692 0.885771
vt 1.005154 0.385771
s 0
f 6/1/1 478/2/1 16/3/1 17/4/1
f 476/5/2 1/6/2 9/7/2 10/8/2
f 479/9/3 6/1/3 17/4/3 18/10/3
f 2/11/4 476/5/4 10/8/4 11/12/4
f 480/13/5 479/9/5 18/10/5 19/14/5
f 477/15/6 2/11/6 11/12/6 12/16/6
f 481/17/7 480/13/7 19/14/7 20/18/7
f 3/19/8 477/15/8 12/16/8 13/20/8
f 482/21/9 481/17/9 20/18/9 21/22/9
f 4/23/10 3/19/10 13/20/10 14/24/10
f 474/25/11 82/26/11 7/27/11
f 308/28/12 482/21/12 21/22/12
f 5/29/13 4/23/13 14/24/13 15/30/13
f 475/31/14 474/25/14 7/27/14 8/32/14
f 478/2/15 5/29/15 15/30/15 16/3/15
f 1/6/16 475/31/16 8/32/16 9/7/16
f 16/3/17 15/30/17 30/33/17 31/34/17
f 9/7/18 8/32/18 23/35/18 24/36/18
f 17/4/19 16/3/19 31/34/19 32/37/19
f 10/8/20 9/7/20 24/36/20 25/38/20
f 18/10/21 17/4/21 32/37/21 33/39/21
f 11/12/22 10/8/22 25/38/22 26/40/22
f 19/14/23 18/10/23 33/39/23 34/41/23
f 12/16/24 11/12/24 26/40/24 27/42/24
f 20/18/25 19/14/25 34/41/25 35/43/25
f 13/20/26 12/16/26 27/42/26 28/44/26
f 21/22/27 20/18/27 35/43/27 36/45/27
f 14/24/28 13/20/28 28/44/28 29/46/28
f 7/27/29 82/26/29 22/47/29
f 308/28/30 21/22/30 36/45/30
f 15/30/31 14/24/31 29/46/31 30/33/31
f 8/32/32 7/27/32 22/47/32 23/35/32
f 35/43/33 34/41/33 49/48/33 50/49/33
f 28/44/34 27/42/34 42/50/34 43/51/34
f 36/45/35 35/43/35 50/49/35 51/52/35
f 29/46/36 28/44/36 43/51/36 44/53/36
f 22/47/37 82/26/37 37/54/37
f 308/28/38 36/45/38 51/52/38
f 30/33/39 29/46/39 44/53/39 45/55/39
f 23/35/40 22/47/40 37/54/40 38/56/40
f 31/34/41 30/33/41 45/55/41 46/57/41
f 24/36/42 23/35/42 38/56/42 39/58/42
f 32/37/43 31/34/43 46/57/43 47/59/43
f 25/38/44 24/36/44 39/58/44 40/60/44
f 33/39/45 32/37/45 47/59/45 48/61/45
f 26/40/46 25/38/46 40/60/46 41/62/46
f 34/41/47 33/39/47 48/61/47 49/48/47
f 27/42/48 26/40/48 41/62/48 42/50/48
f 39/58/49 38/56/49 53/63/49 54/64/49
f 47/59/50 46/57/50 61/65/50 62/66/50
f 40/60/51 39/58/51 54/64/51 55/67/51
f 48/61/52 47/59/52 62/66/52 63/68/52
f 41/62/53 40/60/53 55/67/53 56/69/53
f 49/48/54 48/61/54 63/68/54 64/70/54
f 42/50/55 41/62/55 56/69/55 57/71/55
f 50/49/56 49/48/56 64/70/56 65/72/56
f 43/51/57 42/50/57 57/71/57 58/73/57
f 51/52/58 50/49/58 65/72/58 66/74/58
f 44/53/59 43/51/59 58/73/59 59/75/59
f 37/54/60 82/26/60 52/76/60
f 308/28/61 51/52/61 66/74/61
f 45/55/62 44/53/62 59/75/62 60/77/62
f 38/56/63 37/54/63 52/76/63 53/63/63
f 46/57/64 45/55/64 60/77/64 61/65/64
f 58/73/65 57/71/65 72/78/65 73/79/65
f 66/74/66 65/72/66 80/80/66 81/81/66
f 59/75/67 58/73/67 73/79/67 74/82/67
f 52/76/68 82/26/68 67/83/68
f 308/28/69 66/74/69 81/81/69
f 60/77/70 59/75/70 74/82/70 75/84/70
f 53/63/71 52/76/71 67/83/71 68/85/71
f 61/65/72 60/77/72 75/84/72 76/86/72
f 54/64/73 53/63/73 68/85/73 69/87/73
f 62/66/74 61/65/74 76/86/74 77/88/74
f 55/67/75 54/64/75 69/87/75 70/89/75
f 63/68/76 62/66/76 77/88/76 78/90/76
f 56/69/77 55/67/77 70/89/77 71/91/77
f 64/70/78 63/68/78 78/90/78 79/92/78
f 57/71/79 56/69/79 71/91/79 72/78/79
f 65/72/80 64/70/80 79/92/80 80/80/80
f 77/88/81 76/86/81 92/93/81 93/94/81
f 70/89/82 69/87/82 85/95/82 86/96/82
f 78/90/83 77/88/83 93/94/83 94/97/83
f 71/91/84 70/89/84 86/96/84 87/98/84
f 79/92/85 78/90/85 94/97/85 95/99/85
f 72/78/86 71/91/86 87/98/86 88/100/86
f 80/80/87 79/92/87 95/99/87 96/101/87
f 73/79/88 72/78/88 88/100/88 89/102/88
f 81/81/89 80/80/89 96/101/89 97/103/89
f 74/82/90 73/79/90 89/102/90 90/104/90
f 67/83/91 82/26/91 83/105/91
f 308/28/92 81/81/92 97/103/92
f 75/84/93 74/82/93 90/104/93 91/106/93
f 68/85/94 67/83/94 83/105/94 84/107/94
f 76/86/95 75/84/95 91/106/95 92/93/95
f 69/87/96 68/85/96 84/107/96 85/95/96
f 97/103/97 96/101/97 111/108/97 112/109/97
f 90/104/98 89/102/98 104/110/98 105/111/98
f 83/105/99 82/26/99 98/112/99
f 308/28/100 97/103/100 112/109/100
f 91/106/101 90/104/101 105/111/101 106/113/101
f 84/107/102 83/105/102 98/112/102 99/114/102
f 92/93/103 91/106/103 106/113/103 107/115/103
f 85/95/104 84/107/104 99/114/104 100/116/104
f 93/94/105 92/93/105 107/115/105 108/117/105
f 86/96/106 85/95/106 100/116/106 101/118/106
f 94/97/107 93/94/107 108/117/107 109/119/107
f 87/98/108 86/96/108 101/118/108 102/120/108
f 95/99/109 94/97/109 109/119/109 110/121/109
f 88/100/110 87/98/110 102/120/110 103/122/110
f 96/101/111 95/99/111 110/121/111 111/108/111
f 89/102/112 88/100/112 103/122/112 104/110/112
f 109/119/113 108/117/113 123/123/113 124/124/113
f 102/120/114 101/118/114 116/125/114 117/126/114
f 110/121/115 109/119/115 124/124/115 125/127/115
f 103/122/116 102/120/116 117/126/116 118/128/116
f 111/108/117 110/121/117 125/127/117 126/129/117
f 104/110/118 103/122/118 118/128/118 119/130/118
f 112/109/119 111/108/119 126/129/119 127/131/119
f 105/111/120 104/110/120 119/130/120 120/132/120
f 98/112/121 82/26/121 113/133/121
f 308/28/122 112/109/122 127/131/122
f 106/113/123 105/111/123 120/132/123 121/134/123
f 99/114/124 98/112/124 113/133/124 114/135/124
f 107/115/125 106/113/125 121/134/125 122/136/125
f 100/116/126 99/114/126 114/135/126 115/137/126
f 108/117/127 107/115/127 122/136/127 123/123/127
f 101/118/128 100/116/128 115/137/128 116/125/128
f 113/133/129 82/26/129 128/138/129
f 308/28/130 127/131/130 142/139/130
f 121/134/131 120/132/131 135/140/131 136/141/131
f 114/135/132 113/133/132 128/138/132 129/142/132
f 122/136/133 121/134/133 136/141/133 137/143/133
f 115/137/134 114/135/134 129/142/134 130/144/134
f 123/123/135 122/136/135 137/143/135 138/145/135
f 116/125/136 115/137/136 130/144/136 131/146/136
f 124/124/137 123/123/137 138/145/137 139/147/137
f 117/126/138 116/125/138 131/146/138 132/148/138
f 125/127/139 124/124/139 139/147/139 140/149/139
f 118/128/140 117/126/140 132/148/140 133/150/140
f 126/129/141 125/127/141 140/149/141 141/151/141
f 119/130/142 118/128/142 133/150/142 134/152/142
f 127/131/143 126/129/143 141/151/143 142/139/143
f 120/132/144 119/130/144 134/152/144 135/140/144
f 132/148/145 131/146/145 146/153/145 147/154/145
f 140/149/146 139/147/146 154/155/146 155/156/146
f 133/150/147 132/148/147 147/154/147 148/157/147
f 141/151/148 140/149/148 155/156/148 156/158/148
f 134/152/149 133/150/149 148/157/149 149/159/149
f 142/139/150 141/151/150 156/158/150 157/160/150
f 135/140/151 134/152/151 149/159/151 150/161/151
f 128/138/152 82/26/152 143/162/152
f 308/28/153 142/139/153 157/160/153
f 136/141/154 135/140/154 150/161/154 151/163/154
f 129/142/155 128/138/155 143/162/155 144/164/155
f 137/143/156 136/141/156 151/163/156 152/165/156
f 130/144/157 129/142/157 144/164/157 145/166/157
f 138/145/158 137/143/158 152/165/158 153/167/158
f 131/146/159 130/144/159 145/166/159 146/153/159
f 139/147/160 138/145/160 153/167/160 154/155/160
f 151/163/161 150/161/161 165/168/161 166/169/161
f 144/164/162 143/162/162 158/170/162 159/171/162
f 152/165/163 151/163/163 166/169/163 167/172/163
f 145/166/164 144/164/164 159/171/164 160/173/164
f 153/167/165 152/165/165 167/172/165 168/174/165
f 146/153/166 145/166/166 160/173/166 161/175/166
f 154/155/167 153/167/167 168/174/167 169/176/167
f 147/154/168 146/153/168 161/175/168 162/177/168
f 155/156/169 154/155/169 169/176/169 170/178/169
f 148/157/170 147/154/170 162/177/170 163/179/170
f 156/158/171 155/156/171 170/178/171 171/180/171
f 149/159/172 148/157/172 163/179/172 164/181/172
f 157/160/173 156/158/173 171/180/173 172/182/173
f 150/161/174 149/159/174 164/181/174 165/168/174
f 143/162/175 82/26/175 158/170/175
f 308/28/176 157/160/176 172/182/176
f 170/178/177 169/176/177 184/183/177 185/184/177
f 163/179/178 162/177/178 177/185/178 178/186/178
f 171/180/179 170/178/179 185/184/179 186/187/179
f 164/181/180 163/179/180 178/186/180 179/188/180
f 172/182/181 171/180/181 186/187/181 187/189/181
f 165/168/182 164/181/182 179/188/182 180/190/182
f 158/170/183 82/26/183 173/191/183
f 308/28/184 172/182/184 187/189/184
f 166/169/185 165/168/185 180/190/185 181/192/185
f 159/171/186 158/170/186 173/191/186 174/193/186
f 167/172/187 166/169/187 181/192/187 182/194/187
f 160/173/188 159/171/188 174/193/188 175/195/188
f 168/174/189 167/172/189 182/194/189 183/196/189
f 161/175/190 160/173/190 175/195/190 176/197/190
f 169/176/191 168/174/191 183/196/191 184/183/191
f 162/177/192 161/175/192 176/197/192 177/185/192
f 174/193/193 173/191/193 188/198/193 189/199/193
f 182/194/194 181/192/194 196/200/194 197/201/194
f 175/195/195 174/193/195 189/199/195 190/202/195
f 183/196/196 182/194/196 197/201/196 198/203/196
f 176/197/197 175/195/197 190/202/197 191/204/197
f 184/183/198 183/196/198 198/203/198 199/205/198
f 177/185/199 176/197/199 191/204/199 192/206/199
f 185/184/200 184/183/200 199/205/200 200/207/200
f 178/186/201 177/185/201 192/206/201 193/208/201
f 186/187/202 185/184/202 200/207/202 201/209/202
f 179/188/203 178/186/203 193/208/203 194/210/203
f 187/189/204 186/187/204 201/209/204 202/211/204
f 180/190/205 179/188/205 194/210/205 195/212/205
f 173/191/206 82/26/206 188/198/206
f 308/28/207 187/189/207 202/211/207
f 181/192/208 180/190/208 195/212/208 196/200/208
f 193/208/209 192/206/209 207/213/209 208/214/209
f 201/209/210 200/207/210 215/215/210 216/216/210
f 194/210/211 193/208/211 208/214/211 209/217/211
f 202/211/212 201/209/212 216/216/212 217/218/212
f 195/212/213 194/210/213 209/217/213 210/219/213
f 188/198/214 82/26/214 203/220/214
f 308/28/215 202/211/215 217/218/215
f 196/200/216 195/212/216 210/219/216 211/221/216
f 189/199/217 188/198/217 203/220/217 204/222/217
f 197/201/218 196/200/218 211/221/218 212/223/218
f 190/202/219 189/199/219 204/222/219 205/224/219
f 198/203/220 197/201/220 212/223/220 213/225/220
f 191/204/221 190/202/221 205/224/221 206/226/221
f 199/205/222 198/203/222 213/225/222 214/227/222
f 192/206/223 191/204/223 206/226/223 207/213/223
f 200/207/224 199/205/224 214/227/224 215/215/224
f 212/223/225 211/221/225 226/228/225 227/229/225
f 205/224/226 204/222/226 219/230/226 220/231/226
f 213/225/227 212/223/227 227/229/227 228/232/227
f 206/226/228 205/224/228 220/231/228 221/233/228
f 214/227/229 213/225/229 228/232/229 229/234/229
f 207/213/230 206/226/230 221/233/230 222/235/230
f 215/215/231 214/227/231 229/234/231 230/236/231
f 208/214/232 207/213/232 222/235/232 223/237/232
f 216/216/233 215/215/233 230/236/233 231/238/233
f 209/217/234 208/214/234 223/237/234 224/239/234
f 217/218/235 216/216/235 231/238/235 232/240/235
f 210/219/236 209/217/236 224/239/236 225/241/236
f 203/220/237 82/26/237 218/242/237
f 308/28/238 217/218/238 232/240/238
f 211/221/239 210/219/239 225/241/239 226/228/239
f 204/222/240 203/220/240 218/242/240 219/230/240
f 231/238/241 230/236/241 245/243/241 246/244/241
f 224/239/242 223/237/242 238/245/242 239/246/242
f 232/240/243 231/238/243 246/244/243 247/247/243
f 225/241/244 224/239/244 239/246/244 240/248/244
f 218/242/245 82/26/245 233/249/245
f 308/250/246 232/240/246 247/247/246
f 226/228/247 225/241/247 240/248/247 241/251/247
f 219/230/248 218/242/248 233/249/248 234/252/248
f 227/229/249 226/228/249 241/251/249 242/253/249
f 220/231/250 219/230/250 234/252/250 235/254/250
f 228/232/251 227/229/251 242/253/251 243/255/251
f 221/233/252 220/231/252 235/254/252 236/256/252
f 229/234/253 228/232/253 243/255/253 244/257/253
f 222/235/254 221/233/254 236/256/254 237/258/254
f 230/236/255 229/234/255 244/257/255 245/243/255
f 223/237/256 222/235/256 237/258/256 238/245/256
f 243/255/257 242/253/257 257/259/257 258/260/257
f 236/256/258 235/254/258 250/261/258 251/262/258
f 244/257/259 243/255/259 258/260/259 259/263/259
f 237/258/260 236/256/260 251/262/260 252/264/260
f 245/243/261 244/257/261 259/263/261 260/265/261
f 238/245/262 237/258/262 252/264/262 253/266/262
f 246/244/263 245/243/263 260/265/263 261/267/263
f 239/246/264 238/245/264 253/266/264 254/268/264
f 247/247/265 246/244/265 261/267/265 262/269/265
f 240/248/266 239/246/266 254/268/266 255/270/266
f 233/249/267 82/26/267 248/271/267
f 308/250/268 247/247/268 262/269/268
f 241/251/269 240/248/269 255/270/269 256/272/269
f 234/252/270 233/249/270 248/271/270 249/273/270
f 242/253/271 241/251/271 256/272/271 257/259/271
f 235/254/272 234/252/272 249/273/272 250/261/272
f 262/269/273 261/267/273 276/274/273 277/275/273
f 255/270/274 254/268/274 269/276/274 270/277/274
f 248/271/275 82/26/275 263/278/275
f 308/250/276 262/269/276 277/275/276
f 256/272/277 255/270/277 270/277/277 271/279/277
f 249/273/278 248/271/278 263/278/278 264/280/278
f 257/259/279 256/272/279 271/279/279 272/281/279
f 250/261/280 249/273/280 264/280/280 265/282/280
f 258/260/281 257/259/281 272/281/281 273/283/281
f 251/262/282 250/261/282 265/282/282 266/284/282
f 259/263/283 258/260/283 273/283/283 274/285/283
f 252/264/284 251/262/284 266/284/284 267/286/284
f 260/265/285 259/263/285 274/285/285 275/287/285
f 253/266/286 252/264/286 267/286/286 268/288/286
f 261/267/287 260/265/287 275/287/287 276/274/287
f 254/268/288 253/266/288 268/288/288 269/276/288
f 266/284/289 265/282/289 280/289/289 281/290/289
f 274/285/290 273/283/290 288/291/290 289/292/290
f 267/286/291 266/284/291 281/290/291 282/293/291
f 275/287/292 274/285/292 289/292/292 290/294/292
f 268/288/293 267/286/293 282/293/293 283/295/293
f 276/274/294 275/287/294 290/294/294 291/296/294
f 269/276/295 268/288/295 283/295/295 284/297/295
f 277/275/296 276/274/296 291/296/296 292/298/296
f 270/277/297 269/276/297 284/297/297 285/299/297
f 263/278/298 82/26/298 278/300/298
f 308/250/299 277/275/299 292/298/299
f 271/279/300 270/277/300 285/299/300 286/301/300
f 264/280/301 263/278/301 278/300/301 279/302/301
f 272/281/302 271/279/302 286/301/302 287/303/302
f 265/282/303 264/280/303 279/302/303 280/289/303
f 273/283/304 272/281/304 287/303/304 288/291/304
f 285/299/305 284/297/305 299/304/305 300/305/305
f 278/300/306 82/26/306 293/306/306
f 308/250/307 292/298/307 307/307/307
f 286/301/308 285/299/308 300/305/308 301/308/308
f 279/302/309 278/300/309 293/306/309 294/309/309
f 287/303/310 286/301/310 301/308/310 302/310/310
f 280/289/311 279/302/311 294/309/311 295/311/311
f 288/291/312 287/303/312 302/310/312 303/312/312
f 281/290/313 280/289/313 295/311/313 296/313/313
f 289/292/314 288/291/314 303/312/314 304/314/314
f 282/293/315 281/290/315 296/313/315 297/315/315
f 290/294/316 289/292/316 304/314/316 305/316/316
f 283/295/317 282/293/317 297/315/317 298/317/317
f 291/296/318 290/294/318 305/316/318 306/318/318
f 284/297/319 283/295/319 298/317/319 299/304/319
f 292/298/320 291/296/320 306/318/320 307/307/320
f 304/314/321 303/312/321 319/319/321 320/320/321
f 297/315/322 296/313/322 312/321/322 313/322/322
f 305/316/323 304/314/323 320/320/323 321/323/323
f 298/317/324 297/315/324 313/322/324 314/324/324
f 306/318/325 305/316/325 321/323/325 322/325/325
f 299/304/326 298/317/326 314/324/326 315/326/326
f 307/307/327 306/318/327 322/325/327 323/327/327
f 300/305/328 299/304/328 315/326/328 316/328/328
f 293/306/329 82/26/329 309/329/329
f 308/250/330 307/307/330 323/327/330
f 301/308/331 300/305/331 316/328/331 317/330/331
f 294/309/332 293/306/332 309/329/332 310/331/332
f 302/310/333 301/308/333 317/330/333 318/332/333
f 295/311/334 294/309/334 310/331/334 311/333/334
f 303/312/335 302/310/335 318/332/335 319/319/335
f 296/313/336 295/311/336 311/333/336 312/321/336
f 309/329/337 82/26/337 324/334/337
f 308/250/338 323/327/338 338/335/338
f 317/330/339 316/328/339 331/336/339 332/337/339
f 310/331/340 309/329/340 324/334/340 325/338/340
f 318/332/341 317/330/341 332/337/341 333/339/341
f 311/333/342 310/331/342 325/338/342 326/340/342
f 319/319/343 318/332/343 333/339/343 334/341/343
f 312/321/344 311/333/344 326/340/344 327/342/344
f 320/320/345 319/319/345 334/341/345 335/343/345
f 313/322/346 312/321/346 327/342/346 328/344/346
f 321/323/347 320/320/347 335/343/347 336/345/347
f 314/324/348 313/322/348 328/344/348 329/346/348
f 322/325/349 321/323/349 336/345/349 337/347/349
f 315/326/350 314/324/350 329/346/350 330/348/350
f 323/327/351 322/325/351 337/347/351 338/335/351
f 316/328/352 315/326/352 330/348/352 331/336/352
f 328/344/353 327/342/353 342/349/353 343/350/353
f 336/345/354 335/343/354 350/351/354 351/352/354
f 329/346/355 328/344/355 343/350/355 344/353/355
f 337/347/356 336/345/356 351/352/356 352/354/356
f 330/348/357 329/346/357 344/353/357 345/355/357
f 338/335/358 337/347/358 352/354/358 353/356/358
f 331/336/359 330/348/359 345/355/359 346/357/359
f 324/334/360 82/26/360 339/358/360
f 308/250/361 338/335/361 353/356/361
f 332/337/362 331/336/362 346/357/362 347/359/362
f 325/338/363 324/334/363 339/358/363 340/360/363
f 333/339/364 332/337/364 347/359/364 348/361/364
f 326/340/365 325/338/365 340/360/365 341/362/365
f 334/341/366 333/339/366 348/361/366 349/363/366
f 327/342/367 326/340/367 341/362/367 342/349/367
f 335/343/368 334/341/368 349/363/368 350/351/368
f 347/359/369 346/357/369 361/364/369 362/365/369
f 340/360/370 339/358/370 354/366/370 355/367/370
f 348/361/371 347/359/371 362/365/371 363/368/371
f 341/362/372 340/360/372 355/367/372 356/369/372
f 349/363/373 348/361/373 363/368/373 364/370/373
f 342/349/374 341/362/374 356/369/374 357/371/374
f 350/351/375 349/363/375 364/370/375 365/372/375
f 343/350/376 342/349/376 357/371/376 358/373/376
f 351/352/377 350/351/377 365/372/377 366/374/377
f 344/353/378 343/350/378 358/373/378 359/375/378
f 352/354/379 351/352/379 366/374/379 367/376/379
f 345/355/380 344/353/380 359/375/380 360/377/380
f 353/356/381 352/354/381 367/376/381 368/378/381
f 346/357/382 345/355/382 360/377/382 361/364/382
f 339/358/383 82/26/383 354/366/383
f 308/250/384 353/356/384 368/378/384
f 366/374/385 365/372/385 380/379/385 381/380/385
f 359/375/386 358/373/386 373/381/386 374/382/386
f 367/376/387 366/374/387 381/380/387 382/383/387
f 360/377/388 359/375/388 374/382/388 375/384/388
f 368/378/389 367/376/389 382/383/389 383/385/389
f 361/364/390 360/377/390 375/384/390 376/386/390
f 354/366/391 82/26/391 369/387/391
f 308/250/392 368/378/392 383/385/392
f 362/365/393 361/364/393 376/386/393 377/388/393
f 355/367/394 354/366/394 369/387/394 370/389/394
f 363/368/395 362/365/395 377/388/395 378/390/395
f 356/369/396 355/367/396 370/389/396 371/391/396
f 364/370/397 363/368/397 378/390/397 379/392/397
f 357/371/398 356/369/398 371/391/398 372/393/398
f 365/372/399 364/370/399 379/392/399 380/379/399
f 358/373/400 357/371/400 372/393/400 373/381/400
f 378/390/401 377/388/401 392/394/401 393/395/401
f 371/391/402 370/389/402 385/396/402 386/397/402
f 379/392/403 378/390/403 393/395/403 394/398/403
f 372/393/404 371/391/404 386/397/404 387/399/404
f 380/379/405 379/392/405 394/398/405 395/400/405
f 373/381/406 372/393/406 387/399/406 388/401/406
f 381/380/407 380/379/407 395/400/407 396/402/407
f 374/382/408 373/381/408 388/401/408 389/403/408
f 382/383/409 381/380/409 396/402/409 397/404/409
f 375/384/410 374/382/410 389/403/410 390/405/410
f 383/385/411 382/383/411 397/404/411 398/406/411
f 376/386/412 375/384/412 390/405/412 391/407/412
f 369/387/413 82/26/413 384/408/413
f 308/250/414 383/385/414 398/406/414
f 377/388/415 376/386/415 391/407/415 392/394/415
f 370/389/416 369/387/416 384/408/416 385/396/416
f 397/404/417 396/402/417 411/409/417 412/410/417
f 390/405/418 389/403/418 404/411/418 405/412/418
f 398/406/419 397/404/419 412/410/419 413/413/419
f 391/407/420 390/405/420 405/412/420 406/414/420
f 384/408/421 82/26/421 399/415/421
f 308/250/422 398/406/422 413/413/422
f 392/394/423 391/407/423 406/414/423 407/416/423
f 385/396/424 384/408/424 399/415/424 400/417/424
f 393/395/425 392/394/425 407/416/425 408/418/425
f 386/397/426 385/396/426 400/417/426 401/419/426
f 394/398/427 393/395/427 408/418/427 409/420/427
f 387/399/428 386/397/428 401/419/428 402/421/428
f 395/400/429 394/398/429 409/420/429 410/422/429
f 388/401/430 387/399/430 402/421/430 403/423/430
f 396/402/431 395/400/431 410/422/431 411/409/431
f 389/403/432 388/401/432 403/423/432 404/411/432
f 401/419/433 400/417/433 415/424/433 416/425/433
f 409/420/434 408/418/434 423/426/434 424/427/434
f 402/421/435 401/419/435 416/425/435 417/428/435
f 410/422/436 409/420/436 424/427/436 425/429/436
f 403/423/437 402/421/437 417/428/437 418/430/437
f 411/409/438 410/422/438 425/429/438 426/431/438
f 404/411/439 403/423/439 418/430/439 419/432/439
f 412/410/440 411/409/440 426/431/440 427/433/440
f 405/412/441 404/411/441 419/432/441 420/434/441
f 413/413/442 412/410/442 427/433/442 428/435/442
f 406/414/443 405/412/443 420/434/443 421/436/443
f 399/415/444 82/26/444 414/437/444
f 308/250/445 413/413/445 428/435/445
f 407/416/446 406/414/446 421/436/446 422/438/446
f 400/417/447 399/415/447 414/437/447 415/424/447
f 408/418/448 407/416/448 422/438/448 423/426/448
f 420/434/449 419/432/449 434/439/449 435/440/449
f 428/435/450 427/433/450 442/441/450 443/442/450
f 421/436/451 420/434/451 435/440/451 436/443/451
f 414/437/452 82/26/452 429/444/452
f 308/250/453 428/435/453 443/442/453
f 422/438/454 421/436/454 436/443/454 437/445/454
f 415/424/455 414/437/455 429/444/455 430/446/455
f 423/426/456 422/438/456 437/445/456 438/447/456
f 416/425/457 415/424/457 430/446/457 431/448/457
f 424/427/458 423/426/458 438/447/458 439/449/458
f 417/428/459 416/425/459 431/448/459 432/450/459
f 425/429/460 424/427/460 439/449/460 440/451/460
f 418/430/461 417/428/461 432/450/461 433/452/461
f 426/431/462 425/429/462 440/451/462 441/453/462
f 419/432/463 418/430/463 433/452/463 434/439/463
f 427/433/464 426/431/464 441/453/464 442/441/464
f 439/449/465 438/447/465 453/454/465 454/455/465
f 432/450/466 431/448/466 446/456/466 447/457/466
f 440/451/467 439/449/467 454/455/467 455/458/467
f 433/452/468 432/450/468 447/457/468 448/459/468
f 441/453/469 440/451/469 455/458/469 456/460/469
f 434/439/470 433/452/470 448/459/470 449/461/470
f 442/441/471 441/453/471 456/460/471 457/462/471
f 435/440/472 434/439/472 449/461/472 450/463/472
f 443/442/473 442/441/473 457/462/473 458/464/473
f 436/443/474 435/440/474 450/463/474 451/465/474
f 429/444/475 82/26/475 444/466/475
f 308/250/476 443/442/476 458/464/476
f 437/445/477 436/443/477 451/465/477 452/467/477
f 430/446/478 429/444/478 444/466/478 445/468/478
f 438/447/479 437/445/479 452/467/479 453/454/479
f 431/448/480 430/446/480 445/468/480 446/456/480
f 458/464/481 457/462/481 472/469/481 473/470/481
f 451/465/482 450/463/482 465/471/482 466/472/482
f 444/466/483 82/26/483 459/473/483
f 308/250/484 458/464/484 473/470/484
f 452/467/485 451/465/485 466/472/485 467/474/485
f 445/468/486 444/466/486 459/473/486 460/475/486
f 453/454/487 452/467/487 467/474/487 468/476/487
f 446/456/488 445/468/488 460/475/488 461/477/488
f 454/455/489 453/454/489 468/476/489 469/478/489
f 447/457/490 446/456/490 461/477/490 462/479/490
f 455/458/491 454/455/491 469/478/491 470/480/491
f 448/459/492 447/457/492 462/479/492 463/481/492
f 456/460/493 455/458/493 470/480/493 471/482/493
f 449/461/494 448/459/494 463/481/494 464/483/494
f 457/462/495 456/460/495 471/482/495 472/469/495
f 450/463/496 449/461/496 464/483/496 465/471/496
f 462/484/497 461/485/497 1/6/497 476/5/497
f 470/486/498 469/487/498 6/1/498 479/9/498
f 463/488/499 462/484/499 476/5/499 2/11/499
f 471/489/500 470/486/500 479/9/500 480/13/500
f 464/490/501 463/488/501 2/11/501 477/15/501
f 472/491/502 471/489/502 480/13/502 481/17/502
f 465/492/503 464/490/503 477/15/503 3/19/503
f 473/493/504 472/491/504 481/17/504 482/21/504
f 466/494/505 465/492/505 3/19/505 4/23/505
f 459/495/506 82/26/506 474/25/506
f 308/28/507 473/493/507 482/21/507
f 467/496/508 466/494/508 4/23/508 5/29/508
f 460/497/509 459/495/509 474/25/509 475/31/509
f 468/498/510 467/496/510 5/29/510 478/2/510
f 461/485/511 460/497/511 475/31/511 1/6/511
f 469/487/512 468/498/512 478/2/512 6/1/512
